M48
; DRILL file {KiCad 8.0.7} date 2025-03-23T16:44:33+1300
; FORMAT={-:-/ absolute / inch / decimal}
; #@! TF.CreationDate,2025-03-23T16:44:33+13:00
; #@! TF.GenerationSoftware,Kicad,Pcbnew,8.0.7
; #@! TF.FileFunction,Plated,1,2,PTH
FMAT,2
INCH
; #@! TA.AperFunction,Plated,PTH,ComponentDrill
T1C0.0276
; #@! TA.AperFunction,Plated,PTH,ComponentDrill
T2C0.0295
; #@! TA.AperFunction,Plated,PTH,ComponentDrill
T3C0.0315
; #@! TA.AperFunction,Plated,PTH,ComponentDrill
T4C0.0433
%
G90
G05
T1
X4.8281Y-1.8
X4.9266Y-1.8
X5.025Y-1.8
X5.275Y-3.865
X5.35Y-2.0
X5.35Y-2.3
X5.35Y-2.895
X5.35Y-2.99
X5.35Y-3.085
X5.35Y-3.18
X5.35Y-3.275
X5.35Y-3.375
X5.355Y-3.47
X5.4031Y-1.8
X5.425Y-3.865
X5.45Y-2.0
X5.45Y-2.3
X5.5016Y-1.8
X5.55Y-2.0
X5.55Y-2.3
X5.575Y-3.865
X5.6Y-1.8
X5.65Y-2.0
X5.65Y-2.3
X5.65Y-2.895
X5.65Y-2.99
X5.65Y-3.085
X5.65Y-3.18
X5.65Y-3.275
X5.65Y-3.375
X5.655Y-3.47
X5.725Y-3.865
X5.875Y-3.325
X5.9781Y-1.8
X6.0766Y-1.8
X6.175Y-1.8
X6.175Y-3.325
T2
X5.8892Y-2.125
X5.8892Y-2.175
X5.8892Y-2.225
T3
X4.759Y-2.39
X4.7713Y-2.1
X4.85Y-2.1
X4.8574Y-2.39
X5.075Y-2.0516
X5.075Y-2.15
X5.075Y-2.3463
X5.075Y-2.425
X5.2268Y-2.5542
X5.2268Y-2.6526
X5.2281Y-3.625
X5.35Y-2.46
X5.35Y-2.76
X5.425Y-3.625
X5.45Y-2.46
X5.45Y-2.76
X5.55Y-2.46
X5.55Y-2.76
X5.575Y-3.625
X5.65Y-2.46
X5.65Y-2.76
X5.765Y-2.555
X5.765Y-2.6534
X5.7719Y-3.625
X5.8416Y-3.1
X5.94Y-3.1
X5.9516Y-2.655
X5.9516Y-2.81
X5.9531Y-2.5
X6.0742Y-2.025
X6.0742Y-2.325
X6.1484Y-2.655
X6.1484Y-2.81
X6.15Y-2.5
X6.1534Y-3.105
X6.1992Y-2.025
X6.1992Y-2.325
X6.2519Y-3.105
T4
X5.825Y-3.45
X6.225Y-3.45
M30
