%TF.GenerationSoftware,KiCad,Pcbnew,8.0.7*%
%TF.CreationDate,2025-03-23T16:44:47+13:00*%
%TF.ProjectId,ProCo Rat,50726f43-6f20-4526-9174-2e6b69636164,rev?*%
%TF.SameCoordinates,Original*%
%TF.FileFunction,Legend,Top*%
%TF.FilePolarity,Positive*%
%FSLAX46Y46*%
G04 Gerber Fmt 4.6, Leading zero omitted, Abs format (unit mm)*
G04 Created by KiCad (PCBNEW 8.0.7) date 2025-03-23 16:44:47*
%MOMM*%
%LPD*%
G01*
G04 APERTURE LIST*
%ADD10C,0.100000*%
%ADD11C,0.150000*%
%ADD12C,0.120000*%
G04 APERTURE END LIST*
D10*
X130556000Y-69850000D02*
X132461000Y-69850000D01*
X132461000Y-76200000D01*
X130556000Y-76200000D01*
X130556000Y-69850000D01*
G36*
X130556000Y-69850000D02*
G01*
X132461000Y-69850000D01*
X132461000Y-76200000D01*
X130556000Y-76200000D01*
X130556000Y-69850000D01*
G37*
X119316500Y-69850000D02*
X125793500Y-69850000D01*
X125793500Y-71755000D01*
X119316500Y-71755000D01*
X119316500Y-69850000D01*
G36*
X119316500Y-69850000D02*
G01*
X125793500Y-69850000D01*
X125793500Y-71755000D01*
X119316500Y-71755000D01*
X119316500Y-69850000D01*
G37*
X128333500Y-69850000D02*
X130238500Y-69850000D01*
X130238500Y-76200000D01*
X128333500Y-76200000D01*
X128333500Y-69850000D01*
G36*
X128333500Y-69850000D02*
G01*
X130238500Y-69850000D01*
X130238500Y-76200000D01*
X128333500Y-76200000D01*
X128333500Y-69850000D01*
G37*
X119316500Y-74295000D02*
X125793500Y-74295000D01*
X125793500Y-76200000D01*
X119316500Y-76200000D01*
X119316500Y-74295000D01*
G36*
X119316500Y-74295000D02*
G01*
X125793500Y-74295000D01*
X125793500Y-76200000D01*
X119316500Y-76200000D01*
X119316500Y-74295000D01*
G37*
X119316500Y-72072500D02*
X125793500Y-72072500D01*
X125793500Y-73977500D01*
X119316500Y-73977500D01*
X119316500Y-72072500D01*
G36*
X119316500Y-72072500D02*
G01*
X125793500Y-72072500D01*
X125793500Y-73977500D01*
X119316500Y-73977500D01*
X119316500Y-72072500D01*
G37*
X126111000Y-69850000D02*
X128016000Y-69850000D01*
X128016000Y-76200000D01*
X126111000Y-76200000D01*
X126111000Y-69850000D01*
G36*
X126111000Y-69850000D02*
G01*
X128016000Y-69850000D01*
X128016000Y-76200000D01*
X126111000Y-76200000D01*
X126111000Y-69850000D01*
G37*
G36*
X122896458Y-85159511D02*
G01*
X122948118Y-85163092D01*
X123002680Y-85170286D01*
X123051094Y-85180730D01*
X123087699Y-85192267D01*
X123135242Y-85214048D01*
X123178413Y-85244864D01*
X123211424Y-85282645D01*
X123219346Y-85295338D01*
X123240341Y-85343080D01*
X123252587Y-85393552D01*
X123258186Y-85444385D01*
X123259158Y-85479009D01*
X123256092Y-85530426D01*
X123244767Y-85585637D01*
X123225097Y-85635706D01*
X123197083Y-85680632D01*
X123171963Y-85709574D01*
X123128030Y-85744000D01*
X123081164Y-85766903D01*
X123025797Y-85783710D01*
X122973165Y-85793059D01*
X122914629Y-85798174D01*
X122876674Y-85799211D01*
X122740630Y-85799211D01*
X122740630Y-86060795D01*
X122875208Y-86060795D01*
X122875208Y-86190000D01*
X122454866Y-86190000D01*
X122454866Y-86060795D01*
X122583826Y-86060795D01*
X122583826Y-85674159D01*
X122740630Y-85674159D01*
X122837351Y-85674159D01*
X122888016Y-85672768D01*
X122937151Y-85667959D01*
X122986164Y-85657655D01*
X122989758Y-85656573D01*
X123036630Y-85634452D01*
X123071840Y-85598434D01*
X123073533Y-85595757D01*
X123092818Y-85547822D01*
X123099744Y-85498809D01*
X123100400Y-85475589D01*
X123095879Y-85424906D01*
X123080251Y-85378290D01*
X123050168Y-85338804D01*
X123043247Y-85332951D01*
X122999761Y-85308995D01*
X122947081Y-85295020D01*
X122897240Y-85289119D01*
X122848341Y-85287522D01*
X122740630Y-85287522D01*
X122740630Y-85674159D01*
X122583826Y-85674159D01*
X122583826Y-85287522D01*
X122454866Y-85287522D01*
X122454866Y-85158318D01*
X122840281Y-85158318D01*
X122896458Y-85159511D01*
G37*
G36*
X123609402Y-85898862D02*
G01*
X123609402Y-86063482D01*
X123766695Y-86063482D01*
X123766695Y-86190000D01*
X123323638Y-86190000D01*
X123323638Y-86063482D01*
X123468474Y-86063482D01*
X123468474Y-85597955D01*
X123323638Y-85597955D01*
X123323638Y-85470949D01*
X123581070Y-85470949D01*
X123581070Y-85629218D01*
X123603998Y-85584293D01*
X123632931Y-85542546D01*
X123668976Y-85507083D01*
X123688537Y-85493663D01*
X123734099Y-85473442D01*
X123784363Y-85461646D01*
X123836406Y-85456253D01*
X123872452Y-85455317D01*
X123904692Y-85455317D01*
X123904692Y-85598932D01*
X123873917Y-85598932D01*
X123819848Y-85600840D01*
X123767851Y-85607548D01*
X123716999Y-85622307D01*
X123701970Y-85629462D01*
X123662575Y-85659229D01*
X123634125Y-85702827D01*
X123627476Y-85721297D01*
X123617186Y-85770048D01*
X123611944Y-85819510D01*
X123609685Y-85870709D01*
X123609402Y-85898862D01*
G37*
G36*
X124327934Y-85458507D02*
G01*
X124377424Y-85468079D01*
X124424410Y-85484031D01*
X124468893Y-85506364D01*
X124509910Y-85534070D01*
X124550472Y-85570458D01*
X124585121Y-85612372D01*
X124604936Y-85643384D01*
X124626628Y-85687226D01*
X124643623Y-85738883D01*
X124652774Y-85793013D01*
X124654517Y-85830474D01*
X124651373Y-85881048D01*
X124641939Y-85929453D01*
X124623808Y-85981319D01*
X124604203Y-86019762D01*
X124576894Y-86060398D01*
X124540733Y-86100786D01*
X124498815Y-86135531D01*
X124467672Y-86155561D01*
X124423265Y-86177467D01*
X124376508Y-86193114D01*
X124327400Y-86202502D01*
X124275941Y-86205631D01*
X124223047Y-86202502D01*
X124172809Y-86193114D01*
X124125228Y-86177467D01*
X124080302Y-86155561D01*
X124039117Y-86128298D01*
X123998549Y-86092298D01*
X123964087Y-86050657D01*
X123944503Y-86019762D01*
X123923346Y-85975692D01*
X123906769Y-85923521D01*
X123898457Y-85874844D01*
X123896143Y-85830474D01*
X124045376Y-85830474D01*
X124050334Y-85880343D01*
X124065208Y-85927552D01*
X124075418Y-85948443D01*
X124103854Y-85989345D01*
X124139950Y-86022749D01*
X124159193Y-86035638D01*
X124204423Y-86056354D01*
X124252798Y-86066509D01*
X124276185Y-86067634D01*
X124325692Y-86062353D01*
X124375219Y-86044856D01*
X124391956Y-86035638D01*
X124431150Y-86005815D01*
X124464702Y-85965584D01*
X124474510Y-85949176D01*
X124493645Y-85903428D01*
X124503025Y-85854293D01*
X124504064Y-85830474D01*
X124499186Y-85780884D01*
X124484554Y-85734115D01*
X124474510Y-85713482D01*
X124446628Y-85672775D01*
X124411007Y-85639163D01*
X124391956Y-85626043D01*
X124347157Y-85604536D01*
X124298488Y-85593994D01*
X124274720Y-85592826D01*
X124225015Y-85598187D01*
X124178696Y-85614270D01*
X124158460Y-85625310D01*
X124119304Y-85655412D01*
X124087565Y-85692931D01*
X124075418Y-85712749D01*
X124055967Y-85758690D01*
X124046432Y-85807210D01*
X124045376Y-85830474D01*
X123896143Y-85830474D01*
X123899166Y-85777824D01*
X123908233Y-85728075D01*
X123923346Y-85681226D01*
X123944503Y-85637278D01*
X123974838Y-85592247D01*
X124011162Y-85553051D01*
X124053475Y-85519690D01*
X124079570Y-85503677D01*
X124124266Y-85482520D01*
X124171893Y-85467407D01*
X124222452Y-85458340D01*
X124275941Y-85455317D01*
X124327934Y-85458507D01*
G37*
G36*
X125633443Y-85271891D02*
G01*
X125633443Y-85158318D01*
X125765334Y-85158318D01*
X125765334Y-85486580D01*
X125630756Y-85486580D01*
X125602989Y-85440662D01*
X125570489Y-85400118D01*
X125533257Y-85364947D01*
X125491293Y-85335150D01*
X125445895Y-85311321D01*
X125398359Y-85294300D01*
X125348686Y-85284088D01*
X125296876Y-85280683D01*
X125247066Y-85284026D01*
X125194277Y-85295779D01*
X125144927Y-85315995D01*
X125113938Y-85334173D01*
X125071539Y-85367120D01*
X125034743Y-85405785D01*
X125003550Y-85450170D01*
X124988642Y-85477299D01*
X124968980Y-85522942D01*
X124954936Y-85570233D01*
X124946510Y-85619173D01*
X124943701Y-85669762D01*
X124946632Y-85721862D01*
X124955424Y-85771917D01*
X124970079Y-85819926D01*
X124990595Y-85865889D01*
X125016363Y-85908586D01*
X125050607Y-85951255D01*
X125090414Y-85988244D01*
X125120044Y-86009748D01*
X125167949Y-86035723D01*
X125218791Y-86053197D01*
X125272569Y-86062170D01*
X125303715Y-86063482D01*
X125356725Y-86059800D01*
X125406978Y-86048756D01*
X125454472Y-86030348D01*
X125499208Y-86004577D01*
X125523533Y-85986545D01*
X125562848Y-85949705D01*
X125597231Y-85906717D01*
X125622776Y-85864977D01*
X125644698Y-85818721D01*
X125662996Y-85767948D01*
X125794887Y-85838778D01*
X125776162Y-85891437D01*
X125753418Y-85940268D01*
X125726655Y-85985270D01*
X125695873Y-86026445D01*
X125661072Y-86063791D01*
X125622252Y-86097308D01*
X125605599Y-86109644D01*
X125562087Y-86137296D01*
X125516274Y-86160262D01*
X125468159Y-86178541D01*
X125417742Y-86192133D01*
X125365023Y-86201038D01*
X125310003Y-86205256D01*
X125287351Y-86205631D01*
X125232115Y-86203124D01*
X125179250Y-86195602D01*
X125128755Y-86183065D01*
X125080629Y-86165514D01*
X125034874Y-86142948D01*
X125020149Y-86134312D01*
X124978189Y-86105842D01*
X124939869Y-86073919D01*
X124905191Y-86038545D01*
X124874153Y-85999719D01*
X124846755Y-85957441D01*
X124838432Y-85942581D01*
X124816353Y-85896511D01*
X124798842Y-85848792D01*
X124785899Y-85799425D01*
X124777524Y-85748408D01*
X124773717Y-85695744D01*
X124773464Y-85677822D01*
X124775791Y-85620406D01*
X124782772Y-85565394D01*
X124794406Y-85512787D01*
X124810695Y-85462583D01*
X124831638Y-85414784D01*
X124839653Y-85399385D01*
X124866335Y-85355522D01*
X124896554Y-85315522D01*
X124930311Y-85279387D01*
X124967606Y-85247115D01*
X125008439Y-85218708D01*
X125022836Y-85210097D01*
X125067801Y-85187188D01*
X125115136Y-85169019D01*
X125164842Y-85155589D01*
X125216917Y-85146899D01*
X125271362Y-85142949D01*
X125290037Y-85142686D01*
X125339496Y-85144762D01*
X125392802Y-85152061D01*
X125443635Y-85164615D01*
X125476150Y-85175903D01*
X125523055Y-85196827D01*
X125567873Y-85222503D01*
X125610604Y-85252932D01*
X125633443Y-85271891D01*
G37*
G36*
X126342449Y-85458507D02*
G01*
X126391939Y-85468079D01*
X126438925Y-85484031D01*
X126483408Y-85506364D01*
X126524425Y-85534070D01*
X126564987Y-85570458D01*
X126599636Y-85612372D01*
X126619451Y-85643384D01*
X126641143Y-85687226D01*
X126658138Y-85738883D01*
X126667289Y-85793013D01*
X126669032Y-85830474D01*
X126665888Y-85881048D01*
X126656454Y-85929453D01*
X126638323Y-85981319D01*
X126618718Y-86019762D01*
X126591409Y-86060398D01*
X126555248Y-86100786D01*
X126513330Y-86135531D01*
X126482187Y-86155561D01*
X126437780Y-86177467D01*
X126391023Y-86193114D01*
X126341915Y-86202502D01*
X126290456Y-86205631D01*
X126237562Y-86202502D01*
X126187324Y-86193114D01*
X126139743Y-86177467D01*
X126094817Y-86155561D01*
X126053632Y-86128298D01*
X126013064Y-86092298D01*
X125978602Y-86050657D01*
X125959018Y-86019762D01*
X125937861Y-85975692D01*
X125921284Y-85923521D01*
X125912972Y-85874844D01*
X125910658Y-85830474D01*
X126059891Y-85830474D01*
X126064849Y-85880343D01*
X126079723Y-85927552D01*
X126089933Y-85948443D01*
X126118369Y-85989345D01*
X126154465Y-86022749D01*
X126173708Y-86035638D01*
X126218938Y-86056354D01*
X126267313Y-86066509D01*
X126290700Y-86067634D01*
X126340207Y-86062353D01*
X126389734Y-86044856D01*
X126406471Y-86035638D01*
X126445665Y-86005815D01*
X126479217Y-85965584D01*
X126489025Y-85949176D01*
X126508160Y-85903428D01*
X126517540Y-85854293D01*
X126518579Y-85830474D01*
X126513701Y-85780884D01*
X126499069Y-85734115D01*
X126489025Y-85713482D01*
X126461143Y-85672775D01*
X126425522Y-85639163D01*
X126406471Y-85626043D01*
X126361672Y-85604536D01*
X126313003Y-85593994D01*
X126289235Y-85592826D01*
X126239530Y-85598187D01*
X126193211Y-85614270D01*
X126172975Y-85625310D01*
X126133819Y-85655412D01*
X126102080Y-85692931D01*
X126089933Y-85712749D01*
X126070482Y-85758690D01*
X126060947Y-85807210D01*
X126059891Y-85830474D01*
X125910658Y-85830474D01*
X125913681Y-85777824D01*
X125922748Y-85728075D01*
X125937861Y-85681226D01*
X125959018Y-85637278D01*
X125989353Y-85592247D01*
X126025677Y-85553051D01*
X126067990Y-85519690D01*
X126094085Y-85503677D01*
X126138781Y-85482520D01*
X126186408Y-85467407D01*
X126236967Y-85458340D01*
X126290456Y-85455317D01*
X126342449Y-85458507D01*
G37*
G36*
X127602475Y-85159910D02*
G01*
X127656810Y-85164686D01*
X127705696Y-85172647D01*
X127757164Y-85186403D01*
X127807292Y-85208246D01*
X127831140Y-85223531D01*
X127869929Y-85260732D01*
X127897635Y-85307367D01*
X127912787Y-85355911D01*
X127919454Y-85411679D01*
X127919800Y-85428939D01*
X127915337Y-85482344D01*
X127901948Y-85530725D01*
X127876603Y-85578591D01*
X127863380Y-85596001D01*
X127828245Y-85630597D01*
X127786040Y-85658546D01*
X127736763Y-85679850D01*
X127706332Y-85688813D01*
X127889025Y-86060795D01*
X128015299Y-86060795D01*
X128015299Y-86190000D01*
X127783268Y-86190000D01*
X127554413Y-85710307D01*
X127409577Y-85710307D01*
X127409577Y-86060795D01*
X127541468Y-86060795D01*
X127541468Y-86190000D01*
X127112822Y-86190000D01*
X127112822Y-86060795D01*
X127252773Y-86060795D01*
X127252773Y-85580369D01*
X127409577Y-85580369D01*
X127560030Y-85580369D01*
X127612636Y-85577607D01*
X127661390Y-85568056D01*
X127706418Y-85547591D01*
X127709507Y-85545443D01*
X127742899Y-85505485D01*
X127756638Y-85456278D01*
X127758355Y-85426496D01*
X127751967Y-85378033D01*
X127728365Y-85335124D01*
X127712926Y-85321228D01*
X127667466Y-85299405D01*
X127615336Y-85289629D01*
X127569556Y-85287522D01*
X127409577Y-85287522D01*
X127409577Y-85580369D01*
X127252773Y-85580369D01*
X127252773Y-85287522D01*
X127112822Y-85287522D01*
X127112822Y-85158318D01*
X127542689Y-85158318D01*
X127602475Y-85159910D01*
G37*
G36*
X128467187Y-85457610D02*
G01*
X128520433Y-85466080D01*
X128572156Y-85483402D01*
X128614139Y-85508876D01*
X128627371Y-85520530D01*
X128659840Y-85563182D01*
X128679780Y-85611118D01*
X128690340Y-85660802D01*
X128694473Y-85717708D01*
X128694538Y-85726427D01*
X128694538Y-86063482D01*
X128815438Y-86063482D01*
X128815438Y-86190000D01*
X128569486Y-86190000D01*
X128569486Y-86106224D01*
X128530019Y-86140007D01*
X128488920Y-86166800D01*
X128438910Y-86189225D01*
X128386679Y-86202136D01*
X128340142Y-86205631D01*
X128287820Y-86200633D01*
X128239207Y-86185637D01*
X128218020Y-86175345D01*
X128176759Y-86147153D01*
X128140348Y-86109219D01*
X128129360Y-86093768D01*
X128106653Y-86046998D01*
X128096662Y-85996021D01*
X128096143Y-85980683D01*
X128231454Y-85980683D01*
X128241518Y-86028867D01*
X128267113Y-86063482D01*
X128310982Y-86089209D01*
X128359193Y-86096454D01*
X128410636Y-86091173D01*
X128460431Y-86075327D01*
X128508578Y-86048919D01*
X128549354Y-86017146D01*
X128555076Y-86011946D01*
X128555076Y-85930125D01*
X128514470Y-85902907D01*
X128468064Y-85879986D01*
X128415857Y-85864637D01*
X128369451Y-85860272D01*
X128320113Y-85867839D01*
X128274822Y-85892591D01*
X128272242Y-85894710D01*
X128241651Y-85933300D01*
X128231454Y-85980683D01*
X128096143Y-85980683D01*
X128102190Y-85928727D01*
X128120329Y-85881609D01*
X128132780Y-85861493D01*
X128166978Y-85822817D01*
X128209641Y-85792123D01*
X128232187Y-85780648D01*
X128279184Y-85763384D01*
X128330331Y-85753672D01*
X128357972Y-85752316D01*
X128409950Y-85756117D01*
X128460126Y-85767520D01*
X128508502Y-85786526D01*
X128555076Y-85813133D01*
X128555076Y-85734487D01*
X128551569Y-85685676D01*
X128536528Y-85636486D01*
X128519172Y-85611877D01*
X128475652Y-85585229D01*
X128426307Y-85575658D01*
X128401935Y-85574752D01*
X128351854Y-85579528D01*
X128305215Y-85596489D01*
X128265777Y-85628054D01*
X128240979Y-85662435D01*
X128104936Y-85628241D01*
X128133433Y-85582710D01*
X128166992Y-85544212D01*
X128205612Y-85512746D01*
X128229256Y-85498304D01*
X128275694Y-85477524D01*
X128326809Y-85463545D01*
X128376169Y-85456828D01*
X128415613Y-85455317D01*
X128467187Y-85457610D01*
G37*
G36*
X129252877Y-85470949D02*
G01*
X129252877Y-85597955D01*
X129120986Y-85597955D01*
X129120986Y-85976775D01*
X129124571Y-86027858D01*
X129133687Y-86053468D01*
X129177406Y-86071053D01*
X129226879Y-86065478D01*
X129252877Y-86058108D01*
X129252877Y-86186336D01*
X129203489Y-86198829D01*
X129154213Y-86205461D01*
X129146387Y-86205631D01*
X129095535Y-86201242D01*
X129047358Y-86184390D01*
X129017916Y-86160690D01*
X128994102Y-86117803D01*
X128982653Y-86068315D01*
X128978875Y-86013090D01*
X128978837Y-86006329D01*
X128978837Y-85597955D01*
X128884559Y-85597955D01*
X128884559Y-85470949D01*
X128978837Y-85470949D01*
X128978837Y-85363726D01*
X129120986Y-85236475D01*
X129120986Y-85470949D01*
X129252877Y-85470949D01*
G37*
G36*
X124921728Y-87350568D02*
G01*
X125030807Y-87637285D01*
X125139544Y-87350568D01*
X125069275Y-87350568D01*
X125069275Y-87261664D01*
X125311711Y-87261664D01*
X125311711Y-87350568D01*
X125234774Y-87350568D01*
X125073720Y-87775942D01*
X124983790Y-87775942D01*
X124819317Y-87350568D01*
X124729900Y-87350568D01*
X124729900Y-87261664D01*
X124987551Y-87261664D01*
X124987551Y-87350568D01*
X124921728Y-87350568D01*
G37*
G36*
X125830434Y-87227983D02*
G01*
X125827395Y-87264431D01*
X125818279Y-87297907D01*
X125801231Y-87331298D01*
X125799317Y-87334155D01*
X125775301Y-87363781D01*
X125749356Y-87389213D01*
X125721746Y-87412728D01*
X125694434Y-87433821D01*
X125689554Y-87437421D01*
X125643221Y-87471957D01*
X125613156Y-87494825D01*
X125584572Y-87517251D01*
X125556971Y-87540019D01*
X125555001Y-87541713D01*
X125529592Y-87566280D01*
X125507522Y-87593006D01*
X125501829Y-87601039D01*
X125485182Y-87630936D01*
X125473836Y-87663777D01*
X125471568Y-87673702D01*
X125744265Y-87673702D01*
X125748539Y-87502390D01*
X125836076Y-87502390D01*
X125830434Y-87765000D01*
X125366421Y-87765000D01*
X125368228Y-87727590D01*
X125372751Y-87692407D01*
X125381246Y-87654922D01*
X125393289Y-87620343D01*
X125396854Y-87612152D01*
X125412348Y-87581175D01*
X125431465Y-87549722D01*
X125452367Y-87521867D01*
X125467293Y-87505296D01*
X125494435Y-87478909D01*
X125521603Y-87454990D01*
X125551368Y-87430908D01*
X125565430Y-87420153D01*
X125637066Y-87366127D01*
X125665043Y-87344361D01*
X125690945Y-87319742D01*
X125706138Y-87300474D01*
X125721013Y-87268460D01*
X125725971Y-87232257D01*
X125722254Y-87197922D01*
X125708275Y-87164585D01*
X125694512Y-87147969D01*
X125665002Y-87128265D01*
X125630749Y-87118992D01*
X125607660Y-87117536D01*
X125571074Y-87120890D01*
X125538450Y-87132484D01*
X125512321Y-87154802D01*
X125508668Y-87159937D01*
X125493972Y-87191012D01*
X125485399Y-87226802D01*
X125481480Y-87264838D01*
X125480800Y-87291584D01*
X125480800Y-87316374D01*
X125385057Y-87316374D01*
X125385057Y-87288164D01*
X125386301Y-87252876D01*
X125391077Y-87213847D01*
X125399436Y-87178436D01*
X125413716Y-87141696D01*
X125432871Y-87109882D01*
X125436006Y-87105739D01*
X125460698Y-87080086D01*
X125488611Y-87060058D01*
X125509010Y-87049832D01*
X125543167Y-87038893D01*
X125578616Y-87033300D01*
X125610566Y-87031880D01*
X125645647Y-87033601D01*
X125681511Y-87039649D01*
X125716887Y-87051476D01*
X125732810Y-87059406D01*
X125763615Y-87080331D01*
X125788561Y-87105255D01*
X125806156Y-87131385D01*
X125819978Y-87162855D01*
X125828063Y-87196143D01*
X125830434Y-87227983D01*
G37*
G36*
X125990461Y-87765000D02*
G01*
X125990461Y-87633695D01*
X126118860Y-87633695D01*
X126118860Y-87765000D01*
X125990461Y-87765000D01*
G37*
G36*
X126533941Y-87034318D02*
G01*
X126567456Y-87041631D01*
X126604116Y-87056842D01*
X126636892Y-87079073D01*
X126665785Y-87108325D01*
X126682890Y-87131727D01*
X126701606Y-87164715D01*
X126717151Y-87201277D01*
X126729523Y-87241411D01*
X126737136Y-87276091D01*
X126742719Y-87313058D01*
X126746272Y-87352312D01*
X126747795Y-87393852D01*
X126747859Y-87404595D01*
X126747111Y-87440523D01*
X126744870Y-87474789D01*
X126740208Y-87513716D01*
X126733394Y-87550251D01*
X126724428Y-87584394D01*
X126717255Y-87605826D01*
X126702713Y-87640473D01*
X126685718Y-87671257D01*
X126663288Y-87701711D01*
X126637654Y-87727122D01*
X126630744Y-87732686D01*
X126601401Y-87751610D01*
X126569451Y-87765128D01*
X126534894Y-87773238D01*
X126497729Y-87775942D01*
X126460976Y-87773491D01*
X126427011Y-87766141D01*
X126389933Y-87750852D01*
X126356870Y-87728506D01*
X126332385Y-87704494D01*
X126310688Y-87675582D01*
X126291972Y-87642504D01*
X126276427Y-87605995D01*
X126264056Y-87566055D01*
X126256442Y-87531633D01*
X126250859Y-87495015D01*
X126247306Y-87456200D01*
X126245783Y-87415190D01*
X126245720Y-87404595D01*
X126352063Y-87404595D01*
X126352635Y-87440995D01*
X126354957Y-87482845D01*
X126359066Y-87520637D01*
X126364962Y-87554371D01*
X126374394Y-87589498D01*
X126388651Y-87623094D01*
X126409188Y-87652715D01*
X126437658Y-87675922D01*
X126471807Y-87688418D01*
X126497729Y-87690799D01*
X126535101Y-87685524D01*
X126567008Y-87669701D01*
X126593452Y-87643329D01*
X126605782Y-87624120D01*
X126620105Y-87590587D01*
X126629582Y-87555020D01*
X126635505Y-87520569D01*
X126639633Y-87481743D01*
X126641644Y-87447533D01*
X126642505Y-87410523D01*
X126642541Y-87400833D01*
X126641948Y-87363479D01*
X126640169Y-87328951D01*
X126636277Y-87289766D01*
X126630532Y-87254997D01*
X126621191Y-87219103D01*
X126606921Y-87185264D01*
X126604586Y-87181137D01*
X126583620Y-87152863D01*
X126555283Y-87130711D01*
X126521915Y-87118782D01*
X126496875Y-87116510D01*
X126461858Y-87121030D01*
X126428467Y-87136921D01*
X126401433Y-87164253D01*
X126386941Y-87188831D01*
X126373351Y-87223816D01*
X126364359Y-87259247D01*
X126357819Y-87299702D01*
X126354243Y-87337254D01*
X126352370Y-87378295D01*
X126352063Y-87404595D01*
X126245720Y-87404595D01*
X126246463Y-87368564D01*
X126248692Y-87334203D01*
X126253328Y-87295174D01*
X126260104Y-87258549D01*
X126269020Y-87224328D01*
X126276152Y-87202850D01*
X126290801Y-87168063D01*
X126307970Y-87137153D01*
X126330677Y-87106576D01*
X126356675Y-87081064D01*
X126363689Y-87075478D01*
X126393480Y-87056404D01*
X126425751Y-87042780D01*
X126460501Y-87034605D01*
X126497729Y-87031880D01*
X126533941Y-87034318D01*
G37*
G36*
X119354635Y-80550554D02*
G01*
X119621678Y-80550554D01*
X120286348Y-81864531D01*
X120337573Y-81769595D01*
X120388226Y-81675581D01*
X120438307Y-81582487D01*
X120487817Y-81490315D01*
X120536754Y-81399065D01*
X120552939Y-81368853D01*
X120597958Y-81283954D01*
X120640574Y-81203469D01*
X120665902Y-81155580D01*
X120709639Y-81072997D01*
X120752742Y-80991304D01*
X120781123Y-80937337D01*
X120826045Y-80851377D01*
X120869027Y-80768251D01*
X120888212Y-80730841D01*
X120930899Y-80647629D01*
X120972221Y-80565958D01*
X120979937Y-80550554D01*
X121216706Y-80550554D01*
X121216706Y-82235500D01*
X120982648Y-82235500D01*
X120982648Y-80854196D01*
X120275052Y-82235500D01*
X120221282Y-82235500D01*
X119480701Y-80795456D01*
X119480701Y-82235500D01*
X119354635Y-82235500D01*
X119354635Y-80550554D01*
G37*
G36*
X123117636Y-82235500D02*
G01*
X122874993Y-82235500D01*
X122618342Y-81673851D01*
X121872339Y-81673851D01*
X121609363Y-82235500D01*
X121472001Y-82235500D01*
X121785684Y-81564503D01*
X121924302Y-81564503D01*
X122566380Y-81564503D01*
X122243308Y-80879500D01*
X121924302Y-81564503D01*
X121785684Y-81564503D01*
X122277648Y-80512146D01*
X122324640Y-80512146D01*
X123117636Y-82235500D01*
G37*
G36*
X123606989Y-81399127D02*
G01*
X123611349Y-81495646D01*
X123624431Y-81586446D01*
X123649194Y-81680629D01*
X123662114Y-81716325D01*
X123700672Y-81799917D01*
X123752564Y-81882083D01*
X123814387Y-81953997D01*
X123885492Y-82015394D01*
X123964604Y-82066005D01*
X124043475Y-82102656D01*
X124136489Y-82131983D01*
X124225588Y-82148080D01*
X124319012Y-82154116D01*
X124328592Y-82154167D01*
X124418566Y-82142729D01*
X124488547Y-82118019D01*
X124571325Y-82073873D01*
X124639916Y-82025390D01*
X124707919Y-81965294D01*
X124769145Y-81898872D01*
X124823965Y-81825223D01*
X124861322Y-81761510D01*
X124971573Y-81837872D01*
X124917914Y-81917193D01*
X124861204Y-81988359D01*
X124848219Y-82003249D01*
X124783094Y-82068584D01*
X124709494Y-82126999D01*
X124686908Y-82142419D01*
X124602720Y-82190419D01*
X124516800Y-82226782D01*
X124481769Y-82238662D01*
X124392938Y-82260690D01*
X124297245Y-82272551D01*
X124229637Y-82274810D01*
X124130258Y-82270461D01*
X124035455Y-82257414D01*
X123945226Y-82235669D01*
X123859572Y-82205226D01*
X123769793Y-82161934D01*
X123687518Y-82110851D01*
X123612750Y-82051976D01*
X123574456Y-82015901D01*
X123511863Y-81945402D01*
X123457778Y-81868612D01*
X123412199Y-81785532D01*
X123390553Y-81736658D01*
X123359318Y-81645472D01*
X123338306Y-81551356D01*
X123327516Y-81454308D01*
X123325938Y-81399127D01*
X123330860Y-81304201D01*
X123345626Y-81211065D01*
X123355760Y-81168683D01*
X123384391Y-81079580D01*
X123421821Y-80995101D01*
X123442064Y-80957670D01*
X123492200Y-80880395D01*
X123550091Y-80808639D01*
X123579426Y-80777382D01*
X123648572Y-80714442D01*
X123724579Y-80659259D01*
X123761973Y-80636405D01*
X123847783Y-80592711D01*
X123932685Y-80560188D01*
X123984735Y-80544680D01*
X124078119Y-80524855D01*
X124175952Y-80514180D01*
X124243644Y-80512146D01*
X124337283Y-80517293D01*
X124432845Y-80534485D01*
X124481769Y-80548746D01*
X124567923Y-80582143D01*
X124653867Y-80627116D01*
X124682842Y-80645442D01*
X124759296Y-80701745D01*
X124828140Y-80765486D01*
X124846411Y-80785063D01*
X124905729Y-80855464D01*
X124961413Y-80933580D01*
X124971573Y-80949536D01*
X124866293Y-81026803D01*
X124817194Y-80948971D01*
X124760549Y-80877295D01*
X124752427Y-80868204D01*
X124684988Y-80800652D01*
X124613709Y-80743493D01*
X124535394Y-80694659D01*
X124464599Y-80662160D01*
X124376626Y-80637637D01*
X124319555Y-80632790D01*
X124221138Y-80639144D01*
X124126566Y-80658205D01*
X124043927Y-80686560D01*
X123958616Y-80728609D01*
X123880993Y-80781443D01*
X123817099Y-80838833D01*
X123755115Y-80911937D01*
X123702742Y-80995186D01*
X123663470Y-81079669D01*
X123633685Y-81171830D01*
X123616310Y-81260737D01*
X123607871Y-81355290D01*
X123606989Y-81399127D01*
G37*
G36*
X125631273Y-82235500D02*
G01*
X125399023Y-82235500D01*
X125399023Y-80550554D01*
X125631273Y-80550554D01*
X125631273Y-81317794D01*
X126528646Y-81317794D01*
X126528646Y-80550554D01*
X126761348Y-80550554D01*
X126761348Y-82235500D01*
X126528646Y-82235500D01*
X126528646Y-81427141D01*
X125631273Y-81427141D01*
X125631273Y-82235500D01*
G37*
G36*
X127260642Y-80550554D02*
G01*
X127492892Y-80550554D01*
X127492892Y-82235500D01*
X127260642Y-82235500D01*
X127260642Y-80550554D01*
G37*
G36*
X127972304Y-80550554D02*
G01*
X128112378Y-80550554D01*
X129248327Y-81816183D01*
X129248327Y-80550554D01*
X129373037Y-80550554D01*
X129373037Y-82269840D01*
X129309326Y-82269840D01*
X128100630Y-80883115D01*
X128100630Y-82235500D01*
X127972304Y-82235500D01*
X127972304Y-80550554D01*
G37*
G36*
X130967613Y-80550554D02*
G01*
X130967613Y-80659449D01*
X130079278Y-80659449D01*
X130079278Y-81262216D01*
X130673911Y-81262216D01*
X130673911Y-81371112D01*
X130079278Y-81371112D01*
X130079278Y-82126152D01*
X130967613Y-82126152D01*
X130967613Y-82235500D01*
X129847027Y-82235500D01*
X129847027Y-80550554D01*
X130967613Y-80550554D01*
G37*
G36*
X131869504Y-82168174D02*
G01*
X131961223Y-82160058D01*
X132002348Y-82151004D01*
X132089061Y-82117918D01*
X132118925Y-82100397D01*
X132187276Y-82038345D01*
X132202065Y-82017708D01*
X132232612Y-81931376D01*
X132234147Y-81903842D01*
X132216634Y-81813735D01*
X132197095Y-81776872D01*
X132138550Y-81705252D01*
X132099496Y-81670688D01*
X132025009Y-81617361D01*
X131958971Y-81578059D01*
X131878428Y-81534116D01*
X131795853Y-81490852D01*
X131712799Y-81447372D01*
X131630540Y-81402503D01*
X131619632Y-81396415D01*
X131542072Y-81347561D01*
X131467658Y-81289541D01*
X131463292Y-81285712D01*
X131400824Y-81219742D01*
X131351685Y-81145639D01*
X131319830Y-81061030D01*
X131309253Y-80970014D01*
X131309211Y-80963544D01*
X131317683Y-80870350D01*
X131343100Y-80784160D01*
X131388769Y-80702679D01*
X131444314Y-80641375D01*
X131518869Y-80587379D01*
X131602717Y-80548659D01*
X131608787Y-80546487D01*
X131699858Y-80523012D01*
X131793871Y-80512985D01*
X131832453Y-80512146D01*
X131927106Y-80517076D01*
X132018348Y-80533299D01*
X132035333Y-80537902D01*
X132124270Y-80571801D01*
X132192577Y-80613361D01*
X132263044Y-80677220D01*
X132309154Y-80737167D01*
X132353322Y-80816580D01*
X132387138Y-80901494D01*
X132389131Y-80907515D01*
X132287465Y-80954507D01*
X132251176Y-80867208D01*
X132223302Y-80819404D01*
X132163525Y-80745940D01*
X132126155Y-80713671D01*
X132047011Y-80666651D01*
X131992407Y-80645894D01*
X131900431Y-80626164D01*
X131819801Y-80621494D01*
X131729429Y-80628642D01*
X131668431Y-80644086D01*
X131583964Y-80685176D01*
X131561343Y-80702375D01*
X131502928Y-80772553D01*
X131497181Y-80783708D01*
X131475513Y-80872950D01*
X131475492Y-80875885D01*
X131500250Y-80964822D01*
X131512995Y-80984329D01*
X131575882Y-81053021D01*
X131611950Y-81082832D01*
X131686881Y-81134698D01*
X131752475Y-81173654D01*
X131832340Y-81217370D01*
X131913786Y-81260861D01*
X131993959Y-81303103D01*
X132073959Y-81347595D01*
X132096785Y-81360719D01*
X132173585Y-81408831D01*
X132248193Y-81465369D01*
X132262161Y-81477296D01*
X132328922Y-81544735D01*
X132381901Y-81618725D01*
X132418216Y-81705569D01*
X132428442Y-81790880D01*
X132420301Y-81882340D01*
X132393670Y-81974206D01*
X132391390Y-81979753D01*
X132345866Y-82062215D01*
X132282495Y-82133382D01*
X132206675Y-82188424D01*
X132121399Y-82229048D01*
X132101303Y-82236403D01*
X132007376Y-82261270D01*
X131910348Y-82272973D01*
X131849171Y-82274810D01*
X131753467Y-82269708D01*
X131660525Y-82252916D01*
X131643128Y-82248151D01*
X131557051Y-82215279D01*
X131481366Y-82169981D01*
X131412083Y-82108875D01*
X131360270Y-82044367D01*
X131314069Y-81964616D01*
X131277936Y-81880410D01*
X131275774Y-81874472D01*
X131384218Y-81830191D01*
X131419261Y-81914589D01*
X131455610Y-81972523D01*
X131516453Y-82040039D01*
X131564506Y-82078708D01*
X131643810Y-82123428D01*
X131704128Y-82145581D01*
X131794706Y-82163850D01*
X131869504Y-82168174D01*
G37*
G36*
X120031970Y-79696421D02*
G01*
X120168308Y-79684357D01*
X120229440Y-79670898D01*
X120358337Y-79621716D01*
X120402730Y-79595671D01*
X120504333Y-79503431D01*
X120526317Y-79472756D01*
X120571724Y-79344424D01*
X120574006Y-79303495D01*
X120547973Y-79169553D01*
X120518929Y-79114757D01*
X120431902Y-79008294D01*
X120373849Y-78956915D01*
X120263126Y-78877645D01*
X120164960Y-78819223D01*
X120045235Y-78753903D01*
X119922488Y-78689591D01*
X119799030Y-78624959D01*
X119676752Y-78558261D01*
X119660538Y-78549212D01*
X119545245Y-78476592D01*
X119434630Y-78390345D01*
X119428140Y-78384654D01*
X119335282Y-78286590D01*
X119262239Y-78176437D01*
X119214886Y-78050667D01*
X119199163Y-77915372D01*
X119199102Y-77905755D01*
X119211696Y-77767223D01*
X119249477Y-77639102D01*
X119317362Y-77517983D01*
X119399930Y-77426855D01*
X119510756Y-77346591D01*
X119635395Y-77289034D01*
X119644418Y-77285805D01*
X119779793Y-77250910D01*
X119919542Y-77236005D01*
X119976893Y-77234758D01*
X120117594Y-77242086D01*
X120253223Y-77266202D01*
X120278472Y-77273043D01*
X120410675Y-77323434D01*
X120512212Y-77385212D01*
X120616961Y-77480138D01*
X120685503Y-77569249D01*
X120751158Y-77687295D01*
X120801425Y-77813518D01*
X120804388Y-77822468D01*
X120653263Y-77892321D01*
X120599319Y-77762553D01*
X120557886Y-77691493D01*
X120469027Y-77582289D01*
X120413477Y-77534322D01*
X120295830Y-77464427D01*
X120214663Y-77433572D01*
X120077942Y-77404244D01*
X119958086Y-77397302D01*
X119823750Y-77407928D01*
X119733078Y-77430885D01*
X119607518Y-77491965D01*
X119573892Y-77517531D01*
X119487058Y-77621849D01*
X119478516Y-77638431D01*
X119446307Y-77771088D01*
X119446275Y-77775451D01*
X119483078Y-77907654D01*
X119502024Y-77936651D01*
X119595504Y-78038761D01*
X119649119Y-78083075D01*
X119760503Y-78160172D01*
X119858008Y-78218080D01*
X119976725Y-78283064D01*
X120097793Y-78347712D01*
X120216970Y-78410505D01*
X120335889Y-78476641D01*
X120369819Y-78496151D01*
X120483981Y-78567667D01*
X120594885Y-78651711D01*
X120615649Y-78669441D01*
X120714888Y-78769687D01*
X120793641Y-78879673D01*
X120847622Y-79008765D01*
X120862823Y-79135578D01*
X120850721Y-79271532D01*
X120811135Y-79408091D01*
X120807746Y-79416336D01*
X120740076Y-79538915D01*
X120645874Y-79644703D01*
X120533170Y-79726523D01*
X120406408Y-79786910D01*
X120376535Y-79797843D01*
X120236914Y-79834808D01*
X120092684Y-79852203D01*
X120001745Y-79854935D01*
X119859482Y-79847349D01*
X119721325Y-79822388D01*
X119695464Y-79815306D01*
X119567512Y-79766442D01*
X119455007Y-79699108D01*
X119352019Y-79608274D01*
X119275000Y-79512384D01*
X119206322Y-79393835D01*
X119152612Y-79268664D01*
X119149398Y-79259837D01*
X119310599Y-79194013D01*
X119362690Y-79319471D01*
X119416722Y-79405589D01*
X119507163Y-79505950D01*
X119578594Y-79563431D01*
X119696478Y-79629906D01*
X119786139Y-79662838D01*
X119920783Y-79689993D01*
X120031970Y-79696421D01*
G37*
G36*
X122882822Y-77241097D02*
G01*
X123017365Y-77260114D01*
X123163006Y-77296661D01*
X123272095Y-77336180D01*
X123405275Y-77398803D01*
X123528253Y-77473326D01*
X123641030Y-77559751D01*
X123699276Y-77612907D01*
X123795176Y-77716351D01*
X123878856Y-77829465D01*
X123950315Y-77952249D01*
X123984735Y-78024640D01*
X124035061Y-78160015D01*
X124068917Y-78300916D01*
X124086302Y-78447342D01*
X124088844Y-78531077D01*
X124082337Y-78665747D01*
X124059461Y-78812433D01*
X124020116Y-78954018D01*
X123984735Y-79045575D01*
X123920064Y-79176428D01*
X123843173Y-79297718D01*
X123754062Y-79409444D01*
X123699276Y-79467382D01*
X123592166Y-79562633D01*
X123474855Y-79645875D01*
X123347343Y-79717111D01*
X123272095Y-79751498D01*
X123131165Y-79801499D01*
X122984178Y-79835136D01*
X122848438Y-79851298D01*
X122743493Y-79854935D01*
X122604206Y-79848470D01*
X122469788Y-79829075D01*
X122324389Y-79791802D01*
X122215562Y-79751498D01*
X122083032Y-79686933D01*
X121960491Y-79610361D01*
X121847938Y-79521781D01*
X121789725Y-79467382D01*
X121693825Y-79360969D01*
X121610145Y-79244992D01*
X121538685Y-79119452D01*
X121504266Y-79045575D01*
X121454265Y-78907390D01*
X121420627Y-78764104D01*
X121403354Y-78615718D01*
X121400829Y-78531077D01*
X121817935Y-78531077D01*
X121822610Y-78674375D01*
X121836636Y-78811084D01*
X121863188Y-78955257D01*
X121877041Y-79010648D01*
X121919913Y-79141794D01*
X121979799Y-79272872D01*
X122053018Y-79390140D01*
X122148290Y-79500619D01*
X122259808Y-79591263D01*
X122343179Y-79640673D01*
X122468968Y-79691915D01*
X122607139Y-79721887D01*
X122743493Y-79730676D01*
X122879007Y-79721887D01*
X123016254Y-79691915D01*
X123141120Y-79640673D01*
X123263154Y-79563252D01*
X123369319Y-79465997D01*
X123431281Y-79390140D01*
X123504962Y-79272872D01*
X123565310Y-79141794D01*
X123608601Y-79010648D01*
X123640479Y-78869729D01*
X123659075Y-78735948D01*
X123668107Y-78595578D01*
X123669051Y-78531077D01*
X123664269Y-78388748D01*
X123649924Y-78253432D01*
X123622769Y-78111306D01*
X123608601Y-78056880D01*
X123565310Y-77927964D01*
X123504962Y-77799642D01*
X123431281Y-77685448D01*
X123335694Y-77578400D01*
X123224239Y-77491000D01*
X123141120Y-77443647D01*
X123004289Y-77391257D01*
X122865916Y-77364474D01*
X122743493Y-77357674D01*
X122607139Y-77366069D01*
X122468968Y-77394699D01*
X122343179Y-77443647D01*
X122220830Y-77517950D01*
X122114728Y-77611900D01*
X122053018Y-77685448D01*
X121979799Y-77799642D01*
X121919913Y-77927964D01*
X121877041Y-78056880D01*
X121845872Y-78195542D01*
X121826246Y-78342863D01*
X121818454Y-78482855D01*
X121817935Y-78531077D01*
X121400829Y-78531077D01*
X121409011Y-78381581D01*
X121433557Y-78237611D01*
X121474467Y-78099166D01*
X121504266Y-78024640D01*
X121568937Y-77896484D01*
X121645828Y-77777999D01*
X121734938Y-77669183D01*
X121789725Y-77612907D01*
X121896728Y-77519871D01*
X122013721Y-77438736D01*
X122140701Y-77369501D01*
X122215562Y-77336180D01*
X122356167Y-77287153D01*
X122502936Y-77254171D01*
X122638571Y-77238324D01*
X122743493Y-77234758D01*
X122882822Y-77241097D01*
G37*
G36*
X124676553Y-77291850D02*
G01*
X125022462Y-77291850D01*
X125022462Y-78917958D01*
X125033518Y-79054692D01*
X125069902Y-79192919D01*
X125080225Y-79219537D01*
X125145004Y-79343615D01*
X125231036Y-79452640D01*
X125244112Y-79466039D01*
X125353973Y-79555307D01*
X125474086Y-79621314D01*
X125502033Y-79633284D01*
X125630808Y-79672858D01*
X125771555Y-79692257D01*
X125840553Y-79694406D01*
X125980198Y-79680232D01*
X126050114Y-79661494D01*
X126175392Y-79608173D01*
X126236166Y-79572162D01*
X126342063Y-79489419D01*
X126391993Y-79439844D01*
X126478517Y-79330404D01*
X126511549Y-79277300D01*
X126570021Y-79155017D01*
X126589463Y-79097965D01*
X126615280Y-78960819D01*
X126617001Y-78915943D01*
X126617001Y-77291850D01*
X126801710Y-77291850D01*
X126801710Y-78889748D01*
X126792548Y-79027996D01*
X126765062Y-79162655D01*
X126736558Y-79250434D01*
X126677966Y-79375332D01*
X126599916Y-79489086D01*
X126537073Y-79558729D01*
X126426342Y-79651608D01*
X126306418Y-79723803D01*
X126195194Y-79773663D01*
X126058066Y-79816521D01*
X125921977Y-79841522D01*
X125773880Y-79853665D01*
X125704205Y-79854935D01*
X125568552Y-79849037D01*
X125428420Y-79828651D01*
X125287154Y-79789408D01*
X125262919Y-79780379D01*
X125138536Y-79722773D01*
X125019321Y-79645448D01*
X124941190Y-79577536D01*
X124852341Y-79474676D01*
X124781249Y-79359538D01*
X124743720Y-79275957D01*
X124702790Y-79143093D01*
X124680751Y-79003428D01*
X124676553Y-78906540D01*
X124676553Y-77291850D01*
G37*
G36*
X127427704Y-77291850D02*
G01*
X127635921Y-77291850D01*
X129324494Y-79173192D01*
X129324494Y-77291850D01*
X129509875Y-77291850D01*
X129509875Y-79847546D01*
X129415169Y-79847546D01*
X127618458Y-77786198D01*
X127618458Y-79796500D01*
X127427704Y-79796500D01*
X127427704Y-77291850D01*
G37*
G36*
X131150996Y-77295321D02*
G01*
X131286376Y-77305735D01*
X131435507Y-77326137D01*
X131578677Y-77355606D01*
X131613538Y-77364390D01*
X131747830Y-77405656D01*
X131872634Y-77456913D01*
X132001699Y-77526519D01*
X132093781Y-77589399D01*
X132200542Y-77681107D01*
X132293384Y-77785460D01*
X132372306Y-77902459D01*
X132410136Y-77972921D01*
X132465332Y-78109743D01*
X132499231Y-78242869D01*
X132518856Y-78386827D01*
X132524320Y-78521674D01*
X132516988Y-78667657D01*
X132494992Y-78808647D01*
X132458332Y-78944642D01*
X132431630Y-79018036D01*
X132372856Y-79144084D01*
X132300056Y-79260781D01*
X132213230Y-79368128D01*
X132158933Y-79423724D01*
X132050766Y-79515084D01*
X131929529Y-79594968D01*
X131795222Y-79663375D01*
X131714960Y-79696421D01*
X131578486Y-79740205D01*
X131432356Y-79771480D01*
X131296572Y-79788583D01*
X131153396Y-79796109D01*
X131111131Y-79796500D01*
X130214454Y-79796500D01*
X130214454Y-79613134D01*
X130559691Y-79613134D01*
X131045307Y-79613134D01*
X131180664Y-79606313D01*
X131323193Y-79583051D01*
X131459055Y-79543281D01*
X131585869Y-79487240D01*
X131701254Y-79415168D01*
X131796232Y-79335735D01*
X131888290Y-79233229D01*
X131965904Y-79115961D01*
X132023927Y-78996543D01*
X132067848Y-78864505D01*
X132095502Y-78720267D01*
X132106482Y-78580022D01*
X132107214Y-78531077D01*
X132099540Y-78389634D01*
X132076517Y-78255798D01*
X132033464Y-78117368D01*
X132028629Y-78105240D01*
X131967221Y-77978217D01*
X131891050Y-77864051D01*
X131808994Y-77771421D01*
X131706055Y-77682754D01*
X131590258Y-77608849D01*
X131473831Y-77554472D01*
X131335855Y-77510113D01*
X131202571Y-77485765D01*
X131061810Y-77476635D01*
X131047322Y-77476559D01*
X130559691Y-77476559D01*
X130559691Y-79613134D01*
X130214454Y-79613134D01*
X130214454Y-77291850D01*
X131011052Y-77291850D01*
X131150996Y-77295321D01*
G37*
D11*
X141424819Y-54951285D02*
X141424819Y-55522713D01*
X141424819Y-55236999D02*
X140424819Y-55236999D01*
X140424819Y-55236999D02*
X140567676Y-55332237D01*
X140567676Y-55332237D02*
X140662914Y-55427475D01*
X140662914Y-55427475D02*
X140710533Y-55522713D01*
X141424819Y-54522713D02*
X140424819Y-54522713D01*
X141424819Y-53951285D02*
X140853390Y-54379856D01*
X140424819Y-53951285D02*
X140996247Y-54522713D01*
X152455714Y-63050057D02*
X152503333Y-63002438D01*
X152503333Y-63002438D02*
X152598571Y-62954819D01*
X152598571Y-62954819D02*
X152836666Y-62954819D01*
X152836666Y-62954819D02*
X152931904Y-63002438D01*
X152931904Y-63002438D02*
X152979523Y-63050057D01*
X152979523Y-63050057D02*
X153027142Y-63145295D01*
X153027142Y-63145295D02*
X153027142Y-63240533D01*
X153027142Y-63240533D02*
X152979523Y-63383390D01*
X152979523Y-63383390D02*
X152408095Y-63954819D01*
X152408095Y-63954819D02*
X153027142Y-63954819D01*
X153408095Y-63050057D02*
X153455714Y-63002438D01*
X153455714Y-63002438D02*
X153550952Y-62954819D01*
X153550952Y-62954819D02*
X153789047Y-62954819D01*
X153789047Y-62954819D02*
X153884285Y-63002438D01*
X153884285Y-63002438D02*
X153931904Y-63050057D01*
X153931904Y-63050057D02*
X153979523Y-63145295D01*
X153979523Y-63145295D02*
X153979523Y-63240533D01*
X153979523Y-63240533D02*
X153931904Y-63383390D01*
X153931904Y-63383390D02*
X153360476Y-63954819D01*
X153360476Y-63954819D02*
X153979523Y-63954819D01*
X154408095Y-63288152D02*
X154408095Y-63954819D01*
X154408095Y-63383390D02*
X154455714Y-63335771D01*
X154455714Y-63335771D02*
X154550952Y-63288152D01*
X154550952Y-63288152D02*
X154693809Y-63288152D01*
X154693809Y-63288152D02*
X154789047Y-63335771D01*
X154789047Y-63335771D02*
X154836666Y-63431009D01*
X154836666Y-63431009D02*
X154836666Y-63954819D01*
X152170000Y-66891819D02*
X152789047Y-66891819D01*
X152789047Y-66891819D02*
X152455714Y-67272771D01*
X152455714Y-67272771D02*
X152598571Y-67272771D01*
X152598571Y-67272771D02*
X152693809Y-67320390D01*
X152693809Y-67320390D02*
X152741428Y-67368009D01*
X152741428Y-67368009D02*
X152789047Y-67463247D01*
X152789047Y-67463247D02*
X152789047Y-67701342D01*
X152789047Y-67701342D02*
X152741428Y-67796580D01*
X152741428Y-67796580D02*
X152693809Y-67844200D01*
X152693809Y-67844200D02*
X152598571Y-67891819D01*
X152598571Y-67891819D02*
X152312857Y-67891819D01*
X152312857Y-67891819D02*
X152217619Y-67844200D01*
X152217619Y-67844200D02*
X152170000Y-67796580D01*
X153217619Y-67796580D02*
X153265238Y-67844200D01*
X153265238Y-67844200D02*
X153217619Y-67891819D01*
X153217619Y-67891819D02*
X153170000Y-67844200D01*
X153170000Y-67844200D02*
X153217619Y-67796580D01*
X153217619Y-67796580D02*
X153217619Y-67891819D01*
X153598571Y-66891819D02*
X154217618Y-66891819D01*
X154217618Y-66891819D02*
X153884285Y-67272771D01*
X153884285Y-67272771D02*
X154027142Y-67272771D01*
X154027142Y-67272771D02*
X154122380Y-67320390D01*
X154122380Y-67320390D02*
X154169999Y-67368009D01*
X154169999Y-67368009D02*
X154217618Y-67463247D01*
X154217618Y-67463247D02*
X154217618Y-67701342D01*
X154217618Y-67701342D02*
X154169999Y-67796580D01*
X154169999Y-67796580D02*
X154122380Y-67844200D01*
X154122380Y-67844200D02*
X154027142Y-67891819D01*
X154027142Y-67891819D02*
X153741428Y-67891819D01*
X153741428Y-67891819D02*
X153646190Y-67844200D01*
X153646190Y-67844200D02*
X153598571Y-67796580D01*
X154646190Y-67225152D02*
X154646190Y-67891819D01*
X154646190Y-67320390D02*
X154693809Y-67272771D01*
X154693809Y-67272771D02*
X154789047Y-67225152D01*
X154789047Y-67225152D02*
X154931904Y-67225152D01*
X154931904Y-67225152D02*
X155027142Y-67272771D01*
X155027142Y-67272771D02*
X155074761Y-67368009D01*
X155074761Y-67368009D02*
X155074761Y-67891819D01*
X138766666Y-86087295D02*
X138309523Y-86087295D01*
X138538095Y-86087295D02*
X138538095Y-85287295D01*
X138538095Y-85287295D02*
X138461904Y-85401580D01*
X138461904Y-85401580D02*
X138385714Y-85477771D01*
X138385714Y-85477771D02*
X138309523Y-85515866D01*
X139261905Y-85287295D02*
X139338095Y-85287295D01*
X139338095Y-85287295D02*
X139414286Y-85325390D01*
X139414286Y-85325390D02*
X139452381Y-85363485D01*
X139452381Y-85363485D02*
X139490476Y-85439676D01*
X139490476Y-85439676D02*
X139528571Y-85592057D01*
X139528571Y-85592057D02*
X139528571Y-85782533D01*
X139528571Y-85782533D02*
X139490476Y-85934914D01*
X139490476Y-85934914D02*
X139452381Y-86011104D01*
X139452381Y-86011104D02*
X139414286Y-86049200D01*
X139414286Y-86049200D02*
X139338095Y-86087295D01*
X139338095Y-86087295D02*
X139261905Y-86087295D01*
X139261905Y-86087295D02*
X139185714Y-86049200D01*
X139185714Y-86049200D02*
X139147619Y-86011104D01*
X139147619Y-86011104D02*
X139109524Y-85934914D01*
X139109524Y-85934914D02*
X139071428Y-85782533D01*
X139071428Y-85782533D02*
X139071428Y-85592057D01*
X139071428Y-85592057D02*
X139109524Y-85439676D01*
X139109524Y-85439676D02*
X139147619Y-85363485D01*
X139147619Y-85363485D02*
X139185714Y-85325390D01*
X139185714Y-85325390D02*
X139261905Y-85287295D01*
X140023810Y-85287295D02*
X140100000Y-85287295D01*
X140100000Y-85287295D02*
X140176191Y-85325390D01*
X140176191Y-85325390D02*
X140214286Y-85363485D01*
X140214286Y-85363485D02*
X140252381Y-85439676D01*
X140252381Y-85439676D02*
X140290476Y-85592057D01*
X140290476Y-85592057D02*
X140290476Y-85782533D01*
X140290476Y-85782533D02*
X140252381Y-85934914D01*
X140252381Y-85934914D02*
X140214286Y-86011104D01*
X140214286Y-86011104D02*
X140176191Y-86049200D01*
X140176191Y-86049200D02*
X140100000Y-86087295D01*
X140100000Y-86087295D02*
X140023810Y-86087295D01*
X140023810Y-86087295D02*
X139947619Y-86049200D01*
X139947619Y-86049200D02*
X139909524Y-86011104D01*
X139909524Y-86011104D02*
X139871429Y-85934914D01*
X139871429Y-85934914D02*
X139833333Y-85782533D01*
X139833333Y-85782533D02*
X139833333Y-85592057D01*
X139833333Y-85592057D02*
X139871429Y-85439676D01*
X139871429Y-85439676D02*
X139909524Y-85363485D01*
X139909524Y-85363485D02*
X139947619Y-85325390D01*
X139947619Y-85325390D02*
X140023810Y-85287295D01*
X140633334Y-86087295D02*
X140633334Y-85287295D01*
X141090477Y-86087295D02*
X140747619Y-85630152D01*
X141090477Y-85287295D02*
X140633334Y-85744438D01*
X130118295Y-67176524D02*
X130118295Y-66681286D01*
X130118295Y-66681286D02*
X130423057Y-66947952D01*
X130423057Y-66947952D02*
X130423057Y-66833667D01*
X130423057Y-66833667D02*
X130461152Y-66757476D01*
X130461152Y-66757476D02*
X130499247Y-66719381D01*
X130499247Y-66719381D02*
X130575438Y-66681286D01*
X130575438Y-66681286D02*
X130765914Y-66681286D01*
X130765914Y-66681286D02*
X130842104Y-66719381D01*
X130842104Y-66719381D02*
X130880200Y-66757476D01*
X130880200Y-66757476D02*
X130918295Y-66833667D01*
X130918295Y-66833667D02*
X130918295Y-67062238D01*
X130918295Y-67062238D02*
X130880200Y-67138429D01*
X130880200Y-67138429D02*
X130842104Y-67176524D01*
X130118295Y-66414619D02*
X130118295Y-65919381D01*
X130118295Y-65919381D02*
X130423057Y-66186047D01*
X130423057Y-66186047D02*
X130423057Y-66071762D01*
X130423057Y-66071762D02*
X130461152Y-65995571D01*
X130461152Y-65995571D02*
X130499247Y-65957476D01*
X130499247Y-65957476D02*
X130575438Y-65919381D01*
X130575438Y-65919381D02*
X130765914Y-65919381D01*
X130765914Y-65919381D02*
X130842104Y-65957476D01*
X130842104Y-65957476D02*
X130880200Y-65995571D01*
X130880200Y-65995571D02*
X130918295Y-66071762D01*
X130918295Y-66071762D02*
X130918295Y-66300333D01*
X130918295Y-66300333D02*
X130880200Y-66376524D01*
X130880200Y-66376524D02*
X130842104Y-66414619D01*
X130384961Y-65576523D02*
X131184961Y-65576523D01*
X130423057Y-65576523D02*
X130384961Y-65500333D01*
X130384961Y-65500333D02*
X130384961Y-65347952D01*
X130384961Y-65347952D02*
X130423057Y-65271761D01*
X130423057Y-65271761D02*
X130461152Y-65233666D01*
X130461152Y-65233666D02*
X130537342Y-65195571D01*
X130537342Y-65195571D02*
X130765914Y-65195571D01*
X130765914Y-65195571D02*
X130842104Y-65233666D01*
X130842104Y-65233666D02*
X130880200Y-65271761D01*
X130880200Y-65271761D02*
X130918295Y-65347952D01*
X130918295Y-65347952D02*
X130918295Y-65500333D01*
X130918295Y-65500333D02*
X130880200Y-65576523D01*
X151574618Y-87192295D02*
X151193666Y-87192295D01*
X151193666Y-87192295D02*
X151155570Y-87573247D01*
X151155570Y-87573247D02*
X151193666Y-87535152D01*
X151193666Y-87535152D02*
X151269856Y-87497057D01*
X151269856Y-87497057D02*
X151460332Y-87497057D01*
X151460332Y-87497057D02*
X151536523Y-87535152D01*
X151536523Y-87535152D02*
X151574618Y-87573247D01*
X151574618Y-87573247D02*
X151612713Y-87649438D01*
X151612713Y-87649438D02*
X151612713Y-87839914D01*
X151612713Y-87839914D02*
X151574618Y-87916104D01*
X151574618Y-87916104D02*
X151536523Y-87954200D01*
X151536523Y-87954200D02*
X151460332Y-87992295D01*
X151460332Y-87992295D02*
X151269856Y-87992295D01*
X151269856Y-87992295D02*
X151193666Y-87954200D01*
X151193666Y-87954200D02*
X151155570Y-87916104D01*
X152069856Y-87535152D02*
X151993666Y-87497057D01*
X151993666Y-87497057D02*
X151955571Y-87458961D01*
X151955571Y-87458961D02*
X151917475Y-87382771D01*
X151917475Y-87382771D02*
X151917475Y-87344676D01*
X151917475Y-87344676D02*
X151955571Y-87268485D01*
X151955571Y-87268485D02*
X151993666Y-87230390D01*
X151993666Y-87230390D02*
X152069856Y-87192295D01*
X152069856Y-87192295D02*
X152222237Y-87192295D01*
X152222237Y-87192295D02*
X152298428Y-87230390D01*
X152298428Y-87230390D02*
X152336523Y-87268485D01*
X152336523Y-87268485D02*
X152374618Y-87344676D01*
X152374618Y-87344676D02*
X152374618Y-87382771D01*
X152374618Y-87382771D02*
X152336523Y-87458961D01*
X152336523Y-87458961D02*
X152298428Y-87497057D01*
X152298428Y-87497057D02*
X152222237Y-87535152D01*
X152222237Y-87535152D02*
X152069856Y-87535152D01*
X152069856Y-87535152D02*
X151993666Y-87573247D01*
X151993666Y-87573247D02*
X151955571Y-87611342D01*
X151955571Y-87611342D02*
X151917475Y-87687533D01*
X151917475Y-87687533D02*
X151917475Y-87839914D01*
X151917475Y-87839914D02*
X151955571Y-87916104D01*
X151955571Y-87916104D02*
X151993666Y-87954200D01*
X151993666Y-87954200D02*
X152069856Y-87992295D01*
X152069856Y-87992295D02*
X152222237Y-87992295D01*
X152222237Y-87992295D02*
X152298428Y-87954200D01*
X152298428Y-87954200D02*
X152336523Y-87916104D01*
X152336523Y-87916104D02*
X152374618Y-87839914D01*
X152374618Y-87839914D02*
X152374618Y-87687533D01*
X152374618Y-87687533D02*
X152336523Y-87611342D01*
X152336523Y-87611342D02*
X152298428Y-87573247D01*
X152298428Y-87573247D02*
X152222237Y-87535152D01*
X153136523Y-87992295D02*
X152679380Y-87992295D01*
X152907952Y-87992295D02*
X152907952Y-87192295D01*
X152907952Y-87192295D02*
X152831761Y-87306580D01*
X152831761Y-87306580D02*
X152755571Y-87382771D01*
X152755571Y-87382771D02*
X152679380Y-87420866D01*
X153403190Y-87192295D02*
X153936524Y-87192295D01*
X153936524Y-87192295D02*
X153593666Y-87992295D01*
X139414285Y-81226819D02*
X138842857Y-81226819D01*
X139128571Y-81226819D02*
X139128571Y-80226819D01*
X139128571Y-80226819D02*
X139033333Y-80369676D01*
X139033333Y-80369676D02*
X138938095Y-80464914D01*
X138938095Y-80464914D02*
X138842857Y-80512533D01*
X139842857Y-81226819D02*
X139842857Y-80226819D01*
X139842857Y-80226819D02*
X140176190Y-80941104D01*
X140176190Y-80941104D02*
X140509523Y-80226819D01*
X140509523Y-80226819D02*
X140509523Y-81226819D01*
G36*
X137462241Y-43073522D02*
G01*
X137726756Y-43777674D01*
X137982967Y-43073522D01*
X137863288Y-43073522D01*
X137863288Y-42944318D01*
X138258473Y-42944318D01*
X138258473Y-43073522D01*
X138134886Y-43073522D01*
X137792702Y-43991631D01*
X137649087Y-43991631D01*
X137301529Y-43073522D01*
X137173790Y-43073522D01*
X137173790Y-42944318D01*
X137581676Y-42944318D01*
X137581676Y-43073522D01*
X137462241Y-43073522D01*
G37*
G36*
X138628470Y-43244507D02*
G01*
X138677960Y-43254079D01*
X138724946Y-43270031D01*
X138769429Y-43292364D01*
X138810446Y-43320070D01*
X138851008Y-43356458D01*
X138885657Y-43398372D01*
X138905472Y-43429384D01*
X138927164Y-43473226D01*
X138944159Y-43524883D01*
X138953310Y-43579013D01*
X138955053Y-43616474D01*
X138951909Y-43667048D01*
X138942475Y-43715453D01*
X138924344Y-43767319D01*
X138904739Y-43805762D01*
X138877430Y-43846398D01*
X138841269Y-43886786D01*
X138799351Y-43921531D01*
X138768208Y-43941561D01*
X138723801Y-43963467D01*
X138677044Y-43979114D01*
X138627936Y-43988502D01*
X138576477Y-43991631D01*
X138523583Y-43988502D01*
X138473345Y-43979114D01*
X138425764Y-43963467D01*
X138380838Y-43941561D01*
X138339653Y-43914298D01*
X138299085Y-43878298D01*
X138264623Y-43836657D01*
X138245039Y-43805762D01*
X138223882Y-43761692D01*
X138207305Y-43709521D01*
X138198993Y-43660844D01*
X138196679Y-43616474D01*
X138345912Y-43616474D01*
X138350870Y-43666343D01*
X138365744Y-43713552D01*
X138375954Y-43734443D01*
X138404391Y-43775345D01*
X138440486Y-43808749D01*
X138459729Y-43821638D01*
X138504959Y-43842354D01*
X138553334Y-43852509D01*
X138576721Y-43853634D01*
X138626228Y-43848353D01*
X138675756Y-43830856D01*
X138692492Y-43821638D01*
X138731686Y-43791815D01*
X138765239Y-43751584D01*
X138775046Y-43735176D01*
X138794181Y-43689428D01*
X138803561Y-43640293D01*
X138804600Y-43616474D01*
X138799722Y-43566884D01*
X138785090Y-43520115D01*
X138775046Y-43499482D01*
X138747165Y-43458775D01*
X138711543Y-43425163D01*
X138692492Y-43412043D01*
X138647693Y-43390536D01*
X138599024Y-43379994D01*
X138575256Y-43378826D01*
X138525551Y-43384187D01*
X138479232Y-43400270D01*
X138458996Y-43411310D01*
X138419840Y-43441412D01*
X138388101Y-43478931D01*
X138375954Y-43498749D01*
X138356503Y-43544690D01*
X138346968Y-43593210D01*
X138345912Y-43616474D01*
X138196679Y-43616474D01*
X138199702Y-43563824D01*
X138208769Y-43514075D01*
X138223882Y-43467226D01*
X138245039Y-43423278D01*
X138275374Y-43378247D01*
X138311698Y-43339051D01*
X138354011Y-43305690D01*
X138380106Y-43289677D01*
X138424802Y-43268520D01*
X138472430Y-43253407D01*
X138522988Y-43244340D01*
X138576477Y-43241317D01*
X138628470Y-43244507D01*
G37*
G36*
X139410566Y-43849482D02*
G01*
X139410566Y-43976000D01*
X139030769Y-43976000D01*
X139030769Y-43849482D01*
X139158508Y-43849482D01*
X139158508Y-43069370D01*
X139030769Y-43069370D01*
X139030769Y-42944318D01*
X139300657Y-42944318D01*
X139300657Y-43849482D01*
X139410566Y-43849482D01*
G37*
G36*
X139829443Y-43868044D02*
G01*
X139878185Y-43862243D01*
X139928911Y-43844841D01*
X139974924Y-43820097D01*
X140015573Y-43791818D01*
X140036317Y-43775232D01*
X140036317Y-43383955D01*
X139908578Y-43383955D01*
X139908578Y-43256949D01*
X140178466Y-43256949D01*
X140178466Y-43849482D01*
X140302053Y-43849482D01*
X140302053Y-43976000D01*
X140036317Y-43976000D01*
X140036317Y-43896132D01*
X139989860Y-43928587D01*
X139944279Y-43954327D01*
X139892208Y-43975870D01*
X139841330Y-43988274D01*
X139798668Y-43991631D01*
X139745708Y-43986859D01*
X139696697Y-43970363D01*
X139654741Y-43938608D01*
X139648459Y-43931303D01*
X139622956Y-43885646D01*
X139609355Y-43837889D01*
X139602413Y-43787912D01*
X139600146Y-43738991D01*
X139600099Y-43730291D01*
X139600099Y-43383955D01*
X139498982Y-43383955D01*
X139498982Y-43256949D01*
X139742248Y-43256949D01*
X139742248Y-43760089D01*
X139747969Y-43810916D01*
X139762520Y-43841910D01*
X139805289Y-43865977D01*
X139829443Y-43868044D01*
G37*
G36*
X140490852Y-43849482D02*
G01*
X140490852Y-43383955D01*
X140369220Y-43383955D01*
X140369220Y-43256949D01*
X140632269Y-43256949D01*
X140632269Y-43342678D01*
X140671845Y-43313477D01*
X140719038Y-43284969D01*
X140765904Y-43263589D01*
X140820168Y-43247652D01*
X140873989Y-43241416D01*
X140881641Y-43241317D01*
X140932600Y-43246728D01*
X140981651Y-43266165D01*
X141020901Y-43299737D01*
X141050352Y-43347444D01*
X141053344Y-43354401D01*
X141096380Y-43323582D01*
X141138628Y-43297987D01*
X141188288Y-43274168D01*
X141236814Y-43257870D01*
X141291995Y-43248363D01*
X141315172Y-43247423D01*
X141366210Y-43252432D01*
X141414363Y-43269512D01*
X141454146Y-43298714D01*
X141483765Y-43340413D01*
X141500023Y-43389490D01*
X141505967Y-43442755D01*
X141506170Y-43455762D01*
X141506170Y-43849482D01*
X141632444Y-43849482D01*
X141632444Y-43976000D01*
X141365242Y-43976000D01*
X141365242Y-43516334D01*
X141363520Y-43466149D01*
X141360357Y-43439154D01*
X141340268Y-43393927D01*
X141335444Y-43388595D01*
X141289309Y-43368828D01*
X141271208Y-43367835D01*
X141220153Y-43376101D01*
X141179862Y-43391282D01*
X141136507Y-43414243D01*
X141094913Y-43442379D01*
X141069952Y-43461868D01*
X141069952Y-43849482D01*
X141192074Y-43849482D01*
X141192074Y-43976000D01*
X140927803Y-43976000D01*
X140927803Y-43498260D01*
X140924336Y-43448193D01*
X140908090Y-43400296D01*
X140906798Y-43398365D01*
X140865102Y-43370816D01*
X140837677Y-43367835D01*
X140784035Y-43377018D01*
X140734217Y-43397588D01*
X140685592Y-43425228D01*
X140640174Y-43456083D01*
X140632269Y-43461868D01*
X140632269Y-43849482D01*
X140759275Y-43849482D01*
X140759275Y-43976000D01*
X140360915Y-43976000D01*
X140360915Y-43849482D01*
X140490852Y-43849482D01*
G37*
G36*
X142132409Y-43244462D02*
G01*
X142183944Y-43253896D01*
X142231815Y-43269619D01*
X142276023Y-43291631D01*
X142316247Y-43319368D01*
X142356061Y-43357031D01*
X142386618Y-43396251D01*
X142409624Y-43435002D01*
X142431255Y-43483774D01*
X142447299Y-43536790D01*
X142456754Y-43586660D01*
X142461931Y-43639779D01*
X142462625Y-43655553D01*
X141857391Y-43655553D01*
X141868981Y-43707910D01*
X141889188Y-43753698D01*
X141921745Y-43796870D01*
X141937747Y-43811868D01*
X141978042Y-43839614D01*
X142028389Y-43859793D01*
X142078717Y-43868369D01*
X142102611Y-43869265D01*
X142154806Y-43865316D01*
X142204048Y-43853466D01*
X142235235Y-43841177D01*
X142278248Y-43815853D01*
X142315698Y-43782010D01*
X142337573Y-43754715D01*
X142462625Y-43809670D01*
X142430767Y-43851970D01*
X142394298Y-43888744D01*
X142353219Y-43919992D01*
X142307531Y-43945713D01*
X142258606Y-43965802D01*
X142207574Y-43980152D01*
X142154436Y-43988761D01*
X142099192Y-43991631D01*
X142049353Y-43989340D01*
X141995429Y-43981112D01*
X141944741Y-43966900D01*
X141897289Y-43946705D01*
X141891585Y-43943759D01*
X141848782Y-43917351D01*
X141810985Y-43886240D01*
X141774449Y-43845621D01*
X141750413Y-43809914D01*
X141728400Y-43765584D01*
X141712677Y-43718568D01*
X141703243Y-43668864D01*
X141700099Y-43616474D01*
X141703213Y-43564420D01*
X141705192Y-43553948D01*
X141861543Y-43553948D01*
X142313637Y-43553948D01*
X142298855Y-43507350D01*
X142274183Y-43461965D01*
X142240828Y-43423306D01*
X142229129Y-43413020D01*
X142186873Y-43384813D01*
X142140705Y-43367052D01*
X142090626Y-43359739D01*
X142080141Y-43359531D01*
X142027095Y-43365851D01*
X141978782Y-43384813D01*
X141938968Y-43413020D01*
X141905485Y-43449661D01*
X141880445Y-43493028D01*
X141863849Y-43543122D01*
X141861543Y-43553948D01*
X141705192Y-43553948D01*
X141712555Y-43514991D01*
X141728126Y-43468188D01*
X141749924Y-43424011D01*
X141777127Y-43383375D01*
X141813204Y-43343279D01*
X141855077Y-43309134D01*
X141886212Y-43289677D01*
X141930664Y-43268520D01*
X141977314Y-43253407D01*
X142026163Y-43244340D01*
X142077210Y-43241317D01*
X142132409Y-43244462D01*
G37*
X156886382Y-75038295D02*
X156429239Y-75038295D01*
X156657811Y-75038295D02*
X156657811Y-74238295D01*
X156657811Y-74238295D02*
X156581620Y-74352580D01*
X156581620Y-74352580D02*
X156505430Y-74428771D01*
X156505430Y-74428771D02*
X156429239Y-74466866D01*
X157381621Y-74238295D02*
X157457811Y-74238295D01*
X157457811Y-74238295D02*
X157534002Y-74276390D01*
X157534002Y-74276390D02*
X157572097Y-74314485D01*
X157572097Y-74314485D02*
X157610192Y-74390676D01*
X157610192Y-74390676D02*
X157648287Y-74543057D01*
X157648287Y-74543057D02*
X157648287Y-74733533D01*
X157648287Y-74733533D02*
X157610192Y-74885914D01*
X157610192Y-74885914D02*
X157572097Y-74962104D01*
X157572097Y-74962104D02*
X157534002Y-75000200D01*
X157534002Y-75000200D02*
X157457811Y-75038295D01*
X157457811Y-75038295D02*
X157381621Y-75038295D01*
X157381621Y-75038295D02*
X157305430Y-75000200D01*
X157305430Y-75000200D02*
X157267335Y-74962104D01*
X157267335Y-74962104D02*
X157229240Y-74885914D01*
X157229240Y-74885914D02*
X157191144Y-74733533D01*
X157191144Y-74733533D02*
X157191144Y-74543057D01*
X157191144Y-74543057D02*
X157229240Y-74390676D01*
X157229240Y-74390676D02*
X157267335Y-74314485D01*
X157267335Y-74314485D02*
X157305430Y-74276390D01*
X157305430Y-74276390D02*
X157381621Y-74238295D01*
X158143526Y-74238295D02*
X158219716Y-74238295D01*
X158219716Y-74238295D02*
X158295907Y-74276390D01*
X158295907Y-74276390D02*
X158334002Y-74314485D01*
X158334002Y-74314485D02*
X158372097Y-74390676D01*
X158372097Y-74390676D02*
X158410192Y-74543057D01*
X158410192Y-74543057D02*
X158410192Y-74733533D01*
X158410192Y-74733533D02*
X158372097Y-74885914D01*
X158372097Y-74885914D02*
X158334002Y-74962104D01*
X158334002Y-74962104D02*
X158295907Y-75000200D01*
X158295907Y-75000200D02*
X158219716Y-75038295D01*
X158219716Y-75038295D02*
X158143526Y-75038295D01*
X158143526Y-75038295D02*
X158067335Y-75000200D01*
X158067335Y-75000200D02*
X158029240Y-74962104D01*
X158029240Y-74962104D02*
X157991145Y-74885914D01*
X157991145Y-74885914D02*
X157953049Y-74733533D01*
X157953049Y-74733533D02*
X157953049Y-74543057D01*
X157953049Y-74543057D02*
X157991145Y-74390676D01*
X157991145Y-74390676D02*
X158029240Y-74314485D01*
X158029240Y-74314485D02*
X158067335Y-74276390D01*
X158067335Y-74276390D02*
X158143526Y-74238295D01*
X159095907Y-74504961D02*
X159095907Y-75038295D01*
X158753050Y-74504961D02*
X158753050Y-74924009D01*
X158753050Y-74924009D02*
X158791145Y-75000200D01*
X158791145Y-75000200D02*
X158867335Y-75038295D01*
X158867335Y-75038295D02*
X158981621Y-75038295D01*
X158981621Y-75038295D02*
X159057812Y-75000200D01*
X159057812Y-75000200D02*
X159095907Y-74962104D01*
X143918557Y-55572713D02*
X143918557Y-56086999D01*
X143918557Y-55829856D02*
X143018557Y-55829856D01*
X143018557Y-55829856D02*
X143147128Y-55915570D01*
X143147128Y-55915570D02*
X143232842Y-56001285D01*
X143232842Y-56001285D02*
X143275700Y-56086999D01*
X143832842Y-55186999D02*
X143875700Y-55144142D01*
X143875700Y-55144142D02*
X143918557Y-55186999D01*
X143918557Y-55186999D02*
X143875700Y-55229856D01*
X143875700Y-55229856D02*
X143832842Y-55186999D01*
X143832842Y-55186999D02*
X143918557Y-55186999D01*
X143018557Y-54329856D02*
X143018557Y-54758428D01*
X143018557Y-54758428D02*
X143447128Y-54801285D01*
X143447128Y-54801285D02*
X143404271Y-54758428D01*
X143404271Y-54758428D02*
X143361414Y-54672714D01*
X143361414Y-54672714D02*
X143361414Y-54458428D01*
X143361414Y-54458428D02*
X143404271Y-54372714D01*
X143404271Y-54372714D02*
X143447128Y-54329856D01*
X143447128Y-54329856D02*
X143532842Y-54286999D01*
X143532842Y-54286999D02*
X143747128Y-54286999D01*
X143747128Y-54286999D02*
X143832842Y-54329856D01*
X143832842Y-54329856D02*
X143875700Y-54372714D01*
X143875700Y-54372714D02*
X143918557Y-54458428D01*
X143918557Y-54458428D02*
X143918557Y-54672714D01*
X143918557Y-54672714D02*
X143875700Y-54758428D01*
X143875700Y-54758428D02*
X143832842Y-54801285D01*
X143918557Y-53901285D02*
X143018557Y-53901285D01*
X143918557Y-53386999D02*
X143404271Y-53772713D01*
X143018557Y-53386999D02*
X143532842Y-53901285D01*
G36*
X141054466Y-95509882D02*
G01*
X141109146Y-95522156D01*
X141159223Y-95543634D01*
X141204698Y-95574317D01*
X141245571Y-95614205D01*
X141264281Y-95637600D01*
X141292215Y-95681559D01*
X141315415Y-95731767D01*
X141333879Y-95788225D01*
X141345242Y-95837890D01*
X141353575Y-95891555D01*
X141358878Y-95949219D01*
X141361151Y-96010883D01*
X141361245Y-96026923D01*
X141359772Y-96089156D01*
X141355353Y-96147869D01*
X141347988Y-96203065D01*
X141337676Y-96254741D01*
X141324418Y-96302899D01*
X141303703Y-96358148D01*
X141278384Y-96407899D01*
X141266968Y-96426260D01*
X141235620Y-96467564D01*
X141200349Y-96501866D01*
X141152845Y-96533788D01*
X141099691Y-96555630D01*
X141051080Y-96566131D01*
X140998545Y-96569631D01*
X140942652Y-96565400D01*
X140892089Y-96552708D01*
X140846856Y-96531553D01*
X140806952Y-96501938D01*
X140786542Y-96481215D01*
X140755856Y-96439434D01*
X140731972Y-96391670D01*
X140714890Y-96337921D01*
X140705662Y-96287088D01*
X140701790Y-96241369D01*
X140826842Y-96241369D01*
X140836609Y-96291663D01*
X140854260Y-96340158D01*
X140881940Y-96384523D01*
X140887903Y-96391578D01*
X140927527Y-96425215D01*
X140973128Y-96443327D01*
X141006849Y-96446777D01*
X141055423Y-96440213D01*
X141103281Y-96417136D01*
X141139787Y-96382675D01*
X141167072Y-96341752D01*
X141189437Y-96292625D01*
X141204235Y-96245456D01*
X141214997Y-96193615D01*
X141221723Y-96137104D01*
X141224245Y-96086442D01*
X141224469Y-96065270D01*
X141183969Y-96103867D01*
X141141236Y-96134478D01*
X141096271Y-96157104D01*
X141049073Y-96171744D01*
X140999642Y-96178399D01*
X140982669Y-96178842D01*
X140933153Y-96175002D01*
X140882431Y-96161907D01*
X140835635Y-96139519D01*
X140794005Y-96108531D01*
X140758781Y-96069634D01*
X140732320Y-96027412D01*
X140712227Y-95979751D01*
X140699576Y-95927749D01*
X140694553Y-95877236D01*
X140694218Y-95859617D01*
X140694826Y-95848626D01*
X140825377Y-95848626D01*
X140829694Y-95898267D01*
X140844415Y-95946590D01*
X140869585Y-95988333D01*
X140908557Y-96022416D01*
X140958794Y-96040769D01*
X140998545Y-96044265D01*
X141047513Y-96037766D01*
X141095898Y-96018272D01*
X141136905Y-95991218D01*
X141177482Y-95954616D01*
X141210969Y-95916820D01*
X141217631Y-95908466D01*
X141210200Y-95858557D01*
X141198493Y-95806603D01*
X141181106Y-95755499D01*
X141156436Y-95708554D01*
X141150220Y-95699638D01*
X141114652Y-95663059D01*
X141071451Y-95640028D01*
X141020618Y-95630544D01*
X141009536Y-95630273D01*
X140956891Y-95637575D01*
X140911462Y-95659480D01*
X140876423Y-95692066D01*
X140849504Y-95733802D01*
X140832555Y-95782074D01*
X140825825Y-95831106D01*
X140825377Y-95848626D01*
X140694826Y-95848626D01*
X140697116Y-95807196D01*
X140705810Y-95757092D01*
X140720300Y-95709308D01*
X140730855Y-95683762D01*
X140757173Y-95636559D01*
X140790026Y-95595701D01*
X140829415Y-95561188D01*
X140838077Y-95555046D01*
X140884746Y-95529544D01*
X140936519Y-95513487D01*
X140987478Y-95507111D01*
X141005384Y-95506686D01*
X141054466Y-95509882D01*
G37*
G36*
X141765223Y-95651522D02*
G01*
X142029738Y-96355674D01*
X142285949Y-95651522D01*
X142166270Y-95651522D01*
X142166270Y-95522318D01*
X142561455Y-95522318D01*
X142561455Y-95651522D01*
X142437868Y-95651522D01*
X142095684Y-96569631D01*
X141952069Y-96569631D01*
X141604511Y-95651522D01*
X141476772Y-95651522D01*
X141476772Y-95522318D01*
X141884658Y-95522318D01*
X141884658Y-95651522D01*
X141765223Y-95651522D01*
G37*
X134080714Y-91625057D02*
X134128333Y-91577438D01*
X134128333Y-91577438D02*
X134223571Y-91529819D01*
X134223571Y-91529819D02*
X134461666Y-91529819D01*
X134461666Y-91529819D02*
X134556904Y-91577438D01*
X134556904Y-91577438D02*
X134604523Y-91625057D01*
X134604523Y-91625057D02*
X134652142Y-91720295D01*
X134652142Y-91720295D02*
X134652142Y-91815533D01*
X134652142Y-91815533D02*
X134604523Y-91958390D01*
X134604523Y-91958390D02*
X134033095Y-92529819D01*
X134033095Y-92529819D02*
X134652142Y-92529819D01*
X135033095Y-91625057D02*
X135080714Y-91577438D01*
X135080714Y-91577438D02*
X135175952Y-91529819D01*
X135175952Y-91529819D02*
X135414047Y-91529819D01*
X135414047Y-91529819D02*
X135509285Y-91577438D01*
X135509285Y-91577438D02*
X135556904Y-91625057D01*
X135556904Y-91625057D02*
X135604523Y-91720295D01*
X135604523Y-91720295D02*
X135604523Y-91815533D01*
X135604523Y-91815533D02*
X135556904Y-91958390D01*
X135556904Y-91958390D02*
X134985476Y-92529819D01*
X134985476Y-92529819D02*
X135604523Y-92529819D01*
X136033095Y-91863152D02*
X136033095Y-92529819D01*
X136033095Y-91958390D02*
X136080714Y-91910771D01*
X136080714Y-91910771D02*
X136175952Y-91863152D01*
X136175952Y-91863152D02*
X136318809Y-91863152D01*
X136318809Y-91863152D02*
X136414047Y-91910771D01*
X136414047Y-91910771D02*
X136461666Y-92006009D01*
X136461666Y-92006009D02*
X136461666Y-92529819D01*
X143122761Y-92437295D02*
X142665618Y-92437295D01*
X142894190Y-92437295D02*
X142894190Y-91637295D01*
X142894190Y-91637295D02*
X142817999Y-91751580D01*
X142817999Y-91751580D02*
X142741809Y-91827771D01*
X142741809Y-91827771D02*
X142665618Y-91865866D01*
X143618000Y-91637295D02*
X143694190Y-91637295D01*
X143694190Y-91637295D02*
X143770381Y-91675390D01*
X143770381Y-91675390D02*
X143808476Y-91713485D01*
X143808476Y-91713485D02*
X143846571Y-91789676D01*
X143846571Y-91789676D02*
X143884666Y-91942057D01*
X143884666Y-91942057D02*
X143884666Y-92132533D01*
X143884666Y-92132533D02*
X143846571Y-92284914D01*
X143846571Y-92284914D02*
X143808476Y-92361104D01*
X143808476Y-92361104D02*
X143770381Y-92399200D01*
X143770381Y-92399200D02*
X143694190Y-92437295D01*
X143694190Y-92437295D02*
X143618000Y-92437295D01*
X143618000Y-92437295D02*
X143541809Y-92399200D01*
X143541809Y-92399200D02*
X143503714Y-92361104D01*
X143503714Y-92361104D02*
X143465619Y-92284914D01*
X143465619Y-92284914D02*
X143427523Y-92132533D01*
X143427523Y-92132533D02*
X143427523Y-91942057D01*
X143427523Y-91942057D02*
X143465619Y-91789676D01*
X143465619Y-91789676D02*
X143503714Y-91713485D01*
X143503714Y-91713485D02*
X143541809Y-91675390D01*
X143541809Y-91675390D02*
X143618000Y-91637295D01*
X144379905Y-91637295D02*
X144456095Y-91637295D01*
X144456095Y-91637295D02*
X144532286Y-91675390D01*
X144532286Y-91675390D02*
X144570381Y-91713485D01*
X144570381Y-91713485D02*
X144608476Y-91789676D01*
X144608476Y-91789676D02*
X144646571Y-91942057D01*
X144646571Y-91942057D02*
X144646571Y-92132533D01*
X144646571Y-92132533D02*
X144608476Y-92284914D01*
X144608476Y-92284914D02*
X144570381Y-92361104D01*
X144570381Y-92361104D02*
X144532286Y-92399200D01*
X144532286Y-92399200D02*
X144456095Y-92437295D01*
X144456095Y-92437295D02*
X144379905Y-92437295D01*
X144379905Y-92437295D02*
X144303714Y-92399200D01*
X144303714Y-92399200D02*
X144265619Y-92361104D01*
X144265619Y-92361104D02*
X144227524Y-92284914D01*
X144227524Y-92284914D02*
X144189428Y-92132533D01*
X144189428Y-92132533D02*
X144189428Y-91942057D01*
X144189428Y-91942057D02*
X144227524Y-91789676D01*
X144227524Y-91789676D02*
X144265619Y-91713485D01*
X144265619Y-91713485D02*
X144303714Y-91675390D01*
X144303714Y-91675390D02*
X144379905Y-91637295D01*
X144989429Y-91903961D02*
X144989429Y-92437295D01*
X144989429Y-91980152D02*
X145027524Y-91942057D01*
X145027524Y-91942057D02*
X145103714Y-91903961D01*
X145103714Y-91903961D02*
X145218000Y-91903961D01*
X145218000Y-91903961D02*
X145294191Y-91942057D01*
X145294191Y-91942057D02*
X145332286Y-92018247D01*
X145332286Y-92018247D02*
X145332286Y-92437295D01*
X138025381Y-65875819D02*
X138215857Y-65875819D01*
X138215857Y-65875819D02*
X138311095Y-65923438D01*
X138311095Y-65923438D02*
X138406333Y-66018676D01*
X138406333Y-66018676D02*
X138453952Y-66209152D01*
X138453952Y-66209152D02*
X138453952Y-66542485D01*
X138453952Y-66542485D02*
X138406333Y-66732961D01*
X138406333Y-66732961D02*
X138311095Y-66828200D01*
X138311095Y-66828200D02*
X138215857Y-66875819D01*
X138215857Y-66875819D02*
X138025381Y-66875819D01*
X138025381Y-66875819D02*
X137930143Y-66828200D01*
X137930143Y-66828200D02*
X137834905Y-66732961D01*
X137834905Y-66732961D02*
X137787286Y-66542485D01*
X137787286Y-66542485D02*
X137787286Y-66209152D01*
X137787286Y-66209152D02*
X137834905Y-66018676D01*
X137834905Y-66018676D02*
X137930143Y-65923438D01*
X137930143Y-65923438D02*
X138025381Y-65875819D01*
X138882524Y-66875819D02*
X138882524Y-65875819D01*
X138882524Y-65875819D02*
X139263476Y-65875819D01*
X139263476Y-65875819D02*
X139358714Y-65923438D01*
X139358714Y-65923438D02*
X139406333Y-65971057D01*
X139406333Y-65971057D02*
X139453952Y-66066295D01*
X139453952Y-66066295D02*
X139453952Y-66209152D01*
X139453952Y-66209152D02*
X139406333Y-66304390D01*
X139406333Y-66304390D02*
X139358714Y-66352009D01*
X139358714Y-66352009D02*
X139263476Y-66399628D01*
X139263476Y-66399628D02*
X138882524Y-66399628D01*
X140073000Y-65875819D02*
X140168238Y-65875819D01*
X140168238Y-65875819D02*
X140263476Y-65923438D01*
X140263476Y-65923438D02*
X140311095Y-65971057D01*
X140311095Y-65971057D02*
X140358714Y-66066295D01*
X140358714Y-66066295D02*
X140406333Y-66256771D01*
X140406333Y-66256771D02*
X140406333Y-66494866D01*
X140406333Y-66494866D02*
X140358714Y-66685342D01*
X140358714Y-66685342D02*
X140311095Y-66780580D01*
X140311095Y-66780580D02*
X140263476Y-66828200D01*
X140263476Y-66828200D02*
X140168238Y-66875819D01*
X140168238Y-66875819D02*
X140073000Y-66875819D01*
X140073000Y-66875819D02*
X139977762Y-66828200D01*
X139977762Y-66828200D02*
X139930143Y-66780580D01*
X139930143Y-66780580D02*
X139882524Y-66685342D01*
X139882524Y-66685342D02*
X139834905Y-66494866D01*
X139834905Y-66494866D02*
X139834905Y-66256771D01*
X139834905Y-66256771D02*
X139882524Y-66066295D01*
X139882524Y-66066295D02*
X139930143Y-65971057D01*
X139930143Y-65971057D02*
X139977762Y-65923438D01*
X139977762Y-65923438D02*
X140073000Y-65875819D01*
X140739667Y-65875819D02*
X141406333Y-65875819D01*
X141406333Y-65875819D02*
X140977762Y-66875819D01*
X153503333Y-71828819D02*
X152931905Y-71828819D01*
X153217619Y-71828819D02*
X153217619Y-70828819D01*
X153217619Y-70828819D02*
X153122381Y-70971676D01*
X153122381Y-70971676D02*
X153027143Y-71066914D01*
X153027143Y-71066914D02*
X152931905Y-71114533D01*
X153931905Y-71162152D02*
X153931905Y-71828819D01*
X153931905Y-71257390D02*
X153979524Y-71209771D01*
X153979524Y-71209771D02*
X154074762Y-71162152D01*
X154074762Y-71162152D02*
X154217619Y-71162152D01*
X154217619Y-71162152D02*
X154312857Y-71209771D01*
X154312857Y-71209771D02*
X154360476Y-71305009D01*
X154360476Y-71305009D02*
X154360476Y-71828819D01*
G36*
X124032250Y-43192475D02*
G01*
X124032250Y-42946522D01*
X123818782Y-42946522D01*
X123818782Y-43719795D01*
X123953360Y-43719795D01*
X123953360Y-43849000D01*
X123530087Y-43849000D01*
X123530087Y-43719795D01*
X123661978Y-43719795D01*
X123661978Y-42946522D01*
X123449731Y-42946522D01*
X123449731Y-43192475D01*
X123321992Y-43192475D01*
X123321992Y-42817318D01*
X124160233Y-42817318D01*
X124160233Y-43192475D01*
X124032250Y-43192475D01*
G37*
G36*
X124616448Y-43117507D02*
G01*
X124665938Y-43127079D01*
X124712924Y-43143031D01*
X124757407Y-43165364D01*
X124798425Y-43193070D01*
X124838986Y-43229458D01*
X124873635Y-43271372D01*
X124893450Y-43302384D01*
X124915142Y-43346226D01*
X124932137Y-43397883D01*
X124941289Y-43452013D01*
X124943032Y-43489474D01*
X124939887Y-43540048D01*
X124930453Y-43588453D01*
X124912322Y-43640319D01*
X124892718Y-43678762D01*
X124865408Y-43719398D01*
X124829248Y-43759786D01*
X124787330Y-43794531D01*
X124756186Y-43814561D01*
X124711779Y-43836467D01*
X124665022Y-43852114D01*
X124615914Y-43861502D01*
X124564455Y-43864631D01*
X124511561Y-43861502D01*
X124461324Y-43852114D01*
X124413742Y-43836467D01*
X124368817Y-43814561D01*
X124327631Y-43787298D01*
X124287064Y-43751298D01*
X124252601Y-43709657D01*
X124233018Y-43678762D01*
X124211860Y-43634692D01*
X124195284Y-43582521D01*
X124186972Y-43533844D01*
X124184658Y-43489474D01*
X124333890Y-43489474D01*
X124338848Y-43539343D01*
X124353722Y-43586552D01*
X124363932Y-43607443D01*
X124392369Y-43648345D01*
X124428464Y-43681749D01*
X124447707Y-43694638D01*
X124492938Y-43715354D01*
X124541312Y-43725509D01*
X124564699Y-43726634D01*
X124614206Y-43721353D01*
X124663734Y-43703856D01*
X124680471Y-43694638D01*
X124719664Y-43664815D01*
X124753217Y-43624584D01*
X124763025Y-43608176D01*
X124782159Y-43562428D01*
X124791539Y-43513293D01*
X124792578Y-43489474D01*
X124787701Y-43439884D01*
X124773068Y-43393115D01*
X124763025Y-43372482D01*
X124735143Y-43331775D01*
X124699522Y-43298163D01*
X124680471Y-43285043D01*
X124635671Y-43263536D01*
X124587002Y-43252994D01*
X124563234Y-43251826D01*
X124513529Y-43257187D01*
X124467210Y-43273270D01*
X124446974Y-43284310D01*
X124407818Y-43314412D01*
X124376079Y-43351931D01*
X124363932Y-43371749D01*
X124344481Y-43417690D01*
X124334946Y-43466210D01*
X124333890Y-43489474D01*
X124184658Y-43489474D01*
X124187680Y-43436824D01*
X124196748Y-43387075D01*
X124211860Y-43340226D01*
X124233018Y-43296278D01*
X124263352Y-43251247D01*
X124299676Y-43212051D01*
X124341989Y-43178690D01*
X124368084Y-43162677D01*
X124412780Y-43141520D01*
X124460408Y-43126407D01*
X124510966Y-43117340D01*
X124564455Y-43114317D01*
X124616448Y-43117507D01*
G37*
G36*
X125733157Y-43361491D02*
G01*
X125733157Y-43722482D01*
X125854057Y-43722482D01*
X125854057Y-43849000D01*
X125591008Y-43849000D01*
X125591008Y-43369795D01*
X125587783Y-43320639D01*
X125572671Y-43273739D01*
X125571469Y-43271854D01*
X125530384Y-43244413D01*
X125507233Y-43242056D01*
X125458384Y-43247933D01*
X125406605Y-43265564D01*
X125358893Y-43290634D01*
X125316212Y-43319285D01*
X125294253Y-43336090D01*
X125294253Y-43722482D01*
X125418572Y-43722482D01*
X125418572Y-43849000D01*
X125026807Y-43849000D01*
X125026807Y-43722482D01*
X125154057Y-43722482D01*
X125154057Y-43256955D01*
X125026807Y-43256955D01*
X125026807Y-43129949D01*
X125294253Y-43129949D01*
X125294253Y-43211526D01*
X125335310Y-43183521D01*
X125383556Y-43156181D01*
X125430685Y-43135676D01*
X125484259Y-43120393D01*
X125536313Y-43114412D01*
X125543625Y-43114317D01*
X125594050Y-43119070D01*
X125640742Y-43135499D01*
X125680754Y-43167125D01*
X125686751Y-43174401D01*
X125711223Y-43218488D01*
X125725498Y-43269343D01*
X125732024Y-43323435D01*
X125733157Y-43361491D01*
G37*
G36*
X126361838Y-43117462D02*
G01*
X126413374Y-43126896D01*
X126461245Y-43142619D01*
X126505453Y-43164631D01*
X126545677Y-43192368D01*
X126585491Y-43230031D01*
X126616048Y-43269251D01*
X126639054Y-43308002D01*
X126660685Y-43356774D01*
X126676728Y-43409790D01*
X126686184Y-43459660D01*
X126691361Y-43512779D01*
X126692055Y-43528553D01*
X126086821Y-43528553D01*
X126098411Y-43580910D01*
X126118617Y-43626698D01*
X126151175Y-43669870D01*
X126167177Y-43684868D01*
X126207472Y-43712614D01*
X126257818Y-43732793D01*
X126308147Y-43741369D01*
X126332041Y-43742265D01*
X126384236Y-43738316D01*
X126433478Y-43726466D01*
X126464665Y-43714177D01*
X126507678Y-43688853D01*
X126545127Y-43655010D01*
X126567002Y-43627715D01*
X126692055Y-43682670D01*
X126660196Y-43724970D01*
X126623728Y-43761744D01*
X126582649Y-43792992D01*
X126536960Y-43818713D01*
X126488036Y-43838802D01*
X126437004Y-43853152D01*
X126383866Y-43861761D01*
X126328621Y-43864631D01*
X126278783Y-43862340D01*
X126224859Y-43854112D01*
X126174171Y-43839900D01*
X126126719Y-43819705D01*
X126121015Y-43816759D01*
X126078211Y-43790351D01*
X126040415Y-43759240D01*
X126003879Y-43718621D01*
X125979843Y-43682914D01*
X125957830Y-43638584D01*
X125942107Y-43591568D01*
X125932673Y-43541864D01*
X125929529Y-43489474D01*
X125932643Y-43437420D01*
X125934622Y-43426948D01*
X126090973Y-43426948D01*
X126543067Y-43426948D01*
X126528285Y-43380350D01*
X126503612Y-43334965D01*
X126470258Y-43296306D01*
X126458559Y-43286020D01*
X126416303Y-43257813D01*
X126370135Y-43240052D01*
X126320056Y-43232739D01*
X126309570Y-43232531D01*
X126256524Y-43238851D01*
X126208212Y-43257813D01*
X126168398Y-43286020D01*
X126134915Y-43322661D01*
X126109875Y-43366028D01*
X126093279Y-43416122D01*
X126090973Y-43426948D01*
X125934622Y-43426948D01*
X125941985Y-43387991D01*
X125957555Y-43341188D01*
X125979354Y-43297011D01*
X126006557Y-43256375D01*
X126042633Y-43216279D01*
X126084506Y-43182134D01*
X126115642Y-43162677D01*
X126160094Y-43141520D01*
X126206744Y-43126407D01*
X126255593Y-43117340D01*
X126306639Y-43114317D01*
X126361838Y-43117462D01*
G37*
X128124047Y-63963961D02*
X128124047Y-64497295D01*
X127933571Y-63659200D02*
X127743094Y-64230628D01*
X127743094Y-64230628D02*
X128238333Y-64230628D01*
X128543095Y-64421104D02*
X128581190Y-64459200D01*
X128581190Y-64459200D02*
X128543095Y-64497295D01*
X128543095Y-64497295D02*
X128504999Y-64459200D01*
X128504999Y-64459200D02*
X128543095Y-64421104D01*
X128543095Y-64421104D02*
X128543095Y-64497295D01*
X128847856Y-63697295D02*
X129381190Y-63697295D01*
X129381190Y-63697295D02*
X129038332Y-64497295D01*
X130028809Y-63963961D02*
X130028809Y-64497295D01*
X129685952Y-63963961D02*
X129685952Y-64383009D01*
X129685952Y-64383009D02*
X129724047Y-64459200D01*
X129724047Y-64459200D02*
X129800237Y-64497295D01*
X129800237Y-64497295D02*
X129914523Y-64497295D01*
X129914523Y-64497295D02*
X129990714Y-64459200D01*
X129990714Y-64459200D02*
X130028809Y-64421104D01*
X138728571Y-75508295D02*
X138347619Y-75508295D01*
X138347619Y-75508295D02*
X138309523Y-75889247D01*
X138309523Y-75889247D02*
X138347619Y-75851152D01*
X138347619Y-75851152D02*
X138423809Y-75813057D01*
X138423809Y-75813057D02*
X138614285Y-75813057D01*
X138614285Y-75813057D02*
X138690476Y-75851152D01*
X138690476Y-75851152D02*
X138728571Y-75889247D01*
X138728571Y-75889247D02*
X138766666Y-75965438D01*
X138766666Y-75965438D02*
X138766666Y-76155914D01*
X138766666Y-76155914D02*
X138728571Y-76232104D01*
X138728571Y-76232104D02*
X138690476Y-76270200D01*
X138690476Y-76270200D02*
X138614285Y-76308295D01*
X138614285Y-76308295D02*
X138423809Y-76308295D01*
X138423809Y-76308295D02*
X138347619Y-76270200D01*
X138347619Y-76270200D02*
X138309523Y-76232104D01*
X139528571Y-76308295D02*
X139071428Y-76308295D01*
X139300000Y-76308295D02*
X139300000Y-75508295D01*
X139300000Y-75508295D02*
X139223809Y-75622580D01*
X139223809Y-75622580D02*
X139147619Y-75698771D01*
X139147619Y-75698771D02*
X139071428Y-75736866D01*
X140023810Y-75508295D02*
X140100000Y-75508295D01*
X140100000Y-75508295D02*
X140176191Y-75546390D01*
X140176191Y-75546390D02*
X140214286Y-75584485D01*
X140214286Y-75584485D02*
X140252381Y-75660676D01*
X140252381Y-75660676D02*
X140290476Y-75813057D01*
X140290476Y-75813057D02*
X140290476Y-76003533D01*
X140290476Y-76003533D02*
X140252381Y-76155914D01*
X140252381Y-76155914D02*
X140214286Y-76232104D01*
X140214286Y-76232104D02*
X140176191Y-76270200D01*
X140176191Y-76270200D02*
X140100000Y-76308295D01*
X140100000Y-76308295D02*
X140023810Y-76308295D01*
X140023810Y-76308295D02*
X139947619Y-76270200D01*
X139947619Y-76270200D02*
X139909524Y-76232104D01*
X139909524Y-76232104D02*
X139871429Y-76155914D01*
X139871429Y-76155914D02*
X139833333Y-76003533D01*
X139833333Y-76003533D02*
X139833333Y-75813057D01*
X139833333Y-75813057D02*
X139871429Y-75660676D01*
X139871429Y-75660676D02*
X139909524Y-75584485D01*
X139909524Y-75584485D02*
X139947619Y-75546390D01*
X139947619Y-75546390D02*
X140023810Y-75508295D01*
X141090477Y-76308295D02*
X140823810Y-75927342D01*
X140633334Y-76308295D02*
X140633334Y-75508295D01*
X140633334Y-75508295D02*
X140938096Y-75508295D01*
X140938096Y-75508295D02*
X141014286Y-75546390D01*
X141014286Y-75546390D02*
X141052381Y-75584485D01*
X141052381Y-75584485D02*
X141090477Y-75660676D01*
X141090477Y-75660676D02*
X141090477Y-75774961D01*
X141090477Y-75774961D02*
X141052381Y-75851152D01*
X141052381Y-75851152D02*
X141014286Y-75889247D01*
X141014286Y-75889247D02*
X140938096Y-75927342D01*
X140938096Y-75927342D02*
X140633334Y-75927342D01*
X154713557Y-55892571D02*
X154713557Y-55721142D01*
X154713557Y-55721142D02*
X154670700Y-55635428D01*
X154670700Y-55635428D02*
X154627842Y-55592571D01*
X154627842Y-55592571D02*
X154499271Y-55506856D01*
X154499271Y-55506856D02*
X154327842Y-55463999D01*
X154327842Y-55463999D02*
X153984985Y-55463999D01*
X153984985Y-55463999D02*
X153899271Y-55506856D01*
X153899271Y-55506856D02*
X153856414Y-55549714D01*
X153856414Y-55549714D02*
X153813557Y-55635428D01*
X153813557Y-55635428D02*
X153813557Y-55806856D01*
X153813557Y-55806856D02*
X153856414Y-55892571D01*
X153856414Y-55892571D02*
X153899271Y-55935428D01*
X153899271Y-55935428D02*
X153984985Y-55978285D01*
X153984985Y-55978285D02*
X154199271Y-55978285D01*
X154199271Y-55978285D02*
X154284985Y-55935428D01*
X154284985Y-55935428D02*
X154327842Y-55892571D01*
X154327842Y-55892571D02*
X154370700Y-55806856D01*
X154370700Y-55806856D02*
X154370700Y-55635428D01*
X154370700Y-55635428D02*
X154327842Y-55549714D01*
X154327842Y-55549714D02*
X154284985Y-55506856D01*
X154284985Y-55506856D02*
X154199271Y-55463999D01*
X154713557Y-54606856D02*
X154713557Y-55121142D01*
X154713557Y-54863999D02*
X153813557Y-54863999D01*
X153813557Y-54863999D02*
X153942128Y-54949713D01*
X153942128Y-54949713D02*
X154027842Y-55035428D01*
X154027842Y-55035428D02*
X154070700Y-55121142D01*
X154113557Y-53835428D02*
X154713557Y-53835428D01*
X153770700Y-54049713D02*
X154413557Y-54263999D01*
X154413557Y-54263999D02*
X154413557Y-53706856D01*
G36*
X133621811Y-95651522D02*
G01*
X133621811Y-96424795D01*
X133734651Y-96424795D01*
X133734651Y-96554000D01*
X133353388Y-96554000D01*
X133353388Y-96424795D01*
X133465251Y-96424795D01*
X133465251Y-95651522D01*
X133353388Y-95651522D01*
X133353388Y-95522318D01*
X133734651Y-95522318D01*
X133734651Y-95651522D01*
X133621811Y-95651522D01*
G37*
G36*
X134519159Y-96066491D02*
G01*
X134519159Y-96427482D01*
X134640059Y-96427482D01*
X134640059Y-96554000D01*
X134377009Y-96554000D01*
X134377009Y-96074795D01*
X134373785Y-96025639D01*
X134358672Y-95978739D01*
X134357470Y-95976854D01*
X134316386Y-95949413D01*
X134293234Y-95947056D01*
X134244386Y-95952933D01*
X134192606Y-95970564D01*
X134144895Y-95995634D01*
X134102213Y-96024285D01*
X134080254Y-96041090D01*
X134080254Y-96427482D01*
X134204574Y-96427482D01*
X134204574Y-96554000D01*
X133812808Y-96554000D01*
X133812808Y-96427482D01*
X133940059Y-96427482D01*
X133940059Y-95961955D01*
X133812808Y-95961955D01*
X133812808Y-95834949D01*
X134080254Y-95834949D01*
X134080254Y-95916526D01*
X134121312Y-95888521D01*
X134169557Y-95861181D01*
X134216687Y-95840676D01*
X134270260Y-95825393D01*
X134322314Y-95819412D01*
X134329626Y-95819317D01*
X134380052Y-95824070D01*
X134426744Y-95840499D01*
X134466755Y-95872125D01*
X134472753Y-95879401D01*
X134497225Y-95923488D01*
X134511500Y-95974343D01*
X134518026Y-96028435D01*
X134519159Y-96066491D01*
G37*
X148825295Y-67062238D02*
X148825295Y-67519381D01*
X148825295Y-67290809D02*
X148025295Y-67290809D01*
X148025295Y-67290809D02*
X148139580Y-67367000D01*
X148139580Y-67367000D02*
X148215771Y-67443190D01*
X148215771Y-67443190D02*
X148253866Y-67519381D01*
X148025295Y-66566999D02*
X148025295Y-66490809D01*
X148025295Y-66490809D02*
X148063390Y-66414618D01*
X148063390Y-66414618D02*
X148101485Y-66376523D01*
X148101485Y-66376523D02*
X148177676Y-66338428D01*
X148177676Y-66338428D02*
X148330057Y-66300333D01*
X148330057Y-66300333D02*
X148520533Y-66300333D01*
X148520533Y-66300333D02*
X148672914Y-66338428D01*
X148672914Y-66338428D02*
X148749104Y-66376523D01*
X148749104Y-66376523D02*
X148787200Y-66414618D01*
X148787200Y-66414618D02*
X148825295Y-66490809D01*
X148825295Y-66490809D02*
X148825295Y-66566999D01*
X148825295Y-66566999D02*
X148787200Y-66643190D01*
X148787200Y-66643190D02*
X148749104Y-66681285D01*
X148749104Y-66681285D02*
X148672914Y-66719380D01*
X148672914Y-66719380D02*
X148520533Y-66757476D01*
X148520533Y-66757476D02*
X148330057Y-66757476D01*
X148330057Y-66757476D02*
X148177676Y-66719380D01*
X148177676Y-66719380D02*
X148101485Y-66681285D01*
X148101485Y-66681285D02*
X148063390Y-66643190D01*
X148063390Y-66643190D02*
X148025295Y-66566999D01*
X148025295Y-65805094D02*
X148025295Y-65728904D01*
X148025295Y-65728904D02*
X148063390Y-65652713D01*
X148063390Y-65652713D02*
X148101485Y-65614618D01*
X148101485Y-65614618D02*
X148177676Y-65576523D01*
X148177676Y-65576523D02*
X148330057Y-65538428D01*
X148330057Y-65538428D02*
X148520533Y-65538428D01*
X148520533Y-65538428D02*
X148672914Y-65576523D01*
X148672914Y-65576523D02*
X148749104Y-65614618D01*
X148749104Y-65614618D02*
X148787200Y-65652713D01*
X148787200Y-65652713D02*
X148825295Y-65728904D01*
X148825295Y-65728904D02*
X148825295Y-65805094D01*
X148825295Y-65805094D02*
X148787200Y-65881285D01*
X148787200Y-65881285D02*
X148749104Y-65919380D01*
X148749104Y-65919380D02*
X148672914Y-65957475D01*
X148672914Y-65957475D02*
X148520533Y-65995571D01*
X148520533Y-65995571D02*
X148330057Y-65995571D01*
X148330057Y-65995571D02*
X148177676Y-65957475D01*
X148177676Y-65957475D02*
X148101485Y-65919380D01*
X148101485Y-65919380D02*
X148063390Y-65881285D01*
X148063390Y-65881285D02*
X148025295Y-65805094D01*
X148291961Y-65195570D02*
X149091961Y-65195570D01*
X148330057Y-65195570D02*
X148291961Y-65119380D01*
X148291961Y-65119380D02*
X148291961Y-64966999D01*
X148291961Y-64966999D02*
X148330057Y-64890808D01*
X148330057Y-64890808D02*
X148368152Y-64852713D01*
X148368152Y-64852713D02*
X148444342Y-64814618D01*
X148444342Y-64814618D02*
X148672914Y-64814618D01*
X148672914Y-64814618D02*
X148749104Y-64852713D01*
X148749104Y-64852713D02*
X148787200Y-64890808D01*
X148787200Y-64890808D02*
X148825295Y-64966999D01*
X148825295Y-64966999D02*
X148825295Y-65119380D01*
X148825295Y-65119380D02*
X148787200Y-65195570D01*
G36*
X144645147Y-95638822D02*
G01*
X144645147Y-95522318D01*
X144777038Y-95522318D01*
X144777038Y-95866212D01*
X144645147Y-95866212D01*
X144619150Y-95818416D01*
X144586590Y-95775659D01*
X144547465Y-95737938D01*
X144507846Y-95709065D01*
X144501776Y-95705256D01*
X144458543Y-95681654D01*
X144407931Y-95661778D01*
X144356037Y-95649475D01*
X144302861Y-95644743D01*
X144296124Y-95644683D01*
X144243978Y-95647813D01*
X144194763Y-95657201D01*
X144148479Y-95672848D01*
X144105126Y-95694753D01*
X144060958Y-95725912D01*
X144022703Y-95763060D01*
X143990359Y-95806197D01*
X143974945Y-95832750D01*
X143954642Y-95878195D01*
X143940140Y-95926601D01*
X143931439Y-95977968D01*
X143928538Y-96032297D01*
X143930864Y-96082314D01*
X143939218Y-96136356D01*
X143953648Y-96187071D01*
X143974152Y-96234458D01*
X143977143Y-96240147D01*
X144003948Y-96282951D01*
X144035517Y-96320748D01*
X144071848Y-96353537D01*
X144112942Y-96381320D01*
X144157944Y-96403332D01*
X144205998Y-96419055D01*
X144257106Y-96428489D01*
X144311267Y-96431634D01*
X144362892Y-96428652D01*
X144412132Y-96419708D01*
X144458986Y-96404801D01*
X144468071Y-96401103D01*
X144514998Y-96376916D01*
X144556038Y-96346667D01*
X144588238Y-96313909D01*
X144616879Y-96273018D01*
X144636976Y-96228261D01*
X144647834Y-96184216D01*
X144457568Y-96184216D01*
X144457568Y-96053790D01*
X144834679Y-96053790D01*
X144834679Y-96087251D01*
X144832310Y-96141075D01*
X144825200Y-96192272D01*
X144813350Y-96240841D01*
X144793535Y-96294184D01*
X144767268Y-96343951D01*
X144735417Y-96389368D01*
X144698633Y-96429876D01*
X144656918Y-96465476D01*
X144610270Y-96496167D01*
X144581400Y-96511501D01*
X144535956Y-96531256D01*
X144488469Y-96546924D01*
X144438938Y-96558505D01*
X144387364Y-96565998D01*
X144333746Y-96569404D01*
X144315419Y-96569631D01*
X144263844Y-96567991D01*
X144214297Y-96563072D01*
X144157516Y-96552839D01*
X144103655Y-96537884D01*
X144052713Y-96518206D01*
X144020374Y-96502464D01*
X143974916Y-96475313D01*
X143933614Y-96444418D01*
X143896468Y-96409780D01*
X143863478Y-96371397D01*
X143834644Y-96329271D01*
X143825956Y-96314397D01*
X143802964Y-96267694D01*
X143784729Y-96218261D01*
X143771251Y-96166097D01*
X143762530Y-96111202D01*
X143758565Y-96053577D01*
X143758301Y-96033762D01*
X143760680Y-95977826D01*
X143767815Y-95924139D01*
X143779708Y-95872702D01*
X143796357Y-95823515D01*
X143817764Y-95776577D01*
X143825956Y-95761431D01*
X143853122Y-95718232D01*
X143883876Y-95678759D01*
X143918220Y-95643013D01*
X143956153Y-95610993D01*
X143997675Y-95582700D01*
X144012314Y-95574097D01*
X144058026Y-95551188D01*
X144105954Y-95533019D01*
X144156097Y-95519589D01*
X144208456Y-95510899D01*
X144263030Y-95506949D01*
X144281714Y-95506686D01*
X144333982Y-95508751D01*
X144384296Y-95514945D01*
X144432656Y-95525268D01*
X144490358Y-95543978D01*
X144545007Y-95569141D01*
X144596604Y-95600755D01*
X144635683Y-95630692D01*
X144645147Y-95638822D01*
G37*
G36*
X145734470Y-95651522D02*
G01*
X145586703Y-95651522D01*
X145586703Y-95522318D01*
X146011441Y-95522318D01*
X146011441Y-95651522D01*
X145859522Y-95651522D01*
X145859522Y-96569631D01*
X145698811Y-96569631D01*
X145202021Y-95684006D01*
X145202021Y-96424795D01*
X145350520Y-96424795D01*
X145350520Y-96554000D01*
X144926759Y-96554000D01*
X144926759Y-96424795D01*
X145074282Y-96424795D01*
X145074282Y-95651522D01*
X144926759Y-95651522D01*
X144926759Y-95522318D01*
X145279690Y-95522318D01*
X145734470Y-96327586D01*
X145734470Y-95651522D01*
G37*
G36*
X146504887Y-95523372D02*
G01*
X146560249Y-95526534D01*
X146612770Y-95531804D01*
X146662448Y-95539182D01*
X146724264Y-95552299D01*
X146781028Y-95569163D01*
X146832739Y-95589775D01*
X146879397Y-95614134D01*
X146921002Y-95642241D01*
X146966034Y-95683087D01*
X147003434Y-95730827D01*
X147027858Y-95773981D01*
X147047397Y-95821548D01*
X147062052Y-95873526D01*
X147071822Y-95929915D01*
X147076707Y-95990716D01*
X147077317Y-96022771D01*
X147074810Y-96086961D01*
X147067288Y-96147030D01*
X147054751Y-96202977D01*
X147037200Y-96254802D01*
X147014635Y-96302506D01*
X146987054Y-96346088D01*
X146954459Y-96385548D01*
X146916850Y-96420887D01*
X146874294Y-96452085D01*
X146826861Y-96479124D01*
X146774552Y-96502002D01*
X146717364Y-96520721D01*
X146655300Y-96535281D01*
X146605551Y-96543470D01*
X146553059Y-96549320D01*
X146497823Y-96552830D01*
X146439843Y-96554000D01*
X146052963Y-96554000D01*
X146052963Y-96424795D01*
X146191693Y-96424795D01*
X146348497Y-96424795D01*
X146446682Y-96424795D01*
X146504449Y-96423307D01*
X146558194Y-96418842D01*
X146607917Y-96411400D01*
X146664414Y-96397912D01*
X146714625Y-96379772D01*
X146758552Y-96356982D01*
X146796194Y-96329540D01*
X146833795Y-96289899D01*
X146863616Y-96242598D01*
X146882525Y-96197329D01*
X146896031Y-96146742D01*
X146904135Y-96090835D01*
X146906836Y-96029610D01*
X146904615Y-95974542D01*
X146897953Y-95924103D01*
X146884902Y-95872125D01*
X146866049Y-95826192D01*
X146860430Y-95815653D01*
X146830037Y-95772422D01*
X146791067Y-95735875D01*
X146749225Y-95709000D01*
X146713395Y-95692311D01*
X146666392Y-95676418D01*
X146613218Y-95664428D01*
X146562728Y-95657258D01*
X146507705Y-95652956D01*
X146458389Y-95651562D01*
X146448148Y-95651522D01*
X146348497Y-95651522D01*
X146348497Y-96424795D01*
X146191693Y-96424795D01*
X146191693Y-95651522D01*
X146052963Y-95651522D01*
X146052963Y-95522318D01*
X146446682Y-95522318D01*
X146504887Y-95523372D01*
G37*
X138884819Y-54895714D02*
X138884819Y-55467142D01*
X138884819Y-55181428D02*
X137884819Y-55181428D01*
X137884819Y-55181428D02*
X138027676Y-55276666D01*
X138027676Y-55276666D02*
X138122914Y-55371904D01*
X138122914Y-55371904D02*
X138170533Y-55467142D01*
X138884819Y-54467142D02*
X137884819Y-54467142D01*
X137884819Y-54467142D02*
X138599104Y-54133809D01*
X138599104Y-54133809D02*
X137884819Y-53800476D01*
X137884819Y-53800476D02*
X138884819Y-53800476D01*
X139485714Y-74114819D02*
X138914286Y-74114819D01*
X139200000Y-74114819D02*
X139200000Y-73114819D01*
X139200000Y-73114819D02*
X139104762Y-73257676D01*
X139104762Y-73257676D02*
X139009524Y-73352914D01*
X139009524Y-73352914D02*
X138914286Y-73400533D01*
X139914286Y-74114819D02*
X139914286Y-73114819D01*
X140485714Y-74114819D02*
X140057143Y-73543390D01*
X140485714Y-73114819D02*
X139914286Y-73686247D01*
X136471819Y-55300476D02*
X136471819Y-55871904D01*
X136471819Y-55586190D02*
X135471819Y-55586190D01*
X135471819Y-55586190D02*
X135614676Y-55681428D01*
X135614676Y-55681428D02*
X135709914Y-55776666D01*
X135709914Y-55776666D02*
X135757533Y-55871904D01*
X135471819Y-54681428D02*
X135471819Y-54586190D01*
X135471819Y-54586190D02*
X135519438Y-54490952D01*
X135519438Y-54490952D02*
X135567057Y-54443333D01*
X135567057Y-54443333D02*
X135662295Y-54395714D01*
X135662295Y-54395714D02*
X135852771Y-54348095D01*
X135852771Y-54348095D02*
X136090866Y-54348095D01*
X136090866Y-54348095D02*
X136281342Y-54395714D01*
X136281342Y-54395714D02*
X136376580Y-54443333D01*
X136376580Y-54443333D02*
X136424200Y-54490952D01*
X136424200Y-54490952D02*
X136471819Y-54586190D01*
X136471819Y-54586190D02*
X136471819Y-54681428D01*
X136471819Y-54681428D02*
X136424200Y-54776666D01*
X136424200Y-54776666D02*
X136376580Y-54824285D01*
X136376580Y-54824285D02*
X136281342Y-54871904D01*
X136281342Y-54871904D02*
X136090866Y-54919523D01*
X136090866Y-54919523D02*
X135852771Y-54919523D01*
X135852771Y-54919523D02*
X135662295Y-54871904D01*
X135662295Y-54871904D02*
X135567057Y-54824285D01*
X135567057Y-54824285D02*
X135519438Y-54776666D01*
X135519438Y-54776666D02*
X135471819Y-54681428D01*
X136471819Y-53919523D02*
X135471819Y-53919523D01*
X136471819Y-53348095D02*
X135900390Y-53776666D01*
X135471819Y-53348095D02*
X136043247Y-53919523D01*
X152101666Y-84817295D02*
X151644523Y-84817295D01*
X151873095Y-84817295D02*
X151873095Y-84017295D01*
X151873095Y-84017295D02*
X151796904Y-84131580D01*
X151796904Y-84131580D02*
X151720714Y-84207771D01*
X151720714Y-84207771D02*
X151644523Y-84245866D01*
X152596905Y-84017295D02*
X152673095Y-84017295D01*
X152673095Y-84017295D02*
X152749286Y-84055390D01*
X152749286Y-84055390D02*
X152787381Y-84093485D01*
X152787381Y-84093485D02*
X152825476Y-84169676D01*
X152825476Y-84169676D02*
X152863571Y-84322057D01*
X152863571Y-84322057D02*
X152863571Y-84512533D01*
X152863571Y-84512533D02*
X152825476Y-84664914D01*
X152825476Y-84664914D02*
X152787381Y-84741104D01*
X152787381Y-84741104D02*
X152749286Y-84779200D01*
X152749286Y-84779200D02*
X152673095Y-84817295D01*
X152673095Y-84817295D02*
X152596905Y-84817295D01*
X152596905Y-84817295D02*
X152520714Y-84779200D01*
X152520714Y-84779200D02*
X152482619Y-84741104D01*
X152482619Y-84741104D02*
X152444524Y-84664914D01*
X152444524Y-84664914D02*
X152406428Y-84512533D01*
X152406428Y-84512533D02*
X152406428Y-84322057D01*
X152406428Y-84322057D02*
X152444524Y-84169676D01*
X152444524Y-84169676D02*
X152482619Y-84093485D01*
X152482619Y-84093485D02*
X152520714Y-84055390D01*
X152520714Y-84055390D02*
X152596905Y-84017295D01*
X153358810Y-84017295D02*
X153435000Y-84017295D01*
X153435000Y-84017295D02*
X153511191Y-84055390D01*
X153511191Y-84055390D02*
X153549286Y-84093485D01*
X153549286Y-84093485D02*
X153587381Y-84169676D01*
X153587381Y-84169676D02*
X153625476Y-84322057D01*
X153625476Y-84322057D02*
X153625476Y-84512533D01*
X153625476Y-84512533D02*
X153587381Y-84664914D01*
X153587381Y-84664914D02*
X153549286Y-84741104D01*
X153549286Y-84741104D02*
X153511191Y-84779200D01*
X153511191Y-84779200D02*
X153435000Y-84817295D01*
X153435000Y-84817295D02*
X153358810Y-84817295D01*
X153358810Y-84817295D02*
X153282619Y-84779200D01*
X153282619Y-84779200D02*
X153244524Y-84741104D01*
X153244524Y-84741104D02*
X153206429Y-84664914D01*
X153206429Y-84664914D02*
X153168333Y-84512533D01*
X153168333Y-84512533D02*
X153168333Y-84322057D01*
X153168333Y-84322057D02*
X153206429Y-84169676D01*
X153206429Y-84169676D02*
X153244524Y-84093485D01*
X153244524Y-84093485D02*
X153282619Y-84055390D01*
X153282619Y-84055390D02*
X153358810Y-84017295D01*
X154425477Y-84817295D02*
X154158810Y-84436342D01*
X153968334Y-84817295D02*
X153968334Y-84017295D01*
X153968334Y-84017295D02*
X154273096Y-84017295D01*
X154273096Y-84017295D02*
X154349286Y-84055390D01*
X154349286Y-84055390D02*
X154387381Y-84093485D01*
X154387381Y-84093485D02*
X154425477Y-84169676D01*
X154425477Y-84169676D02*
X154425477Y-84283961D01*
X154425477Y-84283961D02*
X154387381Y-84360152D01*
X154387381Y-84360152D02*
X154349286Y-84398247D01*
X154349286Y-84398247D02*
X154273096Y-84436342D01*
X154273096Y-84436342D02*
X153968334Y-84436342D01*
X138961904Y-77813819D02*
X138485714Y-77813819D01*
X138485714Y-77813819D02*
X138438095Y-78290009D01*
X138438095Y-78290009D02*
X138485714Y-78242390D01*
X138485714Y-78242390D02*
X138580952Y-78194771D01*
X138580952Y-78194771D02*
X138819047Y-78194771D01*
X138819047Y-78194771D02*
X138914285Y-78242390D01*
X138914285Y-78242390D02*
X138961904Y-78290009D01*
X138961904Y-78290009D02*
X139009523Y-78385247D01*
X139009523Y-78385247D02*
X139009523Y-78623342D01*
X139009523Y-78623342D02*
X138961904Y-78718580D01*
X138961904Y-78718580D02*
X138914285Y-78766200D01*
X138914285Y-78766200D02*
X138819047Y-78813819D01*
X138819047Y-78813819D02*
X138580952Y-78813819D01*
X138580952Y-78813819D02*
X138485714Y-78766200D01*
X138485714Y-78766200D02*
X138438095Y-78718580D01*
X139961904Y-78813819D02*
X139390476Y-78813819D01*
X139676190Y-78813819D02*
X139676190Y-77813819D01*
X139676190Y-77813819D02*
X139580952Y-77956676D01*
X139580952Y-77956676D02*
X139485714Y-78051914D01*
X139485714Y-78051914D02*
X139390476Y-78099533D01*
X140961904Y-78813819D02*
X140628571Y-78337628D01*
X140390476Y-78813819D02*
X140390476Y-77813819D01*
X140390476Y-77813819D02*
X140771428Y-77813819D01*
X140771428Y-77813819D02*
X140866666Y-77861438D01*
X140866666Y-77861438D02*
X140914285Y-77909057D01*
X140914285Y-77909057D02*
X140961904Y-78004295D01*
X140961904Y-78004295D02*
X140961904Y-78147152D01*
X140961904Y-78147152D02*
X140914285Y-78242390D01*
X140914285Y-78242390D02*
X140866666Y-78290009D01*
X140866666Y-78290009D02*
X140771428Y-78337628D01*
X140771428Y-78337628D02*
X140390476Y-78337628D01*
X138766666Y-83547295D02*
X138309523Y-83547295D01*
X138538095Y-83547295D02*
X138538095Y-82747295D01*
X138538095Y-82747295D02*
X138461904Y-82861580D01*
X138461904Y-82861580D02*
X138385714Y-82937771D01*
X138385714Y-82937771D02*
X138309523Y-82975866D01*
X139261905Y-82747295D02*
X139338095Y-82747295D01*
X139338095Y-82747295D02*
X139414286Y-82785390D01*
X139414286Y-82785390D02*
X139452381Y-82823485D01*
X139452381Y-82823485D02*
X139490476Y-82899676D01*
X139490476Y-82899676D02*
X139528571Y-83052057D01*
X139528571Y-83052057D02*
X139528571Y-83242533D01*
X139528571Y-83242533D02*
X139490476Y-83394914D01*
X139490476Y-83394914D02*
X139452381Y-83471104D01*
X139452381Y-83471104D02*
X139414286Y-83509200D01*
X139414286Y-83509200D02*
X139338095Y-83547295D01*
X139338095Y-83547295D02*
X139261905Y-83547295D01*
X139261905Y-83547295D02*
X139185714Y-83509200D01*
X139185714Y-83509200D02*
X139147619Y-83471104D01*
X139147619Y-83471104D02*
X139109524Y-83394914D01*
X139109524Y-83394914D02*
X139071428Y-83242533D01*
X139071428Y-83242533D02*
X139071428Y-83052057D01*
X139071428Y-83052057D02*
X139109524Y-82899676D01*
X139109524Y-82899676D02*
X139147619Y-82823485D01*
X139147619Y-82823485D02*
X139185714Y-82785390D01*
X139185714Y-82785390D02*
X139261905Y-82747295D01*
X140023810Y-82747295D02*
X140100000Y-82747295D01*
X140100000Y-82747295D02*
X140176191Y-82785390D01*
X140176191Y-82785390D02*
X140214286Y-82823485D01*
X140214286Y-82823485D02*
X140252381Y-82899676D01*
X140252381Y-82899676D02*
X140290476Y-83052057D01*
X140290476Y-83052057D02*
X140290476Y-83242533D01*
X140290476Y-83242533D02*
X140252381Y-83394914D01*
X140252381Y-83394914D02*
X140214286Y-83471104D01*
X140214286Y-83471104D02*
X140176191Y-83509200D01*
X140176191Y-83509200D02*
X140100000Y-83547295D01*
X140100000Y-83547295D02*
X140023810Y-83547295D01*
X140023810Y-83547295D02*
X139947619Y-83509200D01*
X139947619Y-83509200D02*
X139909524Y-83471104D01*
X139909524Y-83471104D02*
X139871429Y-83394914D01*
X139871429Y-83394914D02*
X139833333Y-83242533D01*
X139833333Y-83242533D02*
X139833333Y-83052057D01*
X139833333Y-83052057D02*
X139871429Y-82899676D01*
X139871429Y-82899676D02*
X139909524Y-82823485D01*
X139909524Y-82823485D02*
X139947619Y-82785390D01*
X139947619Y-82785390D02*
X140023810Y-82747295D01*
X140633334Y-83547295D02*
X140633334Y-82747295D01*
X141090477Y-83547295D02*
X140747619Y-83090152D01*
X141090477Y-82747295D02*
X140633334Y-83204438D01*
X157888557Y-56654571D02*
X157888557Y-56483142D01*
X157888557Y-56483142D02*
X157845700Y-56397428D01*
X157845700Y-56397428D02*
X157802842Y-56354571D01*
X157802842Y-56354571D02*
X157674271Y-56268856D01*
X157674271Y-56268856D02*
X157502842Y-56225999D01*
X157502842Y-56225999D02*
X157159985Y-56225999D01*
X157159985Y-56225999D02*
X157074271Y-56268856D01*
X157074271Y-56268856D02*
X157031414Y-56311714D01*
X157031414Y-56311714D02*
X156988557Y-56397428D01*
X156988557Y-56397428D02*
X156988557Y-56568856D01*
X156988557Y-56568856D02*
X157031414Y-56654571D01*
X157031414Y-56654571D02*
X157074271Y-56697428D01*
X157074271Y-56697428D02*
X157159985Y-56740285D01*
X157159985Y-56740285D02*
X157374271Y-56740285D01*
X157374271Y-56740285D02*
X157459985Y-56697428D01*
X157459985Y-56697428D02*
X157502842Y-56654571D01*
X157502842Y-56654571D02*
X157545700Y-56568856D01*
X157545700Y-56568856D02*
X157545700Y-56397428D01*
X157545700Y-56397428D02*
X157502842Y-56311714D01*
X157502842Y-56311714D02*
X157459985Y-56268856D01*
X157459985Y-56268856D02*
X157374271Y-56225999D01*
X157888557Y-55368856D02*
X157888557Y-55883142D01*
X157888557Y-55625999D02*
X156988557Y-55625999D01*
X156988557Y-55625999D02*
X157117128Y-55711713D01*
X157117128Y-55711713D02*
X157202842Y-55797428D01*
X157202842Y-55797428D02*
X157245700Y-55883142D01*
X157288557Y-54597428D02*
X157888557Y-54597428D01*
X156945700Y-54811713D02*
X157588557Y-55025999D01*
X157588557Y-55025999D02*
X157588557Y-54468856D01*
G36*
X153723207Y-42933822D02*
G01*
X153723207Y-42817318D01*
X153855098Y-42817318D01*
X153855098Y-43161212D01*
X153723207Y-43161212D01*
X153697210Y-43113416D01*
X153664650Y-43070659D01*
X153625525Y-43032938D01*
X153585906Y-43004065D01*
X153579836Y-43000256D01*
X153536603Y-42976654D01*
X153485991Y-42956778D01*
X153434097Y-42944475D01*
X153380921Y-42939743D01*
X153374184Y-42939683D01*
X153322038Y-42942813D01*
X153272823Y-42952201D01*
X153226539Y-42967848D01*
X153183186Y-42989753D01*
X153139018Y-43020912D01*
X153100763Y-43058060D01*
X153068419Y-43101197D01*
X153053005Y-43127750D01*
X153032702Y-43173195D01*
X153018200Y-43221601D01*
X153009499Y-43272968D01*
X153006598Y-43327297D01*
X153008924Y-43377314D01*
X153017278Y-43431356D01*
X153031708Y-43482071D01*
X153052212Y-43529458D01*
X153055203Y-43535147D01*
X153082008Y-43577951D01*
X153113577Y-43615748D01*
X153149908Y-43648537D01*
X153191002Y-43676320D01*
X153236004Y-43698332D01*
X153284058Y-43714055D01*
X153335166Y-43723489D01*
X153389327Y-43726634D01*
X153440952Y-43723652D01*
X153490192Y-43714708D01*
X153537046Y-43699801D01*
X153546131Y-43696103D01*
X153593058Y-43671916D01*
X153634098Y-43641667D01*
X153666298Y-43608909D01*
X153694939Y-43568018D01*
X153715036Y-43523261D01*
X153725894Y-43479216D01*
X153535628Y-43479216D01*
X153535628Y-43348790D01*
X153912739Y-43348790D01*
X153912739Y-43382251D01*
X153910370Y-43436075D01*
X153903260Y-43487272D01*
X153891410Y-43535841D01*
X153871595Y-43589184D01*
X153845328Y-43638951D01*
X153813477Y-43684368D01*
X153776693Y-43724876D01*
X153734978Y-43760476D01*
X153688330Y-43791167D01*
X153659460Y-43806501D01*
X153614016Y-43826256D01*
X153566529Y-43841924D01*
X153516998Y-43853505D01*
X153465424Y-43860998D01*
X153411806Y-43864404D01*
X153393479Y-43864631D01*
X153341904Y-43862991D01*
X153292357Y-43858072D01*
X153235576Y-43847839D01*
X153181715Y-43832884D01*
X153130773Y-43813206D01*
X153098434Y-43797464D01*
X153052976Y-43770313D01*
X153011674Y-43739418D01*
X152974528Y-43704780D01*
X152941538Y-43666397D01*
X152912704Y-43624271D01*
X152904016Y-43609397D01*
X152881024Y-43562694D01*
X152862789Y-43513261D01*
X152849311Y-43461097D01*
X152840590Y-43406202D01*
X152836625Y-43348577D01*
X152836361Y-43328762D01*
X152838740Y-43272826D01*
X152845875Y-43219139D01*
X152857768Y-43167702D01*
X152874417Y-43118515D01*
X152895824Y-43071577D01*
X152904016Y-43056431D01*
X152931182Y-43013232D01*
X152961936Y-42973759D01*
X152996280Y-42938013D01*
X153034213Y-42905993D01*
X153075735Y-42877700D01*
X153090374Y-42869097D01*
X153136086Y-42846188D01*
X153184014Y-42828019D01*
X153234157Y-42814589D01*
X153286516Y-42805899D01*
X153341090Y-42801949D01*
X153359774Y-42801686D01*
X153412042Y-42803751D01*
X153462356Y-42809945D01*
X153510716Y-42820268D01*
X153568418Y-42838978D01*
X153623067Y-42864141D01*
X153674664Y-42895755D01*
X153713743Y-42925692D01*
X153723207Y-42933822D01*
G37*
G36*
X154414942Y-43116610D02*
G01*
X154468188Y-43125080D01*
X154519910Y-43142402D01*
X154561893Y-43167876D01*
X154575126Y-43179530D01*
X154607594Y-43222182D01*
X154627534Y-43270118D01*
X154638095Y-43319802D01*
X154642227Y-43376708D01*
X154642293Y-43385427D01*
X154642293Y-43722482D01*
X154763193Y-43722482D01*
X154763193Y-43849000D01*
X154517240Y-43849000D01*
X154517240Y-43765224D01*
X154477773Y-43799007D01*
X154436675Y-43825800D01*
X154386664Y-43848225D01*
X154334433Y-43861136D01*
X154287896Y-43864631D01*
X154235575Y-43859633D01*
X154186961Y-43844637D01*
X154165775Y-43834345D01*
X154124513Y-43806153D01*
X154088102Y-43768219D01*
X154077115Y-43752768D01*
X154054408Y-43705998D01*
X154044417Y-43655021D01*
X154043898Y-43639683D01*
X154179208Y-43639683D01*
X154189272Y-43687867D01*
X154214868Y-43722482D01*
X154258737Y-43748209D01*
X154306947Y-43755454D01*
X154358391Y-43750173D01*
X154408186Y-43734327D01*
X154456332Y-43707919D01*
X154497108Y-43676146D01*
X154502830Y-43670946D01*
X154502830Y-43589125D01*
X154462225Y-43561907D01*
X154415819Y-43538986D01*
X154363612Y-43523637D01*
X154317206Y-43519272D01*
X154267868Y-43526839D01*
X154222576Y-43551591D01*
X154219997Y-43553710D01*
X154189406Y-43592300D01*
X154179208Y-43639683D01*
X154043898Y-43639683D01*
X154049944Y-43587727D01*
X154068084Y-43540609D01*
X154080534Y-43520493D01*
X154114732Y-43481817D01*
X154157395Y-43451123D01*
X154179941Y-43439648D01*
X154226939Y-43422384D01*
X154278085Y-43412672D01*
X154305726Y-43411316D01*
X154357704Y-43415117D01*
X154407881Y-43426520D01*
X154456256Y-43445526D01*
X154502830Y-43472133D01*
X154502830Y-43393487D01*
X154499324Y-43344676D01*
X154484282Y-43295486D01*
X154466926Y-43270877D01*
X154423406Y-43244229D01*
X154374062Y-43234658D01*
X154349690Y-43233752D01*
X154299608Y-43238528D01*
X154252970Y-43255489D01*
X154213531Y-43287054D01*
X154188734Y-43321435D01*
X154052691Y-43287241D01*
X154081188Y-43241710D01*
X154114746Y-43203212D01*
X154153367Y-43171746D01*
X154177010Y-43157304D01*
X154223449Y-43136524D01*
X154274563Y-43122545D01*
X154323923Y-43115828D01*
X154363367Y-43114317D01*
X154414942Y-43116610D01*
G37*
G36*
X155083884Y-42887660D02*
G01*
X155069596Y-42934692D01*
X155058483Y-42947988D01*
X155014885Y-42971801D01*
X154997910Y-42973389D01*
X154951153Y-42959101D01*
X154938071Y-42947988D01*
X154914944Y-42904528D01*
X154913402Y-42887660D01*
X154927278Y-42840399D01*
X154938071Y-42827087D01*
X154981073Y-42803274D01*
X154997910Y-42801686D01*
X155045904Y-42815562D01*
X155058971Y-42826355D01*
X155082327Y-42870089D01*
X155083884Y-42887660D01*
G37*
G36*
X155185489Y-43722482D02*
G01*
X155185489Y-43849000D01*
X154820590Y-43849000D01*
X154820590Y-43722482D01*
X154933430Y-43722482D01*
X154933430Y-43256955D01*
X154820590Y-43256955D01*
X154820590Y-43129949D01*
X155075580Y-43129949D01*
X155075580Y-43722482D01*
X155185489Y-43722482D01*
G37*
G36*
X155954854Y-43361491D02*
G01*
X155954854Y-43722482D01*
X156075754Y-43722482D01*
X156075754Y-43849000D01*
X155812705Y-43849000D01*
X155812705Y-43369795D01*
X155809480Y-43320639D01*
X155794367Y-43273739D01*
X155793165Y-43271854D01*
X155752081Y-43244413D01*
X155728929Y-43242056D01*
X155680081Y-43247933D01*
X155628301Y-43265564D01*
X155580590Y-43290634D01*
X155537908Y-43319285D01*
X155515949Y-43336090D01*
X155515949Y-43722482D01*
X155640269Y-43722482D01*
X155640269Y-43849000D01*
X155248504Y-43849000D01*
X155248504Y-43722482D01*
X155375754Y-43722482D01*
X155375754Y-43256955D01*
X155248504Y-43256955D01*
X155248504Y-43129949D01*
X155515949Y-43129949D01*
X155515949Y-43211526D01*
X155557007Y-43183521D01*
X155605252Y-43156181D01*
X155652382Y-43135676D01*
X155705955Y-43120393D01*
X155758009Y-43114412D01*
X155765321Y-43114317D01*
X155815747Y-43119070D01*
X155862439Y-43135499D01*
X155902450Y-43167125D01*
X155908448Y-43174401D01*
X155932920Y-43218488D01*
X155947195Y-43269343D01*
X155953721Y-43323435D01*
X155954854Y-43361491D01*
G37*
X139414285Y-88592819D02*
X138842857Y-88592819D01*
X139128571Y-88592819D02*
X139128571Y-87592819D01*
X139128571Y-87592819D02*
X139033333Y-87735676D01*
X139033333Y-87735676D02*
X138938095Y-87830914D01*
X138938095Y-87830914D02*
X138842857Y-87878533D01*
X139842857Y-88592819D02*
X139842857Y-87592819D01*
X139842857Y-87592819D02*
X140176190Y-88307104D01*
X140176190Y-88307104D02*
X140509523Y-87592819D01*
X140509523Y-87592819D02*
X140509523Y-88592819D01*
X149472666Y-75038295D02*
X149015523Y-75038295D01*
X149244095Y-75038295D02*
X149244095Y-74238295D01*
X149244095Y-74238295D02*
X149167904Y-74352580D01*
X149167904Y-74352580D02*
X149091714Y-74428771D01*
X149091714Y-74428771D02*
X149015523Y-74466866D01*
X150158381Y-74504961D02*
X150158381Y-75038295D01*
X149815524Y-74504961D02*
X149815524Y-74924009D01*
X149815524Y-74924009D02*
X149853619Y-75000200D01*
X149853619Y-75000200D02*
X149929809Y-75038295D01*
X149929809Y-75038295D02*
X150044095Y-75038295D01*
X150044095Y-75038295D02*
X150120286Y-75000200D01*
X150120286Y-75000200D02*
X150158381Y-74962104D01*
X121298047Y-49446581D02*
X121298047Y-49979915D01*
X121107571Y-49141820D02*
X120917094Y-49713248D01*
X120917094Y-49713248D02*
X121412333Y-49713248D01*
X121717095Y-49903724D02*
X121755190Y-49941820D01*
X121755190Y-49941820D02*
X121717095Y-49979915D01*
X121717095Y-49979915D02*
X121678999Y-49941820D01*
X121678999Y-49941820D02*
X121717095Y-49903724D01*
X121717095Y-49903724D02*
X121717095Y-49979915D01*
X122021856Y-49179915D02*
X122555190Y-49179915D01*
X122555190Y-49179915D02*
X122212332Y-49979915D01*
X123202809Y-49446581D02*
X123202809Y-49979915D01*
X122859952Y-49446581D02*
X122859952Y-49865629D01*
X122859952Y-49865629D02*
X122898047Y-49941820D01*
X122898047Y-49941820D02*
X122974237Y-49979915D01*
X122974237Y-49979915D02*
X123088523Y-49979915D01*
X123088523Y-49979915D02*
X123164714Y-49941820D01*
X123164714Y-49941820D02*
X123202809Y-49903724D01*
X128771666Y-49638295D02*
X128314523Y-49638295D01*
X128543095Y-49638295D02*
X128543095Y-48838295D01*
X128543095Y-48838295D02*
X128466904Y-48952580D01*
X128466904Y-48952580D02*
X128390714Y-49028771D01*
X128390714Y-49028771D02*
X128314523Y-49066866D01*
X129457381Y-49104961D02*
X129457381Y-49638295D01*
X129114524Y-49104961D02*
X129114524Y-49524009D01*
X129114524Y-49524009D02*
X129152619Y-49600200D01*
X129152619Y-49600200D02*
X129228809Y-49638295D01*
X129228809Y-49638295D02*
X129343095Y-49638295D01*
X129343095Y-49638295D02*
X129419286Y-49600200D01*
X129419286Y-49600200D02*
X129457381Y-49562104D01*
G36*
X137175698Y-95508380D02*
G01*
X137232072Y-95514883D01*
X137285870Y-95526263D01*
X137337093Y-95542520D01*
X137385739Y-95563655D01*
X137409096Y-95576051D01*
X137453309Y-95603766D01*
X137493623Y-95635070D01*
X137530039Y-95669963D01*
X137562557Y-95708446D01*
X137591176Y-95750518D01*
X137599850Y-95765339D01*
X137622842Y-95811433D01*
X137641077Y-95859587D01*
X137654555Y-95909801D01*
X137663277Y-95962077D01*
X137667241Y-96016413D01*
X137667505Y-96034983D01*
X137665049Y-96092657D01*
X137657682Y-96147892D01*
X137645403Y-96200689D01*
X137628213Y-96251047D01*
X137606110Y-96298966D01*
X137597652Y-96314397D01*
X137569668Y-96358244D01*
X137537923Y-96398192D01*
X137502417Y-96434241D01*
X137463150Y-96466393D01*
X137420122Y-96494646D01*
X137404944Y-96503197D01*
X137357689Y-96525774D01*
X137308064Y-96543680D01*
X137256068Y-96556915D01*
X137201703Y-96565479D01*
X137144969Y-96569372D01*
X137125530Y-96569631D01*
X137068755Y-96567201D01*
X137014384Y-96559911D01*
X136962418Y-96547761D01*
X136912856Y-96530751D01*
X136865698Y-96508880D01*
X136850513Y-96500510D01*
X136807322Y-96472627D01*
X136767875Y-96440999D01*
X136732171Y-96405628D01*
X136700212Y-96366513D01*
X136671996Y-96323654D01*
X136663423Y-96308535D01*
X136640680Y-96261466D01*
X136622642Y-96212216D01*
X136609310Y-96160785D01*
X136600683Y-96107172D01*
X136596762Y-96051379D01*
X136596520Y-96033762D01*
X136766737Y-96033762D01*
X136768853Y-96083208D01*
X136776451Y-96136770D01*
X136789575Y-96187187D01*
X136808226Y-96234459D01*
X136810945Y-96240147D01*
X136835583Y-96282951D01*
X136869067Y-96325120D01*
X136908656Y-96360952D01*
X136938440Y-96381320D01*
X136987395Y-96405642D01*
X137034446Y-96420579D01*
X137084825Y-96429226D01*
X137131636Y-96431634D01*
X137183462Y-96428184D01*
X137232448Y-96417834D01*
X137278594Y-96400584D01*
X137321901Y-96376435D01*
X137361408Y-96346576D01*
X137396151Y-96312199D01*
X137426132Y-96273303D01*
X137451350Y-96229889D01*
X137471332Y-96183453D01*
X137485605Y-96135489D01*
X137494169Y-96086000D01*
X137497024Y-96034983D01*
X137493986Y-95983189D01*
X137484872Y-95933317D01*
X137469684Y-95885369D01*
X137448419Y-95839345D01*
X137421934Y-95796557D01*
X137390839Y-95758562D01*
X137350346Y-95721547D01*
X137314818Y-95696951D01*
X137270931Y-95674084D01*
X137224265Y-95657750D01*
X137174821Y-95647950D01*
X137122599Y-95644683D01*
X137071583Y-95647859D01*
X137023559Y-95657384D01*
X136973108Y-95675691D01*
X136936486Y-95695486D01*
X136893772Y-95727115D01*
X136856854Y-95764849D01*
X136825731Y-95808688D01*
X136810945Y-95835681D01*
X136791604Y-95881492D01*
X136777789Y-95929776D01*
X136769500Y-95980533D01*
X136766737Y-96033762D01*
X136596520Y-96033762D01*
X136596500Y-96032297D01*
X136598904Y-95976386D01*
X136606117Y-95922777D01*
X136618139Y-95871469D01*
X136634968Y-95822462D01*
X136656607Y-95775756D01*
X136664888Y-95760699D01*
X136692354Y-95717748D01*
X136723461Y-95678473D01*
X136758208Y-95642873D01*
X136796596Y-95610947D01*
X136838625Y-95582697D01*
X136853444Y-95574097D01*
X136899666Y-95551188D01*
X136948206Y-95533019D01*
X136999065Y-95519589D01*
X137052242Y-95510899D01*
X137107738Y-95506949D01*
X137126751Y-95506686D01*
X137175698Y-95508380D01*
G37*
G36*
X138108119Y-96446044D02*
G01*
X138156861Y-96440243D01*
X138207587Y-96422841D01*
X138253600Y-96398097D01*
X138294250Y-96369818D01*
X138314993Y-96353232D01*
X138314993Y-95961955D01*
X138187254Y-95961955D01*
X138187254Y-95834949D01*
X138457142Y-95834949D01*
X138457142Y-96427482D01*
X138580729Y-96427482D01*
X138580729Y-96554000D01*
X138314993Y-96554000D01*
X138314993Y-96474132D01*
X138268536Y-96506587D01*
X138222955Y-96532327D01*
X138170885Y-96553870D01*
X138120006Y-96566274D01*
X138077345Y-96569631D01*
X138024384Y-96564859D01*
X137975373Y-96548363D01*
X137933418Y-96516608D01*
X137927135Y-96509303D01*
X137901633Y-96463646D01*
X137888032Y-96415889D01*
X137881089Y-96365912D01*
X137878822Y-96316991D01*
X137878775Y-96308291D01*
X137878775Y-95961955D01*
X137777659Y-95961955D01*
X137777659Y-95834949D01*
X138020924Y-95834949D01*
X138020924Y-96338089D01*
X138026646Y-96388916D01*
X138041197Y-96419910D01*
X138083965Y-96443977D01*
X138108119Y-96446044D01*
G37*
G36*
X139022320Y-95834949D02*
G01*
X139022320Y-95961955D01*
X138890429Y-95961955D01*
X138890429Y-96340775D01*
X138894013Y-96391858D01*
X138903130Y-96417468D01*
X138946849Y-96435053D01*
X138996322Y-96429478D01*
X139022320Y-96422108D01*
X139022320Y-96550336D01*
X138972932Y-96562829D01*
X138923656Y-96569461D01*
X138915830Y-96569631D01*
X138864978Y-96565242D01*
X138816801Y-96548390D01*
X138787359Y-96524690D01*
X138763545Y-96481803D01*
X138752096Y-96432315D01*
X138748318Y-96377090D01*
X138748280Y-96370329D01*
X138748280Y-95961955D01*
X138654002Y-95961955D01*
X138654002Y-95834949D01*
X138748280Y-95834949D01*
X138748280Y-95727726D01*
X138890429Y-95600475D01*
X138890429Y-95834949D01*
X139022320Y-95834949D01*
G37*
X148034523Y-58509819D02*
X147558333Y-58509819D01*
X147558333Y-58509819D02*
X147510714Y-58986009D01*
X147510714Y-58986009D02*
X147558333Y-58938390D01*
X147558333Y-58938390D02*
X147653571Y-58890771D01*
X147653571Y-58890771D02*
X147891666Y-58890771D01*
X147891666Y-58890771D02*
X147986904Y-58938390D01*
X147986904Y-58938390D02*
X148034523Y-58986009D01*
X148034523Y-58986009D02*
X148082142Y-59081247D01*
X148082142Y-59081247D02*
X148082142Y-59319342D01*
X148082142Y-59319342D02*
X148034523Y-59414580D01*
X148034523Y-59414580D02*
X147986904Y-59462200D01*
X147986904Y-59462200D02*
X147891666Y-59509819D01*
X147891666Y-59509819D02*
X147653571Y-59509819D01*
X147653571Y-59509819D02*
X147558333Y-59462200D01*
X147558333Y-59462200D02*
X147510714Y-59414580D01*
X148939285Y-58843152D02*
X148939285Y-59509819D01*
X148701190Y-58462200D02*
X148463095Y-59176485D01*
X148463095Y-59176485D02*
X149082142Y-59176485D01*
X149939285Y-58509819D02*
X149463095Y-58509819D01*
X149463095Y-58509819D02*
X149415476Y-58986009D01*
X149415476Y-58986009D02*
X149463095Y-58938390D01*
X149463095Y-58938390D02*
X149558333Y-58890771D01*
X149558333Y-58890771D02*
X149796428Y-58890771D01*
X149796428Y-58890771D02*
X149891666Y-58938390D01*
X149891666Y-58938390D02*
X149939285Y-58986009D01*
X149939285Y-58986009D02*
X149986904Y-59081247D01*
X149986904Y-59081247D02*
X149986904Y-59319342D01*
X149986904Y-59319342D02*
X149939285Y-59414580D01*
X149939285Y-59414580D02*
X149891666Y-59462200D01*
X149891666Y-59462200D02*
X149796428Y-59509819D01*
X149796428Y-59509819D02*
X149558333Y-59509819D01*
X149558333Y-59509819D02*
X149463095Y-59462200D01*
X149463095Y-59462200D02*
X149415476Y-59414580D01*
X150558333Y-58938390D02*
X150463095Y-58890771D01*
X150463095Y-58890771D02*
X150415476Y-58843152D01*
X150415476Y-58843152D02*
X150367857Y-58747914D01*
X150367857Y-58747914D02*
X150367857Y-58700295D01*
X150367857Y-58700295D02*
X150415476Y-58605057D01*
X150415476Y-58605057D02*
X150463095Y-58557438D01*
X150463095Y-58557438D02*
X150558333Y-58509819D01*
X150558333Y-58509819D02*
X150748809Y-58509819D01*
X150748809Y-58509819D02*
X150844047Y-58557438D01*
X150844047Y-58557438D02*
X150891666Y-58605057D01*
X150891666Y-58605057D02*
X150939285Y-58700295D01*
X150939285Y-58700295D02*
X150939285Y-58747914D01*
X150939285Y-58747914D02*
X150891666Y-58843152D01*
X150891666Y-58843152D02*
X150844047Y-58890771D01*
X150844047Y-58890771D02*
X150748809Y-58938390D01*
X150748809Y-58938390D02*
X150558333Y-58938390D01*
X150558333Y-58938390D02*
X150463095Y-58986009D01*
X150463095Y-58986009D02*
X150415476Y-59033628D01*
X150415476Y-59033628D02*
X150367857Y-59128866D01*
X150367857Y-59128866D02*
X150367857Y-59319342D01*
X150367857Y-59319342D02*
X150415476Y-59414580D01*
X150415476Y-59414580D02*
X150463095Y-59462200D01*
X150463095Y-59462200D02*
X150558333Y-59509819D01*
X150558333Y-59509819D02*
X150748809Y-59509819D01*
X150748809Y-59509819D02*
X150844047Y-59462200D01*
X150844047Y-59462200D02*
X150891666Y-59414580D01*
X150891666Y-59414580D02*
X150939285Y-59319342D01*
X150939285Y-59319342D02*
X150939285Y-59128866D01*
X150939285Y-59128866D02*
X150891666Y-59033628D01*
X150891666Y-59033628D02*
X150844047Y-58986009D01*
X150844047Y-58986009D02*
X150748809Y-58938390D01*
X121012095Y-63861105D02*
X121050191Y-63823010D01*
X121050191Y-63823010D02*
X121126381Y-63784915D01*
X121126381Y-63784915D02*
X121316857Y-63784915D01*
X121316857Y-63784915D02*
X121393048Y-63823010D01*
X121393048Y-63823010D02*
X121431143Y-63861105D01*
X121431143Y-63861105D02*
X121469238Y-63937296D01*
X121469238Y-63937296D02*
X121469238Y-64013486D01*
X121469238Y-64013486D02*
X121431143Y-64127772D01*
X121431143Y-64127772D02*
X120974000Y-64584915D01*
X120974000Y-64584915D02*
X121469238Y-64584915D01*
X121812096Y-64508724D02*
X121850191Y-64546820D01*
X121850191Y-64546820D02*
X121812096Y-64584915D01*
X121812096Y-64584915D02*
X121774000Y-64546820D01*
X121774000Y-64546820D02*
X121812096Y-64508724D01*
X121812096Y-64508724D02*
X121812096Y-64584915D01*
X122154952Y-63861105D02*
X122193048Y-63823010D01*
X122193048Y-63823010D02*
X122269238Y-63784915D01*
X122269238Y-63784915D02*
X122459714Y-63784915D01*
X122459714Y-63784915D02*
X122535905Y-63823010D01*
X122535905Y-63823010D02*
X122574000Y-63861105D01*
X122574000Y-63861105D02*
X122612095Y-63937296D01*
X122612095Y-63937296D02*
X122612095Y-64013486D01*
X122612095Y-64013486D02*
X122574000Y-64127772D01*
X122574000Y-64127772D02*
X122116857Y-64584915D01*
X122116857Y-64584915D02*
X122612095Y-64584915D01*
X123297810Y-64051581D02*
X123297810Y-64584915D01*
X122954953Y-64051581D02*
X122954953Y-64470629D01*
X122954953Y-64470629D02*
X122993048Y-64546820D01*
X122993048Y-64546820D02*
X123069238Y-64584915D01*
X123069238Y-64584915D02*
X123183524Y-64584915D01*
X123183524Y-64584915D02*
X123259715Y-64546820D01*
X123259715Y-64546820D02*
X123297810Y-64508724D01*
D12*
%TO.C,1K*%
X140050000Y-52690000D02*
X140050000Y-56530000D01*
X140050000Y-56530000D02*
X141890000Y-56530000D01*
X140970000Y-51740000D02*
X140970000Y-52690000D01*
X140970000Y-57480000D02*
X140970000Y-56530000D01*
X141890000Y-52690000D02*
X140050000Y-52690000D01*
X141890000Y-56530000D02*
X141890000Y-52690000D01*
%TO.C,22n*%
X149990000Y-65120000D02*
X149990000Y-61880000D01*
X157430000Y-61880000D02*
X149990000Y-61880000D01*
X157430000Y-65120000D02*
X149990000Y-65120000D01*
X157430000Y-65120000D02*
X157430000Y-61880000D01*
%TO.C,3.3n*%
X149950000Y-69057000D02*
X149950000Y-65817000D01*
X157390000Y-65817000D02*
X149950000Y-65817000D01*
X157390000Y-69057000D02*
X149950000Y-69057000D01*
X157390000Y-69057000D02*
X157390000Y-65817000D01*
%TO.C,100K*%
X136830000Y-85725000D02*
X137780000Y-85725000D01*
X137780000Y-84805000D02*
X137780000Y-86645000D01*
X137780000Y-86645000D02*
X141620000Y-86645000D01*
X141620000Y-84805000D02*
X137780000Y-84805000D01*
X141620000Y-86645000D02*
X141620000Y-84805000D01*
X142570000Y-85725000D02*
X141620000Y-85725000D01*
%TO.C,33p*%
X131590000Y-64307000D02*
X131835000Y-64307000D01*
X131590000Y-67947000D02*
X131590000Y-64307000D01*
X131590000Y-67947000D02*
X131835000Y-67947000D01*
X133685000Y-64307000D02*
X133930000Y-64307000D01*
X133685000Y-67947000D02*
X133930000Y-67947000D01*
X133930000Y-67947000D02*
X133930000Y-64307000D01*
%TO.C,5817*%
X149295000Y-87630000D02*
X150315000Y-87630000D01*
X150315000Y-86160000D02*
X150315000Y-89100000D01*
X150315000Y-89100000D02*
X155755000Y-89100000D01*
X154735000Y-89100000D02*
X154735000Y-86160000D01*
X154855000Y-89100000D02*
X154855000Y-86160000D01*
X154975000Y-89100000D02*
X154975000Y-86160000D01*
X155755000Y-86160000D02*
X150315000Y-86160000D01*
X155755000Y-89100000D02*
X155755000Y-86160000D01*
X156775000Y-87630000D02*
X155755000Y-87630000D01*
%TO.C,1M*%
X136830000Y-80772000D02*
X137780000Y-80772000D01*
X137780000Y-79852000D02*
X137780000Y-81692000D01*
X137780000Y-81692000D02*
X141620000Y-81692000D01*
X141620000Y-79852000D02*
X137780000Y-79852000D01*
X141620000Y-81692000D02*
X141620000Y-79852000D01*
X142570000Y-80772000D02*
X141620000Y-80772000D01*
%TO.C,Volume*%
X135740000Y-44520000D02*
X135740000Y-46920000D01*
X135740000Y-44520000D02*
X143740000Y-44520000D01*
X143740000Y-46920000D02*
X135740000Y-46920000D01*
X143740000Y-46920000D02*
X143740000Y-44520000D01*
%TO.C,100u*%
X154047380Y-77028000D02*
X154677380Y-77028000D01*
X154362380Y-76713000D02*
X154362380Y-77343000D01*
X157547621Y-75637000D02*
X157547621Y-82097000D01*
X157587621Y-75637000D02*
X157587621Y-82097000D01*
X157627621Y-75637000D02*
X157627621Y-82097000D01*
X157667621Y-75639000D02*
X157667621Y-82095000D01*
X157707621Y-75640000D02*
X157707621Y-82094000D01*
X157747621Y-75643000D02*
X157747621Y-82091000D01*
X157787621Y-75645000D02*
X157787621Y-77827000D01*
X157787621Y-79907000D02*
X157787621Y-82089000D01*
X157827621Y-75649000D02*
X157827621Y-77827000D01*
X157827621Y-79907000D02*
X157827621Y-82085000D01*
X157867621Y-75652000D02*
X157867621Y-77827000D01*
X157867621Y-79907000D02*
X157867621Y-82082000D01*
X157907621Y-75656000D02*
X157907621Y-77827000D01*
X157907621Y-79907000D02*
X157907621Y-82078000D01*
X157947621Y-75661000D02*
X157947621Y-77827000D01*
X157947621Y-79907000D02*
X157947621Y-82073000D01*
X157987621Y-75666000D02*
X157987621Y-77827000D01*
X157987621Y-79907000D02*
X157987621Y-82068000D01*
X158027621Y-75672000D02*
X158027621Y-77827000D01*
X158027621Y-79907000D02*
X158027621Y-82062000D01*
X158067621Y-75678000D02*
X158067621Y-77827000D01*
X158067621Y-79907000D02*
X158067621Y-82056000D01*
X158107621Y-75685000D02*
X158107621Y-77827000D01*
X158107621Y-79907000D02*
X158107621Y-82049000D01*
X158147621Y-75692000D02*
X158147621Y-77827000D01*
X158147621Y-79907000D02*
X158147621Y-82042000D01*
X158187621Y-75700000D02*
X158187621Y-77827000D01*
X158187621Y-79907000D02*
X158187621Y-82034000D01*
X158227621Y-75708000D02*
X158227621Y-77827000D01*
X158227621Y-79907000D02*
X158227621Y-82026000D01*
X158268621Y-75717000D02*
X158268621Y-77827000D01*
X158268621Y-79907000D02*
X158268621Y-82017000D01*
X158308621Y-75726000D02*
X158308621Y-77827000D01*
X158308621Y-79907000D02*
X158308621Y-82008000D01*
X158348621Y-75736000D02*
X158348621Y-77827000D01*
X158348621Y-79907000D02*
X158348621Y-81998000D01*
X158388621Y-75746000D02*
X158388621Y-77827000D01*
X158388621Y-79907000D02*
X158388621Y-81988000D01*
X158428621Y-75757000D02*
X158428621Y-77827000D01*
X158428621Y-79907000D02*
X158428621Y-81977000D01*
X158468621Y-75769000D02*
X158468621Y-77827000D01*
X158468621Y-79907000D02*
X158468621Y-81965000D01*
X158508621Y-75781000D02*
X158508621Y-77827000D01*
X158508621Y-79907000D02*
X158508621Y-81953000D01*
X158548621Y-75793000D02*
X158548621Y-77827000D01*
X158548621Y-79907000D02*
X158548621Y-81941000D01*
X158588621Y-75806000D02*
X158588621Y-77827000D01*
X158588621Y-79907000D02*
X158588621Y-81928000D01*
X158628621Y-75820000D02*
X158628621Y-77827000D01*
X158628621Y-79907000D02*
X158628621Y-81914000D01*
X158668621Y-75834000D02*
X158668621Y-77827000D01*
X158668621Y-79907000D02*
X158668621Y-81900000D01*
X158708621Y-75849000D02*
X158708621Y-77827000D01*
X158708621Y-79907000D02*
X158708621Y-81885000D01*
X158748621Y-75865000D02*
X158748621Y-77827000D01*
X158748621Y-79907000D02*
X158748621Y-81869000D01*
X158788621Y-75881000D02*
X158788621Y-77827000D01*
X158788621Y-79907000D02*
X158788621Y-81853000D01*
X158828621Y-75897000D02*
X158828621Y-77827000D01*
X158828621Y-79907000D02*
X158828621Y-81837000D01*
X158868621Y-75915000D02*
X158868621Y-77827000D01*
X158868621Y-79907000D02*
X158868621Y-81819000D01*
X158908621Y-75933000D02*
X158908621Y-77827000D01*
X158908621Y-79907000D02*
X158908621Y-81801000D01*
X158948621Y-75951000D02*
X158948621Y-77827000D01*
X158948621Y-79907000D02*
X158948621Y-81783000D01*
X158988621Y-75971000D02*
X158988621Y-77827000D01*
X158988621Y-79907000D02*
X158988621Y-81763000D01*
X159028621Y-75991000D02*
X159028621Y-77827000D01*
X159028621Y-79907000D02*
X159028621Y-81743000D01*
X159068621Y-76011000D02*
X159068621Y-77827000D01*
X159068621Y-79907000D02*
X159068621Y-81723000D01*
X159108621Y-76033000D02*
X159108621Y-77827000D01*
X159108621Y-79907000D02*
X159108621Y-81701000D01*
X159148621Y-76055000D02*
X159148621Y-77827000D01*
X159148621Y-79907000D02*
X159148621Y-81679000D01*
X159188621Y-76077000D02*
X159188621Y-77827000D01*
X159188621Y-79907000D02*
X159188621Y-81657000D01*
X159228621Y-76101000D02*
X159228621Y-77827000D01*
X159228621Y-79907000D02*
X159228621Y-81633000D01*
X159268621Y-76125000D02*
X159268621Y-77827000D01*
X159268621Y-79907000D02*
X159268621Y-81609000D01*
X159308621Y-76151000D02*
X159308621Y-77827000D01*
X159308621Y-79907000D02*
X159308621Y-81583000D01*
X159348621Y-76177000D02*
X159348621Y-77827000D01*
X159348621Y-79907000D02*
X159348621Y-81557000D01*
X159388621Y-76203000D02*
X159388621Y-77827000D01*
X159388621Y-79907000D02*
X159388621Y-81531000D01*
X159428621Y-76231000D02*
X159428621Y-77827000D01*
X159428621Y-79907000D02*
X159428621Y-81503000D01*
X159468621Y-76260000D02*
X159468621Y-77827000D01*
X159468621Y-79907000D02*
X159468621Y-81474000D01*
X159508621Y-76289000D02*
X159508621Y-77827000D01*
X159508621Y-79907000D02*
X159508621Y-81445000D01*
X159548621Y-76319000D02*
X159548621Y-77827000D01*
X159548621Y-79907000D02*
X159548621Y-81415000D01*
X159588621Y-76351000D02*
X159588621Y-77827000D01*
X159588621Y-79907000D02*
X159588621Y-81383000D01*
X159628621Y-76383000D02*
X159628621Y-77827000D01*
X159628621Y-79907000D02*
X159628621Y-81351000D01*
X159668621Y-76417000D02*
X159668621Y-77827000D01*
X159668621Y-79907000D02*
X159668621Y-81317000D01*
X159708621Y-76451000D02*
X159708621Y-77827000D01*
X159708621Y-79907000D02*
X159708621Y-81283000D01*
X159748621Y-76487000D02*
X159748621Y-77827000D01*
X159748621Y-79907000D02*
X159748621Y-81247000D01*
X159788621Y-76524000D02*
X159788621Y-77827000D01*
X159788621Y-79907000D02*
X159788621Y-81210000D01*
X159828621Y-76562000D02*
X159828621Y-77827000D01*
X159828621Y-79907000D02*
X159828621Y-81172000D01*
X159868621Y-76602000D02*
X159868621Y-81132000D01*
X159908621Y-76643000D02*
X159908621Y-81091000D01*
X159948621Y-76685000D02*
X159948621Y-81049000D01*
X159988621Y-76730000D02*
X159988621Y-81004000D01*
X160028621Y-76775000D02*
X160028621Y-80959000D01*
X160068621Y-76823000D02*
X160068621Y-80911000D01*
X160108621Y-76872000D02*
X160108621Y-80862000D01*
X160148621Y-76923000D02*
X160148621Y-80811000D01*
X160188621Y-76977000D02*
X160188621Y-80757000D01*
X160228621Y-77033000D02*
X160228621Y-80701000D01*
X160268621Y-77091000D02*
X160268621Y-80643000D01*
X160308621Y-77153000D02*
X160308621Y-80581000D01*
X160348621Y-77217000D02*
X160348621Y-80517000D01*
X160388621Y-77286000D02*
X160388621Y-80448000D01*
X160428621Y-77358000D02*
X160428621Y-80376000D01*
X160468621Y-77435000D02*
X160468621Y-80299000D01*
X160508621Y-77517000D02*
X160508621Y-80217000D01*
X160548621Y-77605000D02*
X160548621Y-80129000D01*
X160588621Y-77702000D02*
X160588621Y-80032000D01*
X160628621Y-77808000D02*
X160628621Y-79926000D01*
X160668621Y-77927000D02*
X160668621Y-79807000D01*
X160708621Y-78065000D02*
X160708621Y-79669000D01*
X160748621Y-78234000D02*
X160748621Y-79500000D01*
X160788621Y-78465000D02*
X160788621Y-79269000D01*
X160817621Y-78867000D02*
G75*
G02*
X154277621Y-78867000I-3270000J0D01*
G01*
X154277621Y-78867000D02*
G75*
G02*
X160817621Y-78867000I3270000J0D01*
G01*
%TO.C,1.5K*%
X142590000Y-52690000D02*
X142590000Y-56530000D01*
X142590000Y-56530000D02*
X144430000Y-56530000D01*
X143510000Y-51740000D02*
X143510000Y-52690000D01*
X143510000Y-57480000D02*
X143510000Y-56530000D01*
X144430000Y-52690000D02*
X142590000Y-52690000D01*
X144430000Y-56530000D02*
X144430000Y-52690000D01*
%TO.C,9V*%
X142555000Y-98171000D02*
G75*
G02*
X140655000Y-98171000I-950000J0D01*
G01*
X140655000Y-98171000D02*
G75*
G02*
X142555000Y-98171000I950000J0D01*
G01*
%TO.C,22n*%
X131575000Y-93695000D02*
X131575000Y-90455000D01*
X139015000Y-90455000D02*
X131575000Y-90455000D01*
X139015000Y-93695000D02*
X131575000Y-93695000D01*
X139015000Y-93695000D02*
X139015000Y-90455000D01*
%TO.C,100n*%
X140385000Y-90455000D02*
X140385000Y-93695000D01*
X140385000Y-90455000D02*
X147825000Y-90455000D01*
X140385000Y-93695000D02*
X147825000Y-93695000D01*
X147825000Y-90455000D02*
X147825000Y-93695000D01*
%TO.C,OP07*%
X134500000Y-61154000D02*
X134500000Y-71434000D01*
X134500000Y-71434000D02*
X144900000Y-71434000D01*
X134560000Y-63644000D02*
X134560000Y-65294000D01*
X134560000Y-67294000D02*
X134560000Y-68944000D01*
X134560000Y-68944000D02*
X144840000Y-68944000D01*
X144840000Y-63644000D02*
X134560000Y-63644000D01*
X144840000Y-68944000D02*
X144840000Y-63644000D01*
X144900000Y-61154000D02*
X134500000Y-61154000D01*
X144900000Y-71434000D02*
X144900000Y-61154000D01*
X134560000Y-65294000D02*
G75*
G02*
X134560000Y-67294000I0J-1000000D01*
G01*
%TO.C,1n*%
X149950000Y-72994000D02*
X149950000Y-69754000D01*
X157390000Y-69754000D02*
X149950000Y-69754000D01*
X157390000Y-72994000D02*
X149950000Y-72994000D01*
X157390000Y-72994000D02*
X157390000Y-69754000D01*
%TO.C,Tone*%
X121135000Y-44520000D02*
X121135000Y-46920000D01*
X121135000Y-44520000D02*
X129135000Y-44520000D01*
X129135000Y-46920000D02*
X121135000Y-46920000D01*
X129135000Y-46920000D02*
X129135000Y-44520000D01*
%TO.C,4.7u*%
X126325000Y-60555000D02*
X127865000Y-60555000D01*
X126325000Y-60595000D02*
X127865000Y-60595000D01*
X126326000Y-60515000D02*
X127865000Y-60515000D01*
X126327000Y-60475000D02*
X127865000Y-60475000D01*
X126329000Y-60435000D02*
X127865000Y-60435000D01*
X126332000Y-60395000D02*
X127865000Y-60395000D01*
X126336000Y-60355000D02*
X127865000Y-60355000D01*
X126340000Y-60315000D02*
X127865000Y-60315000D01*
X126344000Y-60275000D02*
X127865000Y-60275000D01*
X126349000Y-60235000D02*
X127865000Y-60235000D01*
X126355000Y-60195000D02*
X127865000Y-60195000D01*
X126362000Y-60155000D02*
X127865000Y-60155000D01*
X126369000Y-60115000D02*
X127865000Y-60115000D01*
X126377000Y-60075000D02*
X127865000Y-60075000D01*
X126385000Y-60035000D02*
X127865000Y-60035000D01*
X126394000Y-59995000D02*
X127865000Y-59995000D01*
X126404000Y-59955000D02*
X127865000Y-59955000D01*
X126414000Y-59915000D02*
X127865000Y-59915000D01*
X126425000Y-59874000D02*
X127865000Y-59874000D01*
X126437000Y-59834000D02*
X127865000Y-59834000D01*
X126450000Y-59794000D02*
X127865000Y-59794000D01*
X126463000Y-59754000D02*
X127865000Y-59754000D01*
X126477000Y-59714000D02*
X127865000Y-59714000D01*
X126491000Y-59674000D02*
X127865000Y-59674000D01*
X126507000Y-59634000D02*
X127865000Y-59634000D01*
X126523000Y-59594000D02*
X127865000Y-59594000D01*
X126540000Y-59554000D02*
X127865000Y-59554000D01*
X126557000Y-59514000D02*
X127865000Y-59514000D01*
X126576000Y-59474000D02*
X127865000Y-59474000D01*
X126595000Y-59434000D02*
X127865000Y-59434000D01*
X126615000Y-59394000D02*
X127865000Y-59394000D01*
X126637000Y-59354000D02*
X127865000Y-59354000D01*
X126658000Y-59314000D02*
X127865000Y-59314000D01*
X126681000Y-59274000D02*
X127865000Y-59274000D01*
X126705000Y-59234000D02*
X127865000Y-59234000D01*
X126730000Y-59194000D02*
X127865000Y-59194000D01*
X126756000Y-59154000D02*
X127865000Y-59154000D01*
X126783000Y-59114000D02*
X127865000Y-59114000D01*
X126810000Y-59074000D02*
X127865000Y-59074000D01*
X126840000Y-59034000D02*
X127865000Y-59034000D01*
X126870000Y-58994000D02*
X127865000Y-58994000D01*
X126901000Y-58954000D02*
X127865000Y-58954000D01*
X126934000Y-58914000D02*
X127865000Y-58914000D01*
X126968000Y-58874000D02*
X127865000Y-58874000D01*
X127004000Y-58834000D02*
X127865000Y-58834000D01*
X127041000Y-58794000D02*
X127865000Y-58794000D01*
X127079000Y-58754000D02*
X127865000Y-58754000D01*
X127120000Y-58714000D02*
X127865000Y-58714000D01*
X127162000Y-58674000D02*
X127865000Y-58674000D01*
X127180000Y-63149775D02*
X127680000Y-63149775D01*
X127206000Y-58634000D02*
X127865000Y-58634000D01*
X127252000Y-58594000D02*
X127865000Y-58594000D01*
X127300000Y-58554000D02*
X130510000Y-58554000D01*
X127351000Y-58514000D02*
X130459000Y-58514000D01*
X127405000Y-58474000D02*
X130405000Y-58474000D01*
X127430000Y-63399775D02*
X127430000Y-62899775D01*
X127462000Y-58434000D02*
X130348000Y-58434000D01*
X127522000Y-58394000D02*
X130288000Y-58394000D01*
X127586000Y-58354000D02*
X130224000Y-58354000D01*
X127654000Y-58314000D02*
X130156000Y-58314000D01*
X127727000Y-58274000D02*
X130083000Y-58274000D01*
X127807000Y-58234000D02*
X130003000Y-58234000D01*
X127894000Y-58194000D02*
X129916000Y-58194000D01*
X127990000Y-58154000D02*
X129820000Y-58154000D01*
X128100000Y-58114000D02*
X129710000Y-58114000D01*
X128228000Y-58074000D02*
X129582000Y-58074000D01*
X128387000Y-58034000D02*
X129423000Y-58034000D01*
X128621000Y-57994000D02*
X129189000Y-57994000D01*
X129945000Y-58594000D02*
X130558000Y-58594000D01*
X129945000Y-58634000D02*
X130604000Y-58634000D01*
X129945000Y-58674000D02*
X130648000Y-58674000D01*
X129945000Y-58714000D02*
X130690000Y-58714000D01*
X129945000Y-58754000D02*
X130731000Y-58754000D01*
X129945000Y-58794000D02*
X130769000Y-58794000D01*
X129945000Y-58834000D02*
X130806000Y-58834000D01*
X129945000Y-58874000D02*
X130842000Y-58874000D01*
X129945000Y-58914000D02*
X130876000Y-58914000D01*
X129945000Y-58954000D02*
X130909000Y-58954000D01*
X129945000Y-58994000D02*
X130940000Y-58994000D01*
X129945000Y-59034000D02*
X130970000Y-59034000D01*
X129945000Y-59074000D02*
X131000000Y-59074000D01*
X129945000Y-59114000D02*
X131027000Y-59114000D01*
X129945000Y-59154000D02*
X131054000Y-59154000D01*
X129945000Y-59194000D02*
X131080000Y-59194000D01*
X129945000Y-59234000D02*
X131105000Y-59234000D01*
X129945000Y-59274000D02*
X131129000Y-59274000D01*
X129945000Y-59314000D02*
X131152000Y-59314000D01*
X129945000Y-59354000D02*
X131173000Y-59354000D01*
X129945000Y-59394000D02*
X131195000Y-59394000D01*
X129945000Y-59434000D02*
X131215000Y-59434000D01*
X129945000Y-59474000D02*
X131234000Y-59474000D01*
X129945000Y-59514000D02*
X131253000Y-59514000D01*
X129945000Y-59554000D02*
X131270000Y-59554000D01*
X129945000Y-59594000D02*
X131287000Y-59594000D01*
X129945000Y-59634000D02*
X131303000Y-59634000D01*
X129945000Y-59674000D02*
X131319000Y-59674000D01*
X129945000Y-59714000D02*
X131333000Y-59714000D01*
X129945000Y-59754000D02*
X131347000Y-59754000D01*
X129945000Y-59794000D02*
X131360000Y-59794000D01*
X129945000Y-59834000D02*
X131373000Y-59834000D01*
X129945000Y-59874000D02*
X131385000Y-59874000D01*
X129945000Y-59915000D02*
X131396000Y-59915000D01*
X129945000Y-59955000D02*
X131406000Y-59955000D01*
X129945000Y-59995000D02*
X131416000Y-59995000D01*
X129945000Y-60035000D02*
X131425000Y-60035000D01*
X129945000Y-60075000D02*
X131433000Y-60075000D01*
X129945000Y-60115000D02*
X131441000Y-60115000D01*
X129945000Y-60155000D02*
X131448000Y-60155000D01*
X129945000Y-60195000D02*
X131455000Y-60195000D01*
X129945000Y-60235000D02*
X131461000Y-60235000D01*
X129945000Y-60275000D02*
X131466000Y-60275000D01*
X129945000Y-60315000D02*
X131470000Y-60315000D01*
X129945000Y-60355000D02*
X131474000Y-60355000D01*
X129945000Y-60395000D02*
X131478000Y-60395000D01*
X129945000Y-60435000D02*
X131481000Y-60435000D01*
X129945000Y-60475000D02*
X131483000Y-60475000D01*
X129945000Y-60515000D02*
X131484000Y-60515000D01*
X129945000Y-60555000D02*
X131485000Y-60555000D01*
X129945000Y-60595000D02*
X131485000Y-60595000D01*
X131525000Y-60595000D02*
G75*
G02*
X126285000Y-60595000I-2620000J0D01*
G01*
X126285000Y-60595000D02*
G75*
G02*
X131525000Y-60595000I2620000J0D01*
G01*
%TO.C,510R*%
X136830000Y-75946000D02*
X137780000Y-75946000D01*
X137780000Y-75026000D02*
X137780000Y-76866000D01*
X137780000Y-76866000D02*
X141620000Y-76866000D01*
X141620000Y-75026000D02*
X137780000Y-75026000D01*
X141620000Y-76866000D02*
X141620000Y-75026000D01*
X142570000Y-75946000D02*
X141620000Y-75946000D01*
%TO.C,914*%
X153164000Y-53125000D02*
X153164000Y-57365000D01*
X153164000Y-56525000D02*
X155404000Y-56525000D01*
X153164000Y-56645000D02*
X155404000Y-56645000D01*
X153164000Y-56765000D02*
X155404000Y-56765000D01*
X153164000Y-57365000D02*
X155404000Y-57365000D01*
X154284000Y-52475000D02*
X154284000Y-53125000D01*
X154284000Y-58015000D02*
X154284000Y-57365000D01*
X155404000Y-53125000D02*
X153164000Y-53125000D01*
X155404000Y-57365000D02*
X155404000Y-53125000D01*
%TO.C,In*%
X134935000Y-98171000D02*
G75*
G02*
X133035000Y-98171000I-950000J0D01*
G01*
X133035000Y-98171000D02*
G75*
G02*
X134935000Y-98171000I950000J0D01*
G01*
%TO.C,100p*%
X145261000Y-64327000D02*
X145261000Y-67967000D01*
X145506000Y-64327000D02*
X145261000Y-64327000D01*
X145506000Y-67967000D02*
X145261000Y-67967000D01*
X147601000Y-64327000D02*
X147356000Y-64327000D01*
X147601000Y-64327000D02*
X147601000Y-67967000D01*
X147601000Y-67967000D02*
X147356000Y-67967000D01*
%TO.C,GND*%
X146365000Y-98171000D02*
G75*
G02*
X144465000Y-98171000I-950000J0D01*
G01*
X144465000Y-98171000D02*
G75*
G02*
X146365000Y-98171000I950000J0D01*
G01*
%TO.C,1M*%
X137510000Y-52690000D02*
X137510000Y-56530000D01*
X137510000Y-56530000D02*
X139350000Y-56530000D01*
X138430000Y-51740000D02*
X138430000Y-52690000D01*
X138430000Y-57480000D02*
X138430000Y-56530000D01*
X139350000Y-52690000D02*
X137510000Y-52690000D01*
X139350000Y-56530000D02*
X139350000Y-52690000D01*
%TO.C,1K*%
X136830000Y-73533000D02*
X137780000Y-73533000D01*
X137780000Y-72613000D02*
X137780000Y-74453000D01*
X137780000Y-74453000D02*
X141620000Y-74453000D01*
X141620000Y-72613000D02*
X137780000Y-72613000D01*
X141620000Y-74453000D02*
X141620000Y-72613000D01*
X142570000Y-73533000D02*
X141620000Y-73533000D01*
%TO.C,10K*%
X134970000Y-52690000D02*
X134970000Y-56530000D01*
X134970000Y-56530000D02*
X136810000Y-56530000D01*
X135890000Y-51740000D02*
X135890000Y-52690000D01*
X135890000Y-57480000D02*
X135890000Y-56530000D01*
X136810000Y-52690000D02*
X134970000Y-52690000D01*
X136810000Y-56530000D02*
X136810000Y-52690000D01*
%TO.C,100R*%
X150165000Y-84455000D02*
X151115000Y-84455000D01*
X151115000Y-83535000D02*
X151115000Y-85375000D01*
X151115000Y-85375000D02*
X154955000Y-85375000D01*
X154955000Y-83535000D02*
X151115000Y-83535000D01*
X154955000Y-85375000D02*
X154955000Y-83535000D01*
X155905000Y-84455000D02*
X154955000Y-84455000D01*
%TO.C,51R*%
X136830000Y-78359000D02*
X137780000Y-78359000D01*
X137780000Y-77439000D02*
X137780000Y-79279000D01*
X137780000Y-79279000D02*
X141620000Y-79279000D01*
X141620000Y-77439000D02*
X137780000Y-77439000D01*
X141620000Y-79279000D02*
X141620000Y-77439000D01*
X142570000Y-78359000D02*
X141620000Y-78359000D01*
%TO.C,100K*%
X136830000Y-83185000D02*
X137780000Y-83185000D01*
X137780000Y-82265000D02*
X137780000Y-84105000D01*
X137780000Y-84105000D02*
X141620000Y-84105000D01*
X141620000Y-82265000D02*
X137780000Y-82265000D01*
X141620000Y-84105000D02*
X141620000Y-82265000D01*
X142570000Y-83185000D02*
X141620000Y-83185000D01*
%TO.C,914*%
X156339000Y-53125000D02*
X156339000Y-57365000D01*
X156339000Y-57365000D02*
X158579000Y-57365000D01*
X157459000Y-52475000D02*
X157459000Y-53125000D01*
X157459000Y-58015000D02*
X157459000Y-57365000D01*
X158579000Y-53125000D02*
X156339000Y-53125000D01*
X158579000Y-53725000D02*
X156339000Y-53725000D01*
X158579000Y-53845000D02*
X156339000Y-53845000D01*
X158579000Y-53965000D02*
X156339000Y-53965000D01*
X158579000Y-57365000D02*
X158579000Y-53125000D01*
%TO.C,Gain*%
X150345000Y-44520000D02*
X150345000Y-46920000D01*
X150345000Y-44520000D02*
X158345000Y-44520000D01*
X158345000Y-46920000D02*
X150345000Y-46920000D01*
X158345000Y-46920000D02*
X158345000Y-44520000D01*
%TO.C,1M*%
X136957000Y-88138000D02*
X137907000Y-88138000D01*
X137907000Y-87218000D02*
X137907000Y-89058000D01*
X137907000Y-89058000D02*
X141747000Y-89058000D01*
X141747000Y-87218000D02*
X137907000Y-87218000D01*
X141747000Y-89058000D02*
X141747000Y-87218000D01*
X142697000Y-88138000D02*
X141747000Y-88138000D01*
%TO.C,1u*%
X146125759Y-76901000D02*
X146755759Y-76901000D01*
X146440759Y-76586000D02*
X146440759Y-77216000D01*
X149626000Y-75510000D02*
X149626000Y-81970000D01*
X149666000Y-75510000D02*
X149666000Y-81970000D01*
X149706000Y-75510000D02*
X149706000Y-81970000D01*
X149746000Y-75512000D02*
X149746000Y-81968000D01*
X149786000Y-75513000D02*
X149786000Y-81967000D01*
X149826000Y-75516000D02*
X149826000Y-81964000D01*
X149866000Y-75518000D02*
X149866000Y-77700000D01*
X149866000Y-79780000D02*
X149866000Y-81962000D01*
X149906000Y-75522000D02*
X149906000Y-77700000D01*
X149906000Y-79780000D02*
X149906000Y-81958000D01*
X149946000Y-75525000D02*
X149946000Y-77700000D01*
X149946000Y-79780000D02*
X149946000Y-81955000D01*
X149986000Y-75529000D02*
X149986000Y-77700000D01*
X149986000Y-79780000D02*
X149986000Y-81951000D01*
X150026000Y-75534000D02*
X150026000Y-77700000D01*
X150026000Y-79780000D02*
X150026000Y-81946000D01*
X150066000Y-75539000D02*
X150066000Y-77700000D01*
X150066000Y-79780000D02*
X150066000Y-81941000D01*
X150106000Y-75545000D02*
X150106000Y-77700000D01*
X150106000Y-79780000D02*
X150106000Y-81935000D01*
X150146000Y-75551000D02*
X150146000Y-77700000D01*
X150146000Y-79780000D02*
X150146000Y-81929000D01*
X150186000Y-75558000D02*
X150186000Y-77700000D01*
X150186000Y-79780000D02*
X150186000Y-81922000D01*
X150226000Y-75565000D02*
X150226000Y-77700000D01*
X150226000Y-79780000D02*
X150226000Y-81915000D01*
X150266000Y-75573000D02*
X150266000Y-77700000D01*
X150266000Y-79780000D02*
X150266000Y-81907000D01*
X150306000Y-75581000D02*
X150306000Y-77700000D01*
X150306000Y-79780000D02*
X150306000Y-81899000D01*
X150347000Y-75590000D02*
X150347000Y-77700000D01*
X150347000Y-79780000D02*
X150347000Y-81890000D01*
X150387000Y-75599000D02*
X150387000Y-77700000D01*
X150387000Y-79780000D02*
X150387000Y-81881000D01*
X150427000Y-75609000D02*
X150427000Y-77700000D01*
X150427000Y-79780000D02*
X150427000Y-81871000D01*
X150467000Y-75619000D02*
X150467000Y-77700000D01*
X150467000Y-79780000D02*
X150467000Y-81861000D01*
X150507000Y-75630000D02*
X150507000Y-77700000D01*
X150507000Y-79780000D02*
X150507000Y-81850000D01*
X150547000Y-75642000D02*
X150547000Y-77700000D01*
X150547000Y-79780000D02*
X150547000Y-81838000D01*
X150587000Y-75654000D02*
X150587000Y-77700000D01*
X150587000Y-79780000D02*
X150587000Y-81826000D01*
X150627000Y-75666000D02*
X150627000Y-77700000D01*
X150627000Y-79780000D02*
X150627000Y-81814000D01*
X150667000Y-75679000D02*
X150667000Y-77700000D01*
X150667000Y-79780000D02*
X150667000Y-81801000D01*
X150707000Y-75693000D02*
X150707000Y-77700000D01*
X150707000Y-79780000D02*
X150707000Y-81787000D01*
X150747000Y-75707000D02*
X150747000Y-77700000D01*
X150747000Y-79780000D02*
X150747000Y-81773000D01*
X150787000Y-75722000D02*
X150787000Y-77700000D01*
X150787000Y-79780000D02*
X150787000Y-81758000D01*
X150827000Y-75738000D02*
X150827000Y-77700000D01*
X150827000Y-79780000D02*
X150827000Y-81742000D01*
X150867000Y-75754000D02*
X150867000Y-77700000D01*
X150867000Y-79780000D02*
X150867000Y-81726000D01*
X150907000Y-75770000D02*
X150907000Y-77700000D01*
X150907000Y-79780000D02*
X150907000Y-81710000D01*
X150947000Y-75788000D02*
X150947000Y-77700000D01*
X150947000Y-79780000D02*
X150947000Y-81692000D01*
X150987000Y-75806000D02*
X150987000Y-77700000D01*
X150987000Y-79780000D02*
X150987000Y-81674000D01*
X151027000Y-75824000D02*
X151027000Y-77700000D01*
X151027000Y-79780000D02*
X151027000Y-81656000D01*
X151067000Y-75844000D02*
X151067000Y-77700000D01*
X151067000Y-79780000D02*
X151067000Y-81636000D01*
X151107000Y-75864000D02*
X151107000Y-77700000D01*
X151107000Y-79780000D02*
X151107000Y-81616000D01*
X151147000Y-75884000D02*
X151147000Y-77700000D01*
X151147000Y-79780000D02*
X151147000Y-81596000D01*
X151187000Y-75906000D02*
X151187000Y-77700000D01*
X151187000Y-79780000D02*
X151187000Y-81574000D01*
X151227000Y-75928000D02*
X151227000Y-77700000D01*
X151227000Y-79780000D02*
X151227000Y-81552000D01*
X151267000Y-75950000D02*
X151267000Y-77700000D01*
X151267000Y-79780000D02*
X151267000Y-81530000D01*
X151307000Y-75974000D02*
X151307000Y-77700000D01*
X151307000Y-79780000D02*
X151307000Y-81506000D01*
X151347000Y-75998000D02*
X151347000Y-77700000D01*
X151347000Y-79780000D02*
X151347000Y-81482000D01*
X151387000Y-76024000D02*
X151387000Y-77700000D01*
X151387000Y-79780000D02*
X151387000Y-81456000D01*
X151427000Y-76050000D02*
X151427000Y-77700000D01*
X151427000Y-79780000D02*
X151427000Y-81430000D01*
X151467000Y-76076000D02*
X151467000Y-77700000D01*
X151467000Y-79780000D02*
X151467000Y-81404000D01*
X151507000Y-76104000D02*
X151507000Y-77700000D01*
X151507000Y-79780000D02*
X151507000Y-81376000D01*
X151547000Y-76133000D02*
X151547000Y-77700000D01*
X151547000Y-79780000D02*
X151547000Y-81347000D01*
X151587000Y-76162000D02*
X151587000Y-77700000D01*
X151587000Y-79780000D02*
X151587000Y-81318000D01*
X151627000Y-76192000D02*
X151627000Y-77700000D01*
X151627000Y-79780000D02*
X151627000Y-81288000D01*
X151667000Y-76224000D02*
X151667000Y-77700000D01*
X151667000Y-79780000D02*
X151667000Y-81256000D01*
X151707000Y-76256000D02*
X151707000Y-77700000D01*
X151707000Y-79780000D02*
X151707000Y-81224000D01*
X151747000Y-76290000D02*
X151747000Y-77700000D01*
X151747000Y-79780000D02*
X151747000Y-81190000D01*
X151787000Y-76324000D02*
X151787000Y-77700000D01*
X151787000Y-79780000D02*
X151787000Y-81156000D01*
X151827000Y-76360000D02*
X151827000Y-77700000D01*
X151827000Y-79780000D02*
X151827000Y-81120000D01*
X151867000Y-76397000D02*
X151867000Y-77700000D01*
X151867000Y-79780000D02*
X151867000Y-81083000D01*
X151907000Y-76435000D02*
X151907000Y-77700000D01*
X151907000Y-79780000D02*
X151907000Y-81045000D01*
X151947000Y-76475000D02*
X151947000Y-81005000D01*
X151987000Y-76516000D02*
X151987000Y-80964000D01*
X152027000Y-76558000D02*
X152027000Y-80922000D01*
X152067000Y-76603000D02*
X152067000Y-80877000D01*
X152107000Y-76648000D02*
X152107000Y-80832000D01*
X152147000Y-76696000D02*
X152147000Y-80784000D01*
X152187000Y-76745000D02*
X152187000Y-80735000D01*
X152227000Y-76796000D02*
X152227000Y-80684000D01*
X152267000Y-76850000D02*
X152267000Y-80630000D01*
X152307000Y-76906000D02*
X152307000Y-80574000D01*
X152347000Y-76964000D02*
X152347000Y-80516000D01*
X152387000Y-77026000D02*
X152387000Y-80454000D01*
X152427000Y-77090000D02*
X152427000Y-80390000D01*
X152467000Y-77159000D02*
X152467000Y-80321000D01*
X152507000Y-77231000D02*
X152507000Y-80249000D01*
X152547000Y-77308000D02*
X152547000Y-80172000D01*
X152587000Y-77390000D02*
X152587000Y-80090000D01*
X152627000Y-77478000D02*
X152627000Y-80002000D01*
X152667000Y-77575000D02*
X152667000Y-79905000D01*
X152707000Y-77681000D02*
X152707000Y-79799000D01*
X152747000Y-77800000D02*
X152747000Y-79680000D01*
X152787000Y-77938000D02*
X152787000Y-79542000D01*
X152827000Y-78107000D02*
X152827000Y-79373000D01*
X152867000Y-78338000D02*
X152867000Y-79142000D01*
X152896000Y-78740000D02*
G75*
G02*
X146356000Y-78740000I-3270000J0D01*
G01*
X146356000Y-78740000D02*
G75*
G02*
X152896000Y-78740000I3270000J0D01*
G01*
%TO.C,4.7u*%
X119589000Y-53624000D02*
X119589000Y-53056000D01*
X119629000Y-53858000D02*
X119629000Y-52822000D01*
X119669000Y-54017000D02*
X119669000Y-52663000D01*
X119709000Y-54145000D02*
X119709000Y-52535000D01*
X119749000Y-54255000D02*
X119749000Y-52425000D01*
X119789000Y-54351000D02*
X119789000Y-52329000D01*
X119829000Y-54438000D02*
X119829000Y-52242000D01*
X119869000Y-54518000D02*
X119869000Y-52162000D01*
X119909000Y-54591000D02*
X119909000Y-52089000D01*
X119949000Y-54659000D02*
X119949000Y-52021000D01*
X119989000Y-54723000D02*
X119989000Y-51957000D01*
X120029000Y-54783000D02*
X120029000Y-51897000D01*
X120069000Y-54840000D02*
X120069000Y-51840000D01*
X120109000Y-54894000D02*
X120109000Y-51786000D01*
X120149000Y-54945000D02*
X120149000Y-51735000D01*
X120189000Y-52300000D02*
X120189000Y-51687000D01*
X120189000Y-54993000D02*
X120189000Y-54380000D01*
X120229000Y-52300000D02*
X120229000Y-51641000D01*
X120229000Y-55039000D02*
X120229000Y-54380000D01*
X120269000Y-52300000D02*
X120269000Y-51597000D01*
X120269000Y-55083000D02*
X120269000Y-54380000D01*
X120309000Y-52300000D02*
X120309000Y-51555000D01*
X120309000Y-55125000D02*
X120309000Y-54380000D01*
X120349000Y-52300000D02*
X120349000Y-51514000D01*
X120349000Y-55166000D02*
X120349000Y-54380000D01*
X120389000Y-52300000D02*
X120389000Y-51476000D01*
X120389000Y-55204000D02*
X120389000Y-54380000D01*
X120429000Y-52300000D02*
X120429000Y-51439000D01*
X120429000Y-55241000D02*
X120429000Y-54380000D01*
X120469000Y-52300000D02*
X120469000Y-51403000D01*
X120469000Y-55277000D02*
X120469000Y-54380000D01*
X120509000Y-52300000D02*
X120509000Y-51369000D01*
X120509000Y-55311000D02*
X120509000Y-54380000D01*
X120549000Y-52300000D02*
X120549000Y-51336000D01*
X120549000Y-55344000D02*
X120549000Y-54380000D01*
X120589000Y-52300000D02*
X120589000Y-51305000D01*
X120589000Y-55375000D02*
X120589000Y-54380000D01*
X120629000Y-52300000D02*
X120629000Y-51275000D01*
X120629000Y-55405000D02*
X120629000Y-54380000D01*
X120669000Y-52300000D02*
X120669000Y-51245000D01*
X120669000Y-55435000D02*
X120669000Y-54380000D01*
X120709000Y-52300000D02*
X120709000Y-51218000D01*
X120709000Y-55462000D02*
X120709000Y-54380000D01*
X120749000Y-52300000D02*
X120749000Y-51191000D01*
X120749000Y-55489000D02*
X120749000Y-54380000D01*
X120789000Y-52300000D02*
X120789000Y-51165000D01*
X120789000Y-55515000D02*
X120789000Y-54380000D01*
X120829000Y-52300000D02*
X120829000Y-51140000D01*
X120829000Y-55540000D02*
X120829000Y-54380000D01*
X120869000Y-52300000D02*
X120869000Y-51116000D01*
X120869000Y-55564000D02*
X120869000Y-54380000D01*
X120909000Y-52300000D02*
X120909000Y-51093000D01*
X120909000Y-55587000D02*
X120909000Y-54380000D01*
X120949000Y-52300000D02*
X120949000Y-51072000D01*
X120949000Y-55608000D02*
X120949000Y-54380000D01*
X120989000Y-52300000D02*
X120989000Y-51050000D01*
X120989000Y-55630000D02*
X120989000Y-54380000D01*
X121029000Y-52300000D02*
X121029000Y-51030000D01*
X121029000Y-55650000D02*
X121029000Y-54380000D01*
X121069000Y-52300000D02*
X121069000Y-51011000D01*
X121069000Y-55669000D02*
X121069000Y-54380000D01*
X121109000Y-52300000D02*
X121109000Y-50992000D01*
X121109000Y-55688000D02*
X121109000Y-54380000D01*
X121149000Y-52300000D02*
X121149000Y-50975000D01*
X121149000Y-55705000D02*
X121149000Y-54380000D01*
X121189000Y-52300000D02*
X121189000Y-50958000D01*
X121189000Y-55722000D02*
X121189000Y-54380000D01*
X121229000Y-52300000D02*
X121229000Y-50942000D01*
X121229000Y-55738000D02*
X121229000Y-54380000D01*
X121269000Y-52300000D02*
X121269000Y-50926000D01*
X121269000Y-55754000D02*
X121269000Y-54380000D01*
X121309000Y-52300000D02*
X121309000Y-50912000D01*
X121309000Y-55768000D02*
X121309000Y-54380000D01*
X121349000Y-52300000D02*
X121349000Y-50898000D01*
X121349000Y-55782000D02*
X121349000Y-54380000D01*
X121389000Y-52300000D02*
X121389000Y-50885000D01*
X121389000Y-55795000D02*
X121389000Y-54380000D01*
X121429000Y-52300000D02*
X121429000Y-50872000D01*
X121429000Y-55808000D02*
X121429000Y-54380000D01*
X121469000Y-52300000D02*
X121469000Y-50860000D01*
X121469000Y-55820000D02*
X121469000Y-54380000D01*
X121510000Y-52300000D02*
X121510000Y-50849000D01*
X121510000Y-55831000D02*
X121510000Y-54380000D01*
X121550000Y-52300000D02*
X121550000Y-50839000D01*
X121550000Y-55841000D02*
X121550000Y-54380000D01*
X121590000Y-52300000D02*
X121590000Y-50829000D01*
X121590000Y-55851000D02*
X121590000Y-54380000D01*
X121630000Y-52300000D02*
X121630000Y-50820000D01*
X121630000Y-55860000D02*
X121630000Y-54380000D01*
X121670000Y-52300000D02*
X121670000Y-50812000D01*
X121670000Y-55868000D02*
X121670000Y-54380000D01*
X121710000Y-52300000D02*
X121710000Y-50804000D01*
X121710000Y-55876000D02*
X121710000Y-54380000D01*
X121750000Y-52300000D02*
X121750000Y-50797000D01*
X121750000Y-55883000D02*
X121750000Y-54380000D01*
X121790000Y-52300000D02*
X121790000Y-50790000D01*
X121790000Y-55890000D02*
X121790000Y-54380000D01*
X121830000Y-52300000D02*
X121830000Y-50784000D01*
X121830000Y-55896000D02*
X121830000Y-54380000D01*
X121870000Y-52300000D02*
X121870000Y-50779000D01*
X121870000Y-55901000D02*
X121870000Y-54380000D01*
X121910000Y-52300000D02*
X121910000Y-50775000D01*
X121910000Y-55905000D02*
X121910000Y-54380000D01*
X121950000Y-52300000D02*
X121950000Y-50771000D01*
X121950000Y-55909000D02*
X121950000Y-54380000D01*
X121990000Y-52300000D02*
X121990000Y-50767000D01*
X121990000Y-55913000D02*
X121990000Y-54380000D01*
X122030000Y-52300000D02*
X122030000Y-50764000D01*
X122030000Y-55916000D02*
X122030000Y-54380000D01*
X122070000Y-52300000D02*
X122070000Y-50762000D01*
X122070000Y-55918000D02*
X122070000Y-54380000D01*
X122110000Y-52300000D02*
X122110000Y-50761000D01*
X122110000Y-55919000D02*
X122110000Y-54380000D01*
X122150000Y-52300000D02*
X122150000Y-50760000D01*
X122150000Y-55920000D02*
X122150000Y-54380000D01*
X122190000Y-52300000D02*
X122190000Y-50760000D01*
X122190000Y-55920000D02*
X122190000Y-54380000D01*
X124744775Y-55065000D02*
X124744775Y-54565000D01*
X124994775Y-54815000D02*
X124494775Y-54815000D01*
X124810000Y-53340000D02*
G75*
G02*
X119570000Y-53340000I-2620000J0D01*
G01*
X119570000Y-53340000D02*
G75*
G02*
X124810000Y-53340000I2620000J0D01*
G01*
%TO.C,1u*%
X125675000Y-53280000D02*
X132135000Y-53280000D01*
X125675000Y-53320000D02*
X132135000Y-53320000D01*
X125675000Y-53360000D02*
X132135000Y-53360000D01*
X125677000Y-53240000D02*
X132133000Y-53240000D01*
X125678000Y-53200000D02*
X132132000Y-53200000D01*
X125681000Y-53160000D02*
X132129000Y-53160000D01*
X125683000Y-53120000D02*
X127865000Y-53120000D01*
X125687000Y-53080000D02*
X127865000Y-53080000D01*
X125690000Y-53040000D02*
X127865000Y-53040000D01*
X125694000Y-53000000D02*
X127865000Y-53000000D01*
X125699000Y-52960000D02*
X127865000Y-52960000D01*
X125704000Y-52920000D02*
X127865000Y-52920000D01*
X125710000Y-52880000D02*
X127865000Y-52880000D01*
X125716000Y-52840000D02*
X127865000Y-52840000D01*
X125723000Y-52800000D02*
X127865000Y-52800000D01*
X125730000Y-52760000D02*
X127865000Y-52760000D01*
X125738000Y-52720000D02*
X127865000Y-52720000D01*
X125746000Y-52680000D02*
X127865000Y-52680000D01*
X125755000Y-52639000D02*
X127865000Y-52639000D01*
X125764000Y-52599000D02*
X127865000Y-52599000D01*
X125774000Y-52559000D02*
X127865000Y-52559000D01*
X125784000Y-52519000D02*
X127865000Y-52519000D01*
X125795000Y-52479000D02*
X127865000Y-52479000D01*
X125807000Y-52439000D02*
X127865000Y-52439000D01*
X125819000Y-52399000D02*
X127865000Y-52399000D01*
X125831000Y-52359000D02*
X127865000Y-52359000D01*
X125844000Y-52319000D02*
X127865000Y-52319000D01*
X125858000Y-52279000D02*
X127865000Y-52279000D01*
X125872000Y-52239000D02*
X127865000Y-52239000D01*
X125887000Y-52199000D02*
X127865000Y-52199000D01*
X125903000Y-52159000D02*
X127865000Y-52159000D01*
X125919000Y-52119000D02*
X127865000Y-52119000D01*
X125935000Y-52079000D02*
X127865000Y-52079000D01*
X125953000Y-52039000D02*
X127865000Y-52039000D01*
X125971000Y-51999000D02*
X127865000Y-51999000D01*
X125989000Y-51959000D02*
X127865000Y-51959000D01*
X126009000Y-51919000D02*
X127865000Y-51919000D01*
X126029000Y-51879000D02*
X127865000Y-51879000D01*
X126049000Y-51839000D02*
X127865000Y-51839000D01*
X126071000Y-51799000D02*
X127865000Y-51799000D01*
X126093000Y-51759000D02*
X127865000Y-51759000D01*
X126115000Y-51719000D02*
X127865000Y-51719000D01*
X126139000Y-51679000D02*
X127865000Y-51679000D01*
X126163000Y-51639000D02*
X127865000Y-51639000D01*
X126189000Y-51599000D02*
X127865000Y-51599000D01*
X126215000Y-51559000D02*
X127865000Y-51559000D01*
X126241000Y-51519000D02*
X127865000Y-51519000D01*
X126269000Y-51479000D02*
X127865000Y-51479000D01*
X126298000Y-51439000D02*
X127865000Y-51439000D01*
X126327000Y-51399000D02*
X127865000Y-51399000D01*
X126357000Y-51359000D02*
X127865000Y-51359000D01*
X126389000Y-51319000D02*
X127865000Y-51319000D01*
X126421000Y-51279000D02*
X127865000Y-51279000D01*
X126455000Y-51239000D02*
X127865000Y-51239000D01*
X126489000Y-51199000D02*
X127865000Y-51199000D01*
X126525000Y-51159000D02*
X127865000Y-51159000D01*
X126562000Y-51119000D02*
X127865000Y-51119000D01*
X126600000Y-51079000D02*
X127865000Y-51079000D01*
X126640000Y-51039000D02*
X131170000Y-51039000D01*
X126681000Y-50999000D02*
X131129000Y-50999000D01*
X126723000Y-50959000D02*
X131087000Y-50959000D01*
X126751000Y-56545241D02*
X127381000Y-56545241D01*
X126768000Y-50919000D02*
X131042000Y-50919000D01*
X126813000Y-50879000D02*
X130997000Y-50879000D01*
X126861000Y-50839000D02*
X130949000Y-50839000D01*
X126910000Y-50799000D02*
X130900000Y-50799000D01*
X126961000Y-50759000D02*
X130849000Y-50759000D01*
X127015000Y-50719000D02*
X130795000Y-50719000D01*
X127066000Y-56860241D02*
X127066000Y-56230241D01*
X127071000Y-50679000D02*
X130739000Y-50679000D01*
X127129000Y-50639000D02*
X130681000Y-50639000D01*
X127191000Y-50599000D02*
X130619000Y-50599000D01*
X127255000Y-50559000D02*
X130555000Y-50559000D01*
X127324000Y-50519000D02*
X130486000Y-50519000D01*
X127396000Y-50479000D02*
X130414000Y-50479000D01*
X127473000Y-50439000D02*
X130337000Y-50439000D01*
X127555000Y-50399000D02*
X130255000Y-50399000D01*
X127643000Y-50359000D02*
X130167000Y-50359000D01*
X127740000Y-50319000D02*
X130070000Y-50319000D01*
X127846000Y-50279000D02*
X129964000Y-50279000D01*
X127965000Y-50239000D02*
X129845000Y-50239000D01*
X128103000Y-50199000D02*
X129707000Y-50199000D01*
X128272000Y-50159000D02*
X129538000Y-50159000D01*
X128503000Y-50119000D02*
X129307000Y-50119000D01*
X129945000Y-51079000D02*
X131210000Y-51079000D01*
X129945000Y-51119000D02*
X131248000Y-51119000D01*
X129945000Y-51159000D02*
X131285000Y-51159000D01*
X129945000Y-51199000D02*
X131321000Y-51199000D01*
X129945000Y-51239000D02*
X131355000Y-51239000D01*
X129945000Y-51279000D02*
X131389000Y-51279000D01*
X129945000Y-51319000D02*
X131421000Y-51319000D01*
X129945000Y-51359000D02*
X131453000Y-51359000D01*
X129945000Y-51399000D02*
X131483000Y-51399000D01*
X129945000Y-51439000D02*
X131512000Y-51439000D01*
X129945000Y-51479000D02*
X131541000Y-51479000D01*
X129945000Y-51519000D02*
X131569000Y-51519000D01*
X129945000Y-51559000D02*
X131595000Y-51559000D01*
X129945000Y-51599000D02*
X131621000Y-51599000D01*
X129945000Y-51639000D02*
X131647000Y-51639000D01*
X129945000Y-51679000D02*
X131671000Y-51679000D01*
X129945000Y-51719000D02*
X131695000Y-51719000D01*
X129945000Y-51759000D02*
X131717000Y-51759000D01*
X129945000Y-51799000D02*
X131739000Y-51799000D01*
X129945000Y-51839000D02*
X131761000Y-51839000D01*
X129945000Y-51879000D02*
X131781000Y-51879000D01*
X129945000Y-51919000D02*
X131801000Y-51919000D01*
X129945000Y-51959000D02*
X131821000Y-51959000D01*
X129945000Y-51999000D02*
X131839000Y-51999000D01*
X129945000Y-52039000D02*
X131857000Y-52039000D01*
X129945000Y-52079000D02*
X131875000Y-52079000D01*
X129945000Y-52119000D02*
X131891000Y-52119000D01*
X129945000Y-52159000D02*
X131907000Y-52159000D01*
X129945000Y-52199000D02*
X131923000Y-52199000D01*
X129945000Y-52239000D02*
X131938000Y-52239000D01*
X129945000Y-52279000D02*
X131952000Y-52279000D01*
X129945000Y-52319000D02*
X131966000Y-52319000D01*
X129945000Y-52359000D02*
X131979000Y-52359000D01*
X129945000Y-52399000D02*
X131991000Y-52399000D01*
X129945000Y-52439000D02*
X132003000Y-52439000D01*
X129945000Y-52479000D02*
X132015000Y-52479000D01*
X129945000Y-52519000D02*
X132026000Y-52519000D01*
X129945000Y-52559000D02*
X132036000Y-52559000D01*
X129945000Y-52599000D02*
X132046000Y-52599000D01*
X129945000Y-52639000D02*
X132055000Y-52639000D01*
X129945000Y-52680000D02*
X132064000Y-52680000D01*
X129945000Y-52720000D02*
X132072000Y-52720000D01*
X129945000Y-52760000D02*
X132080000Y-52760000D01*
X129945000Y-52800000D02*
X132087000Y-52800000D01*
X129945000Y-52840000D02*
X132094000Y-52840000D01*
X129945000Y-52880000D02*
X132100000Y-52880000D01*
X129945000Y-52920000D02*
X132106000Y-52920000D01*
X129945000Y-52960000D02*
X132111000Y-52960000D01*
X129945000Y-53000000D02*
X132116000Y-53000000D01*
X129945000Y-53040000D02*
X132120000Y-53040000D01*
X129945000Y-53080000D02*
X132123000Y-53080000D01*
X129945000Y-53120000D02*
X132127000Y-53120000D01*
X132175000Y-53360000D02*
G75*
G02*
X125635000Y-53360000I-3270000J0D01*
G01*
X125635000Y-53360000D02*
G75*
G02*
X132175000Y-53360000I3270000J0D01*
G01*
%TO.C,Out*%
X138745000Y-98171000D02*
G75*
G02*
X136845000Y-98171000I-950000J0D01*
G01*
X136845000Y-98171000D02*
G75*
G02*
X138745000Y-98171000I950000J0D01*
G01*
%TO.C,5458*%
X151435000Y-57045000D02*
X151435000Y-53445000D01*
X146985000Y-55245000D02*
G75*
G02*
X151423478Y-53406522I2600000J0D01*
G01*
X151423478Y-57083478D02*
G75*
G02*
X146984999Y-55245000I-1838478J1838478D01*
G01*
%TO.C,2.2u*%
X119528113Y-60990000D02*
X119528113Y-60422000D01*
X119568113Y-61224000D02*
X119568113Y-60188000D01*
X119608113Y-61383000D02*
X119608113Y-60029000D01*
X119648113Y-61511000D02*
X119648113Y-59901000D01*
X119688113Y-61621000D02*
X119688113Y-59791000D01*
X119728113Y-61717000D02*
X119728113Y-59695000D01*
X119768113Y-61804000D02*
X119768113Y-59608000D01*
X119808113Y-61884000D02*
X119808113Y-59528000D01*
X119848113Y-59666000D02*
X119848113Y-59455000D01*
X119848113Y-61957000D02*
X119848113Y-61746000D01*
X119888113Y-59666000D02*
X119888113Y-59387000D01*
X119888113Y-62025000D02*
X119888113Y-61746000D01*
X119928113Y-59666000D02*
X119928113Y-59323000D01*
X119928113Y-62089000D02*
X119928113Y-61746000D01*
X119968113Y-59666000D02*
X119968113Y-59263000D01*
X119968113Y-62149000D02*
X119968113Y-61746000D01*
X120008113Y-59666000D02*
X120008113Y-59206000D01*
X120008113Y-62206000D02*
X120008113Y-61746000D01*
X120048113Y-59666000D02*
X120048113Y-59152000D01*
X120048113Y-62260000D02*
X120048113Y-61746000D01*
X120088113Y-59666000D02*
X120088113Y-59101000D01*
X120088113Y-62311000D02*
X120088113Y-61746000D01*
X120128113Y-59666000D02*
X120128113Y-59053000D01*
X120128113Y-62359000D02*
X120128113Y-61746000D01*
X120168113Y-59666000D02*
X120168113Y-59007000D01*
X120168113Y-62405000D02*
X120168113Y-61746000D01*
X120208113Y-59666000D02*
X120208113Y-58963000D01*
X120208113Y-62449000D02*
X120208113Y-61746000D01*
X120248113Y-59666000D02*
X120248113Y-58921000D01*
X120248113Y-62491000D02*
X120248113Y-61746000D01*
X120288113Y-59666000D02*
X120288113Y-58880000D01*
X120288113Y-62532000D02*
X120288113Y-61746000D01*
X120328113Y-59666000D02*
X120328113Y-58842000D01*
X120328113Y-62570000D02*
X120328113Y-61746000D01*
X120368113Y-59666000D02*
X120368113Y-58805000D01*
X120368113Y-62607000D02*
X120368113Y-61746000D01*
X120408113Y-59666000D02*
X120408113Y-58769000D01*
X120408113Y-62643000D02*
X120408113Y-61746000D01*
X120448113Y-59666000D02*
X120448113Y-58735000D01*
X120448113Y-62677000D02*
X120448113Y-61746000D01*
X120488113Y-59666000D02*
X120488113Y-58702000D01*
X120488113Y-62710000D02*
X120488113Y-61746000D01*
X120528113Y-59666000D02*
X120528113Y-58671000D01*
X120528113Y-62741000D02*
X120528113Y-61746000D01*
X120568113Y-59666000D02*
X120568113Y-58641000D01*
X120568113Y-62771000D02*
X120568113Y-61746000D01*
X120608113Y-59666000D02*
X120608113Y-58611000D01*
X120608113Y-62801000D02*
X120608113Y-61746000D01*
X120648113Y-59666000D02*
X120648113Y-58584000D01*
X120648113Y-62828000D02*
X120648113Y-61746000D01*
X120688113Y-59666000D02*
X120688113Y-58557000D01*
X120688113Y-62855000D02*
X120688113Y-61746000D01*
X120728113Y-59666000D02*
X120728113Y-58531000D01*
X120728113Y-62881000D02*
X120728113Y-61746000D01*
X120768113Y-59666000D02*
X120768113Y-58506000D01*
X120768113Y-62906000D02*
X120768113Y-61746000D01*
X120808113Y-59666000D02*
X120808113Y-58482000D01*
X120808113Y-62930000D02*
X120808113Y-61746000D01*
X120848113Y-59666000D02*
X120848113Y-58459000D01*
X120848113Y-62953000D02*
X120848113Y-61746000D01*
X120888113Y-59666000D02*
X120888113Y-58438000D01*
X120888113Y-62974000D02*
X120888113Y-61746000D01*
X120928113Y-59666000D02*
X120928113Y-58416000D01*
X120928113Y-62996000D02*
X120928113Y-61746000D01*
X120968113Y-59666000D02*
X120968113Y-58396000D01*
X120968113Y-63016000D02*
X120968113Y-61746000D01*
X121008113Y-59666000D02*
X121008113Y-58377000D01*
X121008113Y-63035000D02*
X121008113Y-61746000D01*
X121048113Y-59666000D02*
X121048113Y-58358000D01*
X121048113Y-63054000D02*
X121048113Y-61746000D01*
X121088113Y-59666000D02*
X121088113Y-58341000D01*
X121088113Y-63071000D02*
X121088113Y-61746000D01*
X121128113Y-59666000D02*
X121128113Y-58324000D01*
X121128113Y-63088000D02*
X121128113Y-61746000D01*
X121168113Y-59666000D02*
X121168113Y-58308000D01*
X121168113Y-63104000D02*
X121168113Y-61746000D01*
X121208113Y-59666000D02*
X121208113Y-58292000D01*
X121208113Y-63120000D02*
X121208113Y-61746000D01*
X121248113Y-59666000D02*
X121248113Y-58278000D01*
X121248113Y-63134000D02*
X121248113Y-61746000D01*
X121288113Y-59666000D02*
X121288113Y-58264000D01*
X121288113Y-63148000D02*
X121288113Y-61746000D01*
X121328113Y-59666000D02*
X121328113Y-58251000D01*
X121328113Y-63161000D02*
X121328113Y-61746000D01*
X121368113Y-59666000D02*
X121368113Y-58238000D01*
X121368113Y-63174000D02*
X121368113Y-61746000D01*
X121408113Y-59666000D02*
X121408113Y-58226000D01*
X121408113Y-63186000D02*
X121408113Y-61746000D01*
X121449113Y-59666000D02*
X121449113Y-58215000D01*
X121449113Y-63197000D02*
X121449113Y-61746000D01*
X121489113Y-59666000D02*
X121489113Y-58205000D01*
X121489113Y-63207000D02*
X121489113Y-61746000D01*
X121529113Y-59666000D02*
X121529113Y-58195000D01*
X121529113Y-63217000D02*
X121529113Y-61746000D01*
X121569113Y-59666000D02*
X121569113Y-58186000D01*
X121569113Y-63226000D02*
X121569113Y-61746000D01*
X121609113Y-59666000D02*
X121609113Y-58178000D01*
X121609113Y-63234000D02*
X121609113Y-61746000D01*
X121649113Y-59666000D02*
X121649113Y-58170000D01*
X121649113Y-63242000D02*
X121649113Y-61746000D01*
X121689113Y-59666000D02*
X121689113Y-58163000D01*
X121689113Y-63249000D02*
X121689113Y-61746000D01*
X121729113Y-59666000D02*
X121729113Y-58156000D01*
X121729113Y-63256000D02*
X121729113Y-61746000D01*
X121769113Y-59666000D02*
X121769113Y-58150000D01*
X121769113Y-63262000D02*
X121769113Y-61746000D01*
X121809113Y-59666000D02*
X121809113Y-58145000D01*
X121809113Y-63267000D02*
X121809113Y-61746000D01*
X121849113Y-59666000D02*
X121849113Y-58141000D01*
X121849113Y-63271000D02*
X121849113Y-61746000D01*
X121889113Y-59666000D02*
X121889113Y-58137000D01*
X121889113Y-63275000D02*
X121889113Y-61746000D01*
X121929113Y-63279000D02*
X121929113Y-58133000D01*
X121969113Y-63282000D02*
X121969113Y-58130000D01*
X122009113Y-63284000D02*
X122009113Y-58128000D01*
X122049113Y-63285000D02*
X122049113Y-58127000D01*
X122089113Y-63286000D02*
X122089113Y-58126000D01*
X122129113Y-63286000D02*
X122129113Y-58126000D01*
X124683888Y-62431000D02*
X124683888Y-61931000D01*
X124933888Y-62181000D02*
X124433888Y-62181000D01*
X124749113Y-60706000D02*
G75*
G02*
X119509113Y-60706000I-2620000J0D01*
G01*
X119509113Y-60706000D02*
G75*
G02*
X124749113Y-60706000I2620000J0D01*
G01*
%TD*%
M02*
